<svg aria-hidden="true" style="position: absolute; width: 0; height: 0; overflow: hidden;" version="1.1" xmlns="http://www.w3.org/2000/svg" xmlns:xlink="http://www.w3.org/1999/xlink">
<defs>
<symbol id="icon-SQLite" viewBox="0 0 32 32">
<path fill="#000" style="fill: var(--color1, #000)" d="M22.554 3.867h-16.931c-0.837 0.001-1.515 0.679-1.516 1.516v17.962c4.014-1.561 8.656-2.533 13.505-2.682l0.064-0.002c1.428-6.59 3.108-12.209 5.16-17.645l-0.282 0.851z"></path>
<path fill="#0f80cc" style="fill: var(--color2, #0f80cc)" d="M23.192 3.242h-17.569c-1.181 0.003-2.138 0.96-2.141 2.141v19.376c0.003 1.181 0.96 2.138 2.141 2.141h11.572c-0.132-5.758 1.835-16.932 5.997-23.658z"></path>
<path fill="#003b57" style="fill: var(--color3, #003b57)" d="M27.29 2.608c-1.2-1.073-2.66-0.642-4.1 0.634-0.213 0.19-0.426 0.4-0.638 0.625-2.613 3.075-4.52 6.832-5.421 10.965l-0.031 0.168c0.244 0.515 0.461 1.122 0.619 1.752l0.015 0.070c0.036 0.14 0.069 0.272 0.1 0.384 0.062 0.265 0.1 0.437 0.1 0.437s-0.022-0.083-0.113-0.346l-0.059-0.17c-0.010-0.027-0.023-0.059-0.038-0.094-0.16-0.373-0.6-1.16-0.8-1.5-0.167 0.493-0.315 0.954-0.438 1.371 0.385 0.805 0.699 1.743 0.895 2.723l0.013 0.077s-0.030-0.115-0.171-0.515c-0.321-0.692-0.622-1.252-0.948-1.794l0.048 0.086c-0.173 0.433-0.273 0.934-0.273 1.459 0 0.093 0.003 0.186 0.009 0.278l-0.001-0.012c0.204 0.397 0.374 0.859 0.485 1.343l0.008 0.040c0.334 1.283 0.566 2.846 0.566 2.846s0.008 0.1 0.020 0.263c-0.014 0.32-0.022 0.696-0.022 1.073 0 0.75 0.032 1.493 0.094 2.228l-0.007-0.096c0.054 1.126 0.264 2.184 0.608 3.18l-0.024-0.080 0.18-0.1c-0.322-1.114-0.508-2.394-0.508-3.718 0-0.32 0.011-0.638 0.032-0.953l-0.002 0.043c0.206-3.53 0.9-6.833 2.015-9.934l-0.077 0.246c2.010-5.308 4.8-9.568 7.35-11.6-2.326 2.1-5.474 8.9-6.417 11.418-0.899 2.259-1.679 4.942-2.209 7.715l-0.045 0.285c0.617-1.532 1.781-2.735 3.245-3.388l0.039-0.016s1.233-1.521 2.674-3.693c-1.114 0.233-2.038 0.486-2.94 0.786l0.185-0.053c-0.7 0.294-0.889 0.394-0.889 0.394 1.202-0.738 2.592-1.415 4.049-1.953l0.166-0.054c2.676-4.215 5.592-10.2 2.656-12.824z"></path>
</symbol>
<symbol id="icon-NET" viewBox="0 0 32 32">
<path fill="#5c2d91" style="fill: var(--color4, #5c2d91)" d="M32 16c0 8.837-7.163 16-16 16s-16-7.163-16-16c0-8.837 7.163-16 16-16s16 7.163 16 16z"></path>
<path fill="#fff" opacity="0.1" style="fill: var(--color5, #fff)" d="M4.91 4.5c-3.293 2.943-5.355 7.204-5.355 11.945 0 8.837 7.163 16 16 16 4.742 0 9.002-2.063 11.932-5.34l0.014-0.015z"></path>
<path fill="#fff" style="fill: var(--color5, #fff)" d="M3.7 20.625c-0.003 0-0.007 0-0.011 0-0.192 0-0.366-0.081-0.489-0.21l-0-0c-0.127-0.125-0.205-0.299-0.205-0.491 0-0.003 0-0.006 0-0.010v0c0-0.002-0-0.003-0-0.005 0-0.193 0.078-0.368 0.205-0.495v0c0.123-0.132 0.298-0.215 0.492-0.215 0.003 0 0.006 0 0.009 0h-0c0.001 0 0.001 0 0.002 0 0.196 0 0.373 0.082 0.498 0.215l0 0c0.13 0.126 0.21 0.303 0.21 0.498 0 0.001 0 0.002 0 0.002v-0c0 0.002 0 0.004 0 0.006 0 0.194-0.080 0.369-0.21 0.493l-0 0c-0.126 0.13-0.301 0.21-0.496 0.21-0.002 0-0.003 0-0.005 0h0z"></path>
<path fill="#fff" style="fill: var(--color5, #fff)" d="M13.635 20.5h-1.31l-4.685-7.27c-0.108-0.164-0.206-0.351-0.283-0.549l-0.007-0.021h-0.040c0.034 0.299 0.053 0.646 0.053 0.998 0 0.089-0.001 0.177-0.004 0.265l0-0.013v6.59h-1.065v-9.115h1.385l4.56 7.14q0.285 0.445 0.37 0.61h0.025c-0.043-0.341-0.067-0.736-0.067-1.136 0-0.072 0.001-0.143 0.002-0.214l-0 0.011v-6.41h1.065z"></path>
<path fill="#fff" style="fill: var(--color5, #fff)" d="M20.845 20.5h-4.845v-9.115h4.62v0.965h-3.53v3.030h3.29v0.96h-3.29v3.16h3.76z"></path>
<path fill="#fff" style="fill: var(--color5, #fff)" d="M28 12.35h-2.65v8.15h-1.065v-8.15h-2.62v-0.965h6.335z"></path>
</symbol>
<symbol id="icon-C" viewBox="0 0 32 32">
<path fill="#9b4f96" style="fill: var(--color6, #9b4f96)" d="M28.85 7.675l-12.075-6.95c-0.2-0.125-0.475-0.175-0.775-0.175s-0.575 0.075-0.775 0.175l-12 6.975c-0.425 0.25-0.725 0.875-0.725 1.35v13.925c0 0.275 0.050 0.6 0.25 0.875l26.7-15.5c-0.15-0.3-0.375-0.525-0.6-0.675z"></path>
<path fill="#68217a" style="fill: var(--color7, #68217a)" d="M2.675 23.825c0.125 0.2 0.3 0.375 0.475 0.475l12.050 6.975c0.2 0.125 0.475 0.175 0.775 0.175s0.575-0.075 0.775-0.175l12-6.975c0.425-0.25 0.725-0.875 0.725-1.35v-13.925c0-0.225-0.025-0.475-0.15-0.7l-26.65 15.5z"></path>
<path fill="#fff" style="fill: var(--color5, #fff)" d="M21.325 19.025c-1.050 1.85-3.050 3.1-5.325 3.1-3.375 0-6.125-2.75-6.125-6.125s2.75-6.125 6.125-6.125c2.275 0 4.275 1.25 5.325 3.125l3.25-1.875c-1.7-2.975-4.9-5-8.575-5-5.45 0-9.875 4.425-9.875 9.875s4.425 9.875 9.875 9.875c3.65 0 6.85-2 8.55-4.95l-3.225-1.9zM24.25 16.55l0.225-1.075h-1.050v-1.175h1.275l0.3-1.55h1.225l-0.3 1.525h0.95l0.3-1.525h1.2l-0.3 1.525h0.6v1.175h-0.825l-0.225 1.075h1.050v1.175h-1.275l-0.3 1.5h-1.225l0.3-1.5h-0.95l-0.3 1.5h-1.2l0.3-1.5h-0.6v-1.175h0.825zM25.45 16.55h0.95l0.225-1.075h-0.95l-0.225 1.075z"></path>
</symbol>
<symbol id="icon-Threejs" viewBox="0 0 32 32">
<path d="M4.055 3.941c-0.154 0.003-0.277 0.128-0.277 0.282 0 0.024 0.003 0.047 0.009 0.069l-0-0.002 6.098 24.686c0.031 0.124 0.142 0.215 0.274 0.215 0.076 0 0.145-0.030 0.196-0.079l-0 0 18.346-17.648c0.053-0.051 0.087-0.124 0.087-0.204 0-0.128-0.085-0.236-0.202-0.271l-0.002-0.001-24.445-7.038c-0.023-0.007-0.050-0.011-0.078-0.011-0.002 0-0.003 0-0.005 0h0zM4.451 4.629l23.506 6.768-17.642 16.969-5.864-23.737z"></path>
<path d="M16.284 7.46c-0.002-0-0.004-0-0.006-0-0.076 0-0.145 0.030-0.196 0.079l0-0-9.169 8.826c-0.053 0.051-0.086 0.123-0.086 0.203 0 0.128 0.085 0.236 0.202 0.271l0.002 0 12.215 3.52c0.023 0.007 0.050 0.011 0.078 0.011 0.156 0 0.282-0.126 0.282-0.282 0-0.024-0.003-0.047-0.009-0.070l0 0.002-3.046-12.347c-0.031-0.122-0.139-0.212-0.268-0.215h-0zM16.122 8.285l2.812 11.398-11.276-3.25 8.464-8.148z"></path>
<path d="M11.729 11.828c-0.154 0.003-0.277 0.128-0.277 0.282 0 0.024 0.003 0.047 0.009 0.069l-0-0.002 1.514 6.133c0.031 0.124 0.142 0.215 0.274 0.215 0.076 0 0.145-0.030 0.196-0.079l-0 0 4.556-4.391c0.053-0.051 0.086-0.123 0.086-0.203 0-0.128-0.085-0.236-0.202-0.271l-0.002-0.001-6.069-1.742c-0.023-0.007-0.050-0.011-0.078-0.011-0.002 0-0.003 0-0.005 0h0zM12.124 12.516l5.131 1.473-3.851 3.711-1.279-5.184z"></path>
<path d="M10.226 5.702c-0.002-0-0.004-0-0.006-0-0.076 0-0.145 0.030-0.196 0.079l0-0-4.556 4.39c-0.053 0.051-0.086 0.123-0.086 0.203 0 0.128 0.085 0.236 0.202 0.271l0.002 0.001 6.068 1.742c0.023 0.007 0.050 0.011 0.078 0.011 0.156 0 0.282-0.126 0.282-0.282 0-0.024-0.003-0.047-0.009-0.070l0 0.002-1.513-6.133c-0.031-0.122-0.139-0.212-0.268-0.215h-0zM10.063 6.527l1.278 5.184-5.129-1.473 3.851-3.712zM22.363 9.198c-0.002-0-0.004-0-0.006-0-0.076 0-0.145 0.030-0.196 0.079l0-0-4.556 4.39c-0.053 0.051-0.087 0.124-0.087 0.203 0 0.128 0.085 0.236 0.203 0.271l0.002 0.001 6.069 1.742c0.023 0.007 0.050 0.011 0.078 0.011 0.156 0 0.282-0.126 0.282-0.282 0-0.024-0.003-0.047-0.009-0.070l0 0.002-1.512-6.133c-0.031-0.122-0.139-0.212-0.268-0.215h-0zM22.201 10.023l1.279 5.184-5.129-1.473 3.851-3.712zM13.236 17.966c-0.072 0.003-0.137 0.032-0.185 0.079l0-0-4.556 4.391c-0.053 0.051-0.086 0.123-0.086 0.203 0 0.128 0.085 0.236 0.202 0.271l0.002 0 6.069 1.742c0.023 0.007 0.050 0.011 0.078 0.011 0.156 0 0.282-0.126 0.282-0.282 0-0.024-0.003-0.047-0.009-0.069l0 0.002-1.514-6.133c-0.031-0.124-0.142-0.215-0.274-0.215-0.004 0-0.008 0-0.011 0l0.001-0zM13.091 18.791l1.28 5.184-5.13-1.473 3.851-3.712z"></path>
</symbol>
<symbol id="icon-Firebase" viewBox="0 0 32 32">
<path fill="#f58220" style="fill: var(--color8, #f58220)" d="M6.838 20.13l2.67-17.11c0.092-0.583 0.875-0.723 1.15-0.2l2.87 5.37-6.69 11.94zM25.823 24.288l-2.547-15.76c-0.078-0.49-0.69-0.69-1.043-0.338l-16.055 16.098 8.885 4.988c0.259 0.145 0.568 0.231 0.897 0.231s0.639-0.085 0.907-0.235l-0.009 0.005 8.965-4.988zM18.61 10.537l-2.058-3.912c-0.23-0.445-0.86-0.445-1.090 0l-9.037 16.113 12.185-12.2z"></path>
</symbol>
<symbol id="icon-Docker" viewBox="0 0 32 32">
<path fill="#3a4d54" style="fill: var(--color9, #3a4d54)" d="M18.45 12.7h2.825v2.875h1.425c0.65 0 1.325-0.125 1.95-0.325 0.3-0.1 0.65-0.25 0.95-0.425-0.4-0.525-0.6-1.175-0.65-1.825-0.075-0.875 0.1-2.025 0.7-2.7l0.3-0.35 0.35 0.275c0.9 0.725 1.625 1.7 1.775 2.85 1.075-0.325 2.325-0.25 3.275 0.3l0.375 0.225-0.2 0.4c-0.8 1.55-2.475 2.050-4.1 1.95-2.45 6.075-7.75 8.95-14.2 8.95-3.325 0-6.375-1.25-8.125-4.2l-0.025-0.050-0.25-0.525c-0.6-1.3-0.775-2.725-0.65-4.15l0.050-0.425h2.4v-2.85h2.825v-2.8h5.625v-2.825h3.375v5.625z"></path>
<path fill="#00aada" style="fill: var(--color10, #00aada)" d="M27.6 13.775c0.2-1.475-0.9-2.625-1.6-3.175-0.775 0.9-0.9 3.3 0.325 4.3-0.7 0.6-2.125 1.175-3.625 1.175h-18.050c-0.15 1.55 0.125 2.975 0.75 4.2l0.2 0.375c0.125 0.225 0.275 0.425 0.425 0.65 0.75 0.050 1.425 0.075 2.050 0.050 1.225-0.025 2.225-0.175 3-0.425 0.125-0.050 0.225 0.025 0.275 0.125 0.050 0.125-0.025 0.225-0.125 0.275-0.1 0.025-0.2 0.075-0.325 0.1-0.6 0.175-1.25 0.275-2.075 0.325h-0.15c-0.325 0.025-0.675 0.025-1.050 0.025-0.4 0-0.775 0-1.225-0.025 1.5 1.7 3.85 2.7 6.8 2.7 6.25 0 11.55-2.775 13.875-8.975 1.675 0.175 3.275-0.25 4-1.675-1.125-0.675-2.625-0.45-3.475-0.025z"></path>
<path fill="#28b8eb" style="fill: var(--color11, #28b8eb)" d="M27.6 13.775c0.2-1.475-0.9-2.625-1.6-3.175-0.775 0.9-0.9 3.3 0.325 4.3-0.7 0.6-2.125 1.175-3.625 1.175h-17c-0.075 2.375 0.8 4.175 2.375 5.25 1.225-0.025 2.225-0.175 3-0.425 0.125-0.050 0.225 0.025 0.275 0.125 0.050 0.125-0.025 0.225-0.125 0.275-0.1 0.025-0.2 0.075-0.325 0.1-0.6 0.175-1.3 0.3-2.125 0.35l-0.025-0.025c2.125 1.1 5.2 1.075 8.75-0.275 3.95-1.525 7.65-4.425 10.225-7.725-0.050 0.025-0.1 0.025-0.125 0.050z"></path>
<path fill="#028bb8" style="fill: var(--color12, #028bb8)" d="M4.675 17.95c0.1 0.825 0.35 1.6 0.725 2.325l0.2 0.375c0.125 0.225 0.275 0.425 0.425 0.65 0.75 0.050 1.425 0.075 2.050 0.050 1.225-0.025 2.225-0.175 3-0.425 0.125-0.050 0.225 0.025 0.275 0.125 0.050 0.125-0.025 0.225-0.125 0.275-0.1 0.025-0.2 0.075-0.325 0.1-0.6 0.175-1.3 0.3-2.125 0.35h-0.1c-0.325 0.025-0.675 0.025-1.025 0.025-0.4 0-0.8 0-1.225-0.025 1.5 1.7 3.875 2.7 6.825 2.7 5.35 0 10-2.025 12.7-6.5h-21.275v-0.025z"></path>
<path fill="#019bc6" style="fill: var(--color13, #019bc6)" d="M5.875 17.95c0.325 1.45 1.075 2.6 2.2 3.375 1.225-0.025 2.225-0.175 3-0.425 0.125-0.050 0.225 0.025 0.275 0.125 0.050 0.125-0.025 0.225-0.125 0.275-0.1 0.025-0.2 0.075-0.325 0.1-0.6 0.175-1.3 0.3-2.15 0.35 2.125 1.1 5.2 1.075 8.725-0.275 2.125-0.825 4.2-2.050 6.050-3.525h-17.65z"></path>
<path fill="#00acd3" style="fill: var(--color14, #00acd3)" d="M7.1 13.175v2.45h2.45v-2.45h-2.45zM7.3 13.375h0.2v2.025h-0.2v-2.025zM7.65 13.375h0.2v2.025h-0.2v-2.025zM8.025 13.375h0.2v2.025h-0.2v-2.025zM8.4 13.375h0.2v2.025h-0.2v-2.025zM8.775 13.375h0.2v2.025h-0.2v-2.025zM9.15 13.375h0.2v2.025h-0.2v-2.025zM9.9 10.375v2.45h2.45v-2.45h-2.45zM10.125 10.575h0.2v2.025h-0.2v-2.025zM10.475 10.575h0.2v2.025h-0.2v-2.025zM10.85 10.575h0.2v2.025h-0.2v-2.025zM11.225 10.575h0.2v2.025h-0.2v-2.025zM11.575 10.575h0.2v2.025h-0.2v-2.025zM11.95 10.575h0.2v2.025h-0.2v-2.025z"></path>
<path fill="#23c2ee" style="fill: var(--color15, #23c2ee)" d="M9.9 13.175v2.45h2.45v-2.45h-2.45zM10.125 13.375h0.2v2.025h-0.2v-2.025zM10.475 13.375h0.2v2.025h-0.2v-2.025zM10.85 13.375h0.2v2.025h-0.2v-2.025zM11.225 13.375h0.2v2.025h-0.2v-2.025zM11.575 13.375h0.2v2.025h-0.2v-2.025zM11.95 13.375h0.2v2.025h-0.2v-2.025z"></path>
<path fill="#00acd3" style="fill: var(--color14, #00acd3)" d="M12.725 13.175v2.45h2.45v-2.45h-2.45zM12.925 13.375h0.2v2.025h-0.2v-2.025zM13.3 13.375h0.2v2.025h-0.2v-2.025zM13.675 13.375h0.2v2.025h-0.2v-2.025zM14.025 13.375h0.2v2.025h-0.2v-2.025zM14.4 13.375h0.2v2.025h-0.2v-2.025zM14.775 13.375h0.2v2.025h-0.2v-2.025z"></path>
<path fill="#23c2ee" style="fill: var(--color15, #23c2ee)" d="M12.725 10.375v2.45h2.45v-2.45h-2.45zM12.925 10.575h0.2v2.025h-0.2v-2.025zM13.3 10.575h0.2v2.025h-0.2v-2.025zM13.675 10.575h0.2v2.025h-0.2v-2.025zM14.025 10.575h0.2v2.025h-0.2v-2.025zM14.4 10.575h0.2v2.025h-0.2v-2.025zM14.775 10.575h0.2v2.025h-0.2v-2.025zM15.55 13.175v2.45h2.45v-2.45h-2.45zM15.75 13.375h0.2v2.025h-0.2v-2.025zM16.125 13.375h0.2v2.025h-0.2v-2.025zM16.475 13.375h0.2v2.025h-0.2v-2.025zM16.85 13.375h0.2v2.025h-0.2v-2.025zM17.225 13.375h0.2v2.025h-0.2v-2.025zM17.6 13.375h0.2v2.025h-0.2v-2.025z"></path>
<path fill="#00acd3" style="fill: var(--color14, #00acd3)" d="M15.55 10.375v2.45h2.45v-2.45h-2.45zM15.75 10.575h0.2v2.025h-0.2v-2.025zM16.125 10.575h0.2v2.025h-0.2v-2.025zM16.475 10.575h0.2v2.025h-0.2v-2.025zM16.85 10.575h0.2v2.025h-0.2v-2.025zM17.225 10.575h0.2v2.025h-0.2v-2.025zM17.6 10.575h0.2v2.025h-0.2v-2.025z"></path>
<path fill="#23c2ee" style="fill: var(--color15, #23c2ee)" d="M15.55 7.55v2.45h2.45v-2.45h-2.45zM15.75 7.75h0.2v2.025h-0.2v-2.025zM16.125 7.75h0.2v2.025h-0.2v-2.025zM16.475 7.75h0.2v2.025h-0.2v-2.025zM16.85 7.75h0.2v2.025h-0.2v-2.025zM17.225 7.75h0.2v2.025h-0.2v-2.025zM17.6 7.75h0.2v2.025h-0.2v-2.025z"></path>
<path fill="#00acd3" style="fill: var(--color14, #00acd3)" d="M18.375 13.175v2.45h2.45v-2.45h-2.45zM18.575 13.375h0.2v2.025h-0.2v-2.025zM18.925 13.375h0.2v2.025h-0.2v-2.025zM19.3 13.375h0.2v2.025h-0.2v-2.025zM19.675 13.375h0.2v2.025h-0.2v-2.025zM20.050 13.375h0.2v2.025h-0.2v-2.025zM20.425 13.375h0.2v2.025h-0.2v-2.025z"></path>
<path fill="#d4eef1" style="fill: var(--color16, #d4eef1)" d="M12.2 19.575c0.375 0 0.675 0.3 0.675 0.675s-0.3 0.675-0.675 0.675c-0.375 0-0.675-0.3-0.675-0.675s0.3-0.675 0.675-0.675z"></path>
<path fill="#3a4d54" style="fill: var(--color9, #3a4d54)" d="M12.2 19.775c0.050 0 0.125 0 0.175 0.025-0.050 0.025-0.1 0.1-0.1 0.175 0 0.1 0.1 0.2 0.2 0.2 0.075 0 0.15-0.050 0.175-0.1 0.025 0.050 0.025 0.125 0.025 0.175 0 0.275-0.225 0.475-0.475 0.475-0.275 0-0.475-0.225-0.475-0.475s0.2-0.475 0.475-0.475zM0.275 18.2h31.35c-0.675-0.175-2.15-0.4-1.925-1.3-1.25 1.425-4.225 1-5 0.3-0.85 1.225-5.75 0.75-6.075-0.2-1.050 1.25-4.325 1.25-5.375 0-0.35 0.95-5.25 1.425-6.075 0.2-0.75 0.7-3.75 1.125-5-0.3 0.275 0.875-1.225 1.125-1.9 1.3z"></path>
<path fill="#bfdbe0" style="fill: var(--color17, #bfdbe0)" d="M14 24.45c-1.675-0.8-2.575-1.875-3.1-3.050-0.625 0.175-1.375 0.3-2.225 0.35-0.325 0.025-0.675 0.025-1.025 0.025-0.425 0-0.85 0-1.3-0.025 1.5 1.5 3.4 2.675 6.875 2.7h0.775z"></path>
<path fill="#d4eef1" style="fill: var(--color16, #d4eef1)" d="M11.525 22.475c-0.225-0.325-0.45-0.7-0.625-1.075-0.625 0.175-1.375 0.3-2.225 0.35 0.575 0.3 1.425 0.6 2.85 0.725z"></path>
</symbol>
<symbol id="icon-Kubernetes" viewBox="0 0 32 32">
<path fill="#486bb3" style="fill: var(--color18, #486bb3)" d="M14.121 13.774c0.092 0.068 0.205 0.107 0.328 0.107 0.3 0 0.545-0.238 0.557-0.533l0.012-0.008 0.188-3.315c-0.225 0.027-0.45 0.065-0.675 0.115-1.232 0.28-2.3 0.887-3.135 1.707l2.717 1.928 0.008-0.002zM13.758 18.632c-0.058-0.249-0.278-0.432-0.541-0.432-0.037 0-0.073 0.004-0.108 0.010l0.004-0.001-0.005-0.008-3.262 0.552c0.508 1.38 1.425 2.51 2.602 3.272l0.026 0.015 1.265-3.055-0.010-0.012c0.043-0.105 0.057-0.223 0.030-0.343zM12.674 16.279c0.11-0.030 0.213-0.095 0.29-0.19 0.188-0.235 0.155-0.572-0.070-0.768l0.002-0.012-2.482-2.22c-0.605 0.97-0.964 2.149-0.964 3.411 0 0.25 0.014 0.496 0.041 0.739l-0.003-0.030 3.182-0.918 0.002-0.012zM15.084 17.255l0.915 0.44 0.915-0.438 0.225-0.988-0.633-0.79h-1.015l-0.635 0.79zM16.983 13.337c0.005 0.115 0.045 0.227 0.122 0.322 0.188 0.235 0.525 0.277 0.765 0.102l0.010 0.005 2.7-1.915c-1.020-0.998-2.35-1.65-3.788-1.825l0.188 3.31h0.003zM18.878 18.195c-0.043-0.008-0.085-0.012-0.128-0.010-0.073 0.003-0.145 0.023-0.212 0.055-0.188 0.092-0.315 0.282-0.315 0.502 0 0.080 0.017 0.155 0.047 0.224l-0.001-0.004-0.005 0.005 1.277 3.085c1.232-0.785 2.152-1.957 2.635-3.31l-3.29-0.558-0.008 0.010zM16.488 19.829c-0.097-0.176-0.281-0.293-0.493-0.293-0.006 0-0.012 0-0.018 0l0.001-0c-0.193 0.008-0.375 0.115-0.473 0.295h-0.002l-1.605 2.9c0.628 0.221 1.352 0.348 2.105 0.348 0.519 0 1.023-0.060 1.507-0.174l-0.044 0.009c0.22-0.050 0.435-0.11 0.642-0.18l-1.607-2.907h-0.012z"></path>
<path fill="#486bb3" style="fill: var(--color18, #486bb3)" d="M31.136 19.197l-2.61-11.332c-0.143-0.604-0.546-1.094-1.081-1.352l-0.012-0.005-10.56-5.045c-0.256-0.125-0.558-0.198-0.876-0.198-0.037 0-0.073 0.001-0.109 0.003l0.005-0c-0.284 0.014-0.549 0.085-0.787 0.2l0.012-0.005-10.56 5.045c-0.546 0.265-0.948 0.754-1.090 1.344l-0.003 0.014-2.603 11.335c-0.032 0.134-0.051 0.288-0.051 0.447 0 0.405 0.122 0.782 0.331 1.096l-0.005-0.007c0.035 0.055 0.075 0.108 0.115 0.16l7.31 9.087c0.374 0.461 0.94 0.753 1.574 0.753 0.002 0 0.004 0 0.007 0l11.722-0.003c0.615 0 1.195-0.277 1.58-0.753l7.308-9.090c0.27-0.338 0.434-0.771 0.434-1.242 0-0.16-0.019-0.315-0.054-0.464l0.003 0.014zM27.119 19.059c-0.078 0.337-0.44 0.543-0.815 0.462-0.003 0-0.008 0-0.010-0.003-0.005 0-0.008-0.003-0.012-0.005-0.052-0.012-0.117-0.023-0.163-0.035-0.215-0.058-0.372-0.145-0.567-0.22-0.418-0.15-0.765-0.275-1.102-0.325-0.172-0.012-0.26 0.067-0.355 0.13-0.045-0.010-0.188-0.035-0.27-0.047-0.605 1.902-1.895 3.552-3.643 4.582 0.030 0.073 0.082 0.227 0.105 0.255-0.040 0.108-0.1 0.207-0.047 0.372 0.122 0.317 0.32 0.63 0.56 1.003 0.115 0.172 0.235 0.305 0.34 0.505 0.025 0.047 0.058 0.12 0.082 0.17 0.163 0.348 0.043 0.747-0.27 0.898-0.315 0.152-0.705-0.008-0.875-0.358-0.025-0.050-0.058-0.115-0.078-0.163-0.090-0.205-0.12-0.38-0.183-0.58-0.142-0.42-0.262-0.767-0.433-1.063-0.098-0.142-0.215-0.16-0.323-0.195-0.020-0.035-0.095-0.172-0.135-0.242-0.35 0.133-0.71 0.242-1.085 0.328-1.64 0.372-3.283 0.223-4.747-0.343l-0.143 0.26c-0.107 0.027-0.21 0.058-0.273 0.133-0.23 0.275-0.322 0.715-0.49 1.135-0.063 0.198-0.092 0.375-0.182 0.58-0.020 0.047-0.055 0.113-0.078 0.16v0.003l-0.002 0.003c-0.168 0.348-0.557 0.508-0.873 0.358-0.313-0.15-0.43-0.55-0.27-0.898 0.025-0.050 0.055-0.122 0.080-0.17 0.105-0.198 0.223-0.332 0.34-0.505 0.24-0.375 0.45-0.71 0.572-1.027 0.030-0.105-0.015-0.25-0.055-0.358l0.115-0.275c-1.683-0.997-3.010-2.585-3.645-4.552l-0.275 0.047c-0.075-0.043-0.223-0.14-0.362-0.128-0.338 0.050-0.685 0.175-1.103 0.325-0.195 0.075-0.35 0.16-0.567 0.218-0.045 0.012-0.11 0.025-0.162 0.038-0.005 0-0.008 0.003-0.013 0.005-0.003 0-0.008 0-0.010 0.003-0.375 0.080-0.737-0.125-0.815-0.462s0.162-0.68 0.535-0.77c0.003 0 0.008-0.003 0.010-0.003s0.003 0 0.005-0.003c0.053-0.012 0.12-0.030 0.17-0.040 0.22-0.043 0.4-0.032 0.607-0.047 0.442-0.047 0.808-0.085 1.133-0.188 0.103-0.043 0.202-0.185 0.272-0.275l0.265-0.078c-0.298-2.055 0.205-4.070 1.29-5.703l-0.203-0.18c-0.012-0.080-0.030-0.26-0.127-0.365-0.248-0.232-0.563-0.428-0.94-0.66-0.18-0.105-0.345-0.172-0.525-0.307-0.037-0.027-0.090-0.072-0.13-0.105-0.003-0.002-0.008-0.005-0.010-0.008-0.303-0.242-0.372-0.66-0.155-0.932 0.122-0.152 0.31-0.23 0.502-0.223 0.15 0.005 0.308 0.060 0.44 0.165 0.043 0.035 0.102 0.080 0.14 0.113 0.17 0.145 0.273 0.29 0.415 0.443 0.313 0.318 0.57 0.58 0.852 0.77 0.148 0.088 0.262 0.053 0.375 0.037 0.037 0.027 0.158 0.115 0.227 0.162 1.075-1.143 2.49-1.988 4.13-2.36 0.383-0.088 0.762-0.145 1.143-0.175l0.015-0.268c0.085-0.082 0.178-0.197 0.205-0.327 0.027-0.34-0.018-0.705-0.070-1.147-0.030-0.205-0.078-0.378-0.088-0.6-0.002-0.045 0-0.11 0.002-0.162 0-0.005-0.002-0.013-0.002-0.018 0-0.388 0.283-0.702 0.632-0.702s0.633 0.315 0.633 0.702c0 0.055 0.003 0.13 0.003 0.18-0.008 0.223-0.058 0.395-0.087 0.6-0.052 0.44-0.1 0.808-0.073 1.147 0.025 0.17 0.125 0.237 0.207 0.315 0.003 0.045 0.010 0.197 0.015 0.283 2.010 0.178 3.875 1.098 5.247 2.535l0.24-0.172c0.082 0.005 0.26 0.030 0.383-0.043 0.282-0.19 0.54-0.455 0.852-0.77 0.142-0.152 0.247-0.295 0.418-0.443 0.038-0.033 0.098-0.078 0.14-0.113 0.302-0.242 0.725-0.215 0.942 0.057s0.148 0.69-0.155 0.932c-0.043 0.035-0.098 0.082-0.14 0.113-0.18 0.133-0.345 0.2-0.525 0.307-0.378 0.232-0.692 0.428-0.94 0.66-0.117 0.125-0.108 0.245-0.12 0.357-0.035 0.033-0.157 0.143-0.225 0.2 0.533 0.783 0.942 1.698 1.174 2.682l0.011 0.056c0.23 0.998 0.265 1.993 0.133 2.95l0.255 0.075c0.045 0.065 0.14 0.223 0.273 0.275 0.325 0.102 0.69 0.14 1.133 0.188 0.207 0.017 0.387 0.008 0.608 0.047 0.052 0.010 0.13 0.030 0.183 0.043 0.375 0.093 0.613 0.435 0.535 0.773z"></path>
<path fill="#486bb3" style="fill: var(--color18, #486bb3)" d="M21.569 13.089l-2.47 2.21 0.003 0.008c-0.085 0.075-0.15 0.175-0.177 0.295-0.067 0.293 0.11 0.583 0.395 0.662l0.003 0.012 3.197 0.92c0.067-0.69 0.027-1.405-0.137-2.12-0.165-0.723-0.442-1.39-0.813-1.988z"></path>
</symbol>
<symbol id="icon-Mongoosejs" viewBox="0 0 32 32">
<path fill="#850000" style="fill: var(--color19, #850000)" d="M17.488 9.827c-0.419 0.018-1.127 0.13-1.127 0.178 0 0.020 0.499 0.27 0.537 0.27 0.035 0 0.614 0.289 0.743 0.369 0.168 0.107 0.288 0.205 0.253 0.205-0.023 0-0.617-0.23-0.843-0.327-0.183-0.077-0.946-0.305-1.317-0.393-0.201-0.047-0.286-0.065-0.628-0.127-0.504-0.092-1.097-0.098-1.354-0.013-0.369 0.12-0.452 0.268-0.452 0.812 0 0.3 0.015 0.427 0.080 0.696 0.028 0.117 0.108 0.375 0.146 0.462 0.011 0.027 0.046 0.113 0.075 0.188 0.030 0.074 0.121 0.267 0.201 0.424 0.449 0.892 1.122 1.635 2.070 2.289 0.299 0.205 1.112 0.594 1.437 0.687 0.083 0.023 0.11 0.069 0.043 0.069-0.075 0-0.762-0.19-0.903-0.249-0.037-0.018-0.091-0.040-0.146-0.060l-0.017-0.006c-0.489-0.197-1.114-0.604-1.631-1.066-0.556-0.496-1.004-1.1-1.314-1.781l-0.014-0.033c-0.198-0.447-0.333-0.969-0.366-1.423-0.020-0.26-0.040-0.322-0.107-0.319-0.023 0-0.236-0.008-0.472-0.021-0.64-0.027-1.515 0.043-2.382 0.193-1.656 0.282-3.443 0.934-5.282 1.927-0.423 0.227-0.719 0.399-1.011 0.576l0.105-0.059c-0.035 0.021-0.146 0.088-0.246 0.15s-0.218 0.132-0.261 0.159c-0.095 0.056-1.147 0.77-1.272 0.864-0.047 0.034-0.178 0.132-0.288 0.212-0.499 0.369-1.586 1.256-1.649 1.346-0.030 0.045 0.018 0.067 0.082 0.045 0.033-0.013 0.118-0.030 0.186-0.040 0.070-0.011 0.251-0.058 0.401-0.107 0.152-0.048 0.317-0.098 0.363-0.111 0.372-0.087 0.522-0.117 0.74-0.149 0.099-0.012 0.244-0.035 0.326-0.048 1.019-0.149 1.506-0.187 1.96-0.152 0.986 0.080 1.93 0.248 2.47 0.44 0.404 0.146 1.226 0.59 1.588 0.856 0.209 0.157 0.881 0.826 1.029 1.028 0.115 0.16 0.243 0.3 0.273 0.3 0.010 0 0.023-0.51 0.025-1.131l0.007-1.128 1.321-0.008c1.039-0.005 1.327 0.003 1.345 0.025 0.025 0.033 0.086 0.14 0.284 0.506 0.188 0.352 0.281 0.523 0.339 0.624 0.030 0.056 0.1 0.185 0.158 0.287 0.055 0.102 0.157 0.292 0.227 0.422s0.128 0.24 0.128 0.245c0 0.023 0.104 0.157 0.121 0.157 0.010 0 0.035-0.038 0.053-0.080 0.020-0.045 0.072-0.145 0.116-0.22 0.045-0.075 0.125-0.221 0.181-0.324s0.131-0.245 0.171-0.313c0.11-0.198 0.226-0.411 0.321-0.586 0.157-0.304 0.261-0.491 0.368-0.678l-0.055 0.103c0.032-0.063 0.072-0.128 0.085-0.145 0.021-0.023 0.316-0.030 1.386-0.025l1.357 0.008 0.008 2.204c0.005 1.736 0.012 2.201 0.038 2.201 0.015-0.003 0.115-0.061 0.218-0.133 0.145-0.102 0.208-0.164 0.276-0.279 0.153-0.262 0.588-0.674 0.879-0.834 0.326-0.184 0.703-0.33 1.101-0.418l0.028-0.005c0.401-0.085 0.52-0.098 1.431-0.13 1.663-0.058 1.909-0.067 1.922-0.080 0.008-0.007-0.015-0.072-0.048-0.148-0.035-0.072-0.095-0.207-0.138-0.297-0.158-0.342-0.158-0.456 0.008-0.624 0.113-0.117 0.403-0.22 0.903-0.32 0.082-0.017 0.186-0.040 0.227-0.055 0.043-0.013 0.096-0.023 0.118-0.023 0.064 0 0.563-0.122 0.668-0.162 0.073-0.030 0.464-0.115 0.931-0.205 0.203-0.040 0.73-0.145 1.167-0.233 0.276-0.055 0.564-0.112 0.639-0.127s0.184-0.037 0.238-0.047c0.055-0.012 0.128-0.028 0.163-0.033 0.035-0.007 0.211-0.042 0.39-0.079 0.079-0.020 0.215-0.047 0.353-0.071l0.050-0.007c0.126-0.012 1.072-0.239 1.29-0.309 0.347-0.113 0.449-0.157 0.668-0.304 0.235-0.16 0.301-0.247 0.534-0.712 0.259-0.517 0.296-0.604 0.369-0.821 0.113-0.347 0.105-0.479-0.038-0.624-0.101-0.1-0.317-0.202-0.474-0.225-0.118-0.015-0.134-0.010-0.191 0.053-0.035 0.037-0.066 0.082-0.066 0.098 0 0.023-0.040 0.132-0.152 0.402-0.011 0.027-0.033 0.095-0.051 0.149-0.015 0.056-0.045 0.133-0.063 0.175-0.032 0.070-0.035 0.057-0.023-0.137 0.013-0.193 0.045-0.354 0.118-0.6 0.013-0.047 0.030-0.127 0.037-0.177l0.012-0.090-0.261-0.104c-0.271-0.113-0.505-0.21-0.64-0.271-0.046-0.017-0.158-0.062-0.251-0.097-0.096-0.035-0.211-0.080-0.259-0.102-0.048-0.024-0.135-0.060-0.223-0.095l-0.040-0.014c-0.168-0.066-0.755-0.265-1.255-0.422 0.478 0.115 0.143 0.012-0.192-0.090l-0.811-0.212c-0.181-0.045-0.299-0.078-0.416-0.114l0.064 0.017c-0.040-0.011-0.139-0.038-0.214-0.057-0.442-0.122-0.556-0.152-0.715-0.197-0.041-0.014-0.129-0.038-0.218-0.060l-0.045-0.010c-0.048-0.012-0.177-0.042-0.288-0.069-0.194-0.048-1.004-0.234-1.444-0.335l-0.314-0.072c-0.055-0.012-0.155-0.032-0.226-0.045-0.068-0.012-0.211-0.040-0.314-0.063-0.102-0.019-0.323-0.063-0.489-0.090-0.165-0.029-0.363-0.064-0.439-0.077-0.693-0.125-0.74-0.132-1.983-0.27-0.765-0.087-1.795-0.16-2.046-0.148-0.040 0-0.262 0.010-0.491 0.023zM14.587 11.057c0.663 0.215 1.308 0.507 1.749 0.792 0.352 0.227 0.788 0.589 0.906 0.751l0.050 0.068-0.095-0.037c-0.052-0.023-0.163-0.070-0.246-0.11-0.442-0.205-0.489-0.222-0.489-0.177 0 0.012 0.102 0.177 0.226 0.361 0.126 0.188 0.226 0.352 0.226 0.367 0 0.012-0.047-0.008-0.105-0.048-0.226-0.155-0.755-0.377-0.785-0.332-0.008 0.012 0.155 0.22 0.364 0.462 0.205 0.242 0.376 0.449 0.376 0.465 0 0.037-0.040 0.032-0.23-0.038-0.196-0.069-0.246-0.077-0.246-0.029 0 0.032 0.424 0.604 0.592 0.801 0.048 0.055 0.086 0.107 0.086 0.12 0 0.060-0.588-0.322-1.004-0.651-0.595-0.475-1.17-1.111-1.473-1.637-0.249-0.43-0.334-0.661-0.334-0.916 0-0.149 0.007-0.179 0.063-0.232 0.033-0.034 0.073-0.063 0.088-0.063s0.14 0.038 0.283 0.085zM22.51 11.946c0.24 0.043 0.569 0.1 0.727 0.128s0.352 0.059 0.427 0.072c0.075 0.015 0.183 0.034 0.238 0.047s0.163 0.035 0.238 0.053c0.248 0.055 0.308 0.068 0.715 0.162 0.436 0.102 0.532 0.122 0.665 0.149 0.113 0.023 0.226 0.066 0.226 0.085 0 0.008-0.082 0.056-0.183 0.107-0.206 0.102-0.249 0.11-1.097 0.143-0.577 0.024-0.886 0.018-1.167-0.027-0.567-0.088-0.86-0.247-1.089-0.591-0.080-0.117-0.133-0.152-0.317-0.199-0.067-0.021-0.171-0.048-0.226-0.066-0.056-0.018-0.151-0.045-0.211-0.063-0.181-0.047-0.078-0.074 0.286-0.074 0.251 0 0.427 0.017 0.765 0.074zM25.528 15.434c-0.009 0.002-0.020 0.004-0.031 0.004s-0.022-0.001-0.032-0.004l0.001 0c-0.017-0.008-0.005-0.013 0.030-0.013s0.047 0.005 0.032 0.012zM25.42 15.463c0 0.012-0.029 0.030-0.067 0.038-0.078 0.020-0.384 0.107-0.484 0.139-0.035 0.013-0.148 0.048-0.251 0.078-0.259 0.075-0.886 0.279-1.054 0.345-0.317 0.12-1.059 0.514-1.164 0.619-0.156 0.152-0.204 0.316-0.181 0.631 0.007 0.133 0.024 0.3 0.040 0.372 0.030 0.157 0.012 0.2-0.048 0.122s-0.189-0.357-0.226-0.494c-0.020-0.061-0.043-0.145-0.055-0.184-0.045-0.142-0.027-0.31 0.043-0.411 0.095-0.145 0.436-0.377 0.838-0.569 0.191-0.093 0.745-0.283 1.255-0.432 0.102-0.030 0.216-0.065 0.251-0.075 0.361-0.122 1.104-0.239 1.104-0.178zM17.483 15.631c-0.008 0.007-0.030 0.010-0.048 0.002-0.020-0.007-0.012-0.014 0.015-0.014 0.028-0.003 0.043 0.005 0.033 0.012z"></path>
<path fill="#850000" style="fill: var(--color19, #850000)" d="M12.221 20.458v1.747h1.25c0.938 0 1.257-0.008 1.279-0.030 0.038-0.038 0.046-3.464 0.008-3.464-0.012 0-0.030 0.020-0.038 0.042-0.010 0.023-0.283 0.449-0.61 0.948-0.517 0.789-0.66 0.981-0.66 0.884 0-0.017-0.855-1.352-1.074-1.675-0.027-0.038-0.053-0.081-0.075-0.126l-0.002-0.006c-0.021-0.038-0.045-0.067-0.057-0.067-0.011 0-0.021 0.786-0.021 1.747z"></path>
</symbol>
<symbol id="icon-MongoDB" viewBox="0 0 32 32">
<path fill="#439934" style="fill: var(--color20, #439934)" d="M22.009 10.703c0.401 1.161 0.69 2.346 0.785 3.574 0.118 1.524 0.064 3.037-0.257 4.536-0.009 0.041-0.027 0.080-0.041 0.12-0.101 0-0.203-0.012-0.302 0.003-0.832 0.131-1.664 0.266-2.495 0.401-0.86 0.139-1.72 0.273-2.578 0.422-0.304 0.052-0.68-0.010-0.803 0.41-0.003 0.012-0.038 0.014-0.059 0.020l0.041-2.513-0.042-6.063 0.401-0.069c0.655-0.107 1.31-0.216 1.965-0.32 0.782-0.124 1.565-0.245 2.348-0.366 0.345-0.054 0.691-0.103 1.037-0.155z"></path>
<path fill="#45a538" style="fill: var(--color21, #45a538)" d="M15.432 27.514c-0.422-0.363-0.86-0.71-1.265-1.093-2.179-2.055-3.773-4.475-4.558-7.392-0.216-0.803-0.361-1.619-0.407-2.448-0.033-0.581-0.079-1.166-0.039-1.744 0.109-1.536 0.331-3.057 0.782-4.537l0.025-0.034c0.044 0.058 0.107 0.11 0.129 0.175 0.44 1.295 0.876 2.591 1.31 3.888 1.364 4.075 2.727 8.151 4.094 12.225 0.027 0.079 0.096 0.145 0.146 0.216l-0.217 0.742z"></path>
<path fill="#46a037" style="fill: var(--color22, #46a037)" d="M22.009 10.703c-0.346 0.052-0.692 0.101-1.037 0.154-0.783 0.121-1.566 0.242-2.348 0.366-0.655 0.104-1.311 0.213-1.965 0.32l-0.401 0.069-0.003-0.261c-0.013-0.215-0.036-0.429-0.038-0.644-0.017-1.37-0.028-2.739-0.045-4.109-0.011-0.857-0.026-1.714-0.044-2.571-0.011-0.532-0.022-1.065-0.046-1.597-0.013-0.286-0.059-0.57-0.078-0.856-0.011-0.164 0.004-0.33 0.007-0.495 0.204 0.396 0.404 0.794 0.614 1.187 0.332 0.621 0.86 1.079 1.336 1.578 1.881 1.973 3.216 4.267 4.048 6.858z"></path>
<path fill="#409433" style="fill: var(--color23, #409433)" d="M16.259 20.188c0.020-0.006 0.055-0.009 0.059-0.020 0.123-0.421 0.499-0.358 0.803-0.41 0.858-0.148 1.719-0.282 2.578-0.422 0.831-0.135 1.663-0.27 2.495-0.401 0.099-0.015 0.201-0.003 0.302-0.003-0.155 0.555-0.278 1.122-0.475 1.662-0.224 0.612-0.495 1.21-0.783 1.796-0.463 0.929-0.992 1.731-1.604 2.46l0.015-0.019c-0.48 0.577-1.014 1.11-1.55 1.637-0.296 0.291-0.645 0.529-0.971 0.79l-0.084-0.058-0.303-0.259-0.314-0.688c-0.204-0.733-0.33-1.577-0.348-2.448l-0-0.011 0.006-0.14 0.043-0.607c0.014-0.207 0.033-0.414 0.042-0.621 0.032-0.745 0.060-1.491 0.090-2.236z"></path>
<path fill="#4faa41" style="fill: var(--color24, #4faa41)" d="M16.259 20.188c-0.029 0.745-0.058 1.491-0.089 2.237-0.009 0.207-0.028 0.414-0.042 0.621l-0.191 0.072c-0.425-1.25-0.85-2.488-1.265-3.728-0.688-2.052-1.367-4.108-2.053-6.16-2.923-9.564-3.493-11.213-4.066-12.86l2.391 7.894c-0.026-0.078-0.102-0.138-0.154-0.207l1.224-2.251c0.042 0.073 0.098 0.141 0.124 0.22-2.686-9.16-2.11-7.49-1.538-5.818l3.23 10.848c0.729 2.183 1.454 4.367 2.182 6.55 0.029 0.087 0.077 0.168 0.123 0.265l0.168-0.195-0.042 2.513z"></path>
<path fill="#4aa73c" style="fill: var(--color25, #4aa73c)" d="M10.789 8.057c0.053 0.069 0.128 0.129 0.154 0.207-1.818-6.246-1.248-4.597-0.682-2.946l2.357 7.913c0.687 2.053 1.366 4.108 2.053 6.161 0.415 1.24 0.841 2.478 1.265 3.728l0.191-0.072-0.043 0.607-0.039 0.14c-0.066 0.664-0.123 1.329-0.204 1.992-0.041 0.332-0.127 0.658-0.193 0.987-0.050-0.072-0.119-0.137-0.146-0.216-1.367-4.074-2.729-8.15-4.094-12.225-2.481-8.133-2.927-9.424-3.375-10.714l2.065 6.826c-0.022-0.066-0.085-0.117-0.129-0.175l0.818-2.21z"></path>
<path fill="#57ae47" style="fill: var(--color26, #57ae47)" d="M16.3 17.675l-0.168 0.195c-0.046-0.098-0.094-0.178-0.123-0.265-0.728-2.183-1.453-4.367-2.182-6.55-3.802-12.519-4.378-14.19-4.956-15.859l3.264 10.829c-0.026-0.079-0.082-0.147-0.124-0.22l1.514-1.991c0.048 0.064 0.116 0.12 0.14 0.192 0.42 1.23 0.837 2.462 1.251 3.694 0.387 1.151 0.768 2.304 1.159 3.453 0.026 0.077 0.117 0.132 0.178 0.197l0.003 0.261c0.015 2.021 0.029 4.042 0.043 6.063z"></path>
<path fill="#60b24f" style="fill: var(--color27, #60b24f)" d="M16.255 11.351c-0.061-0.065-0.152-0.12-0.178-0.197-0.391-1.149-0.772-2.302-1.159-3.453-0.414-1.232-0.831-2.464-1.251-3.694-0.025-0.072-0.093-0.128-0.14-0.192 0.492-0.482 0.969-0.981 1.481-1.441 0.455-0.409 0.821-0.847 0.838-1.492 0.001-0.027 0.015-0.053 0.036-0.129l0.13 0.327c-0.003 0.165-0.018 0.331-0.007 0.495 0.019 0.286 0.065 0.57 0.078 0.856 0.024 0.532 0.035 1.064 0.046 1.597 0.017 0.857 0.033 1.714 0.044 2.571 0.017 1.369 0.028 2.739 0.045 4.109 0.002 0.215 0.024 0.43 0.038 0.644z"></path>
<path fill="#a9aa88" style="fill: var(--color28, #a9aa88)" d="M15.649 26.771c0.066-0.329 0.152-0.655 0.193-0.987 0.081-0.662 0.137-1.328 0.204-1.992l0.017-0.003 0.017 0.003c0.019 0.882 0.145 1.727 0.365 2.532l-0.017-0.073c-0.044 0.058-0.106 0.11-0.13 0.175-0.182 0.512-0.353 1.029-0.536 1.541-0.025 0.070-0.095 0.125-0.143 0.186l-0.187-0.642 0.217-0.742z"></path>
<path fill="#b6b598" style="fill: var(--color29, #b6b598)" d="M15.619 28.155c0.049-0.061 0.119-0.116 0.143-0.186 0.183-0.512 0.354-1.029 0.536-1.541 0.023-0.066 0.085-0.117 0.13-0.175l0.314 0.689c-0.062 0.088-0.148 0.167-0.182 0.265l-0.601 1.765c-0.025 0.071-0.109 0.121-0.166 0.18l-0.174-0.996z"></path>
<path fill="#c2c1a7" style="fill: var(--color30, #c2c1a7)" d="M15.793 29.151c0.057-0.059 0.141-0.11 0.166-0.18l0.601-1.765c0.034-0.098 0.12-0.177 0.182-0.265l0.304 0.259c-0.147 0.145-0.228 0.313-0.179 0.524l-0.092 0.302c-0.042 0.052-0.103 0.097-0.123 0.156-0.21 0.601-0.41 1.205-0.621 1.805-0.027 0.076-0.101 0.136-0.153 0.203-0.027-0.347-0.055-0.693-0.083-1.040z"></path>
<path fill="#cecdb7" style="fill: var(--color31, #cecdb7)" d="M15.876 30.191c0.052-0.067 0.127-0.127 0.154-0.203 0.211-0.601 0.412-1.204 0.621-1.805 0.021-0.059 0.081-0.104 0.123-0.156l-0.127 1.386c-0.034 0.039-0.083 0.073-0.099 0.119-0.144 0.404-0.279 0.81-0.424 1.213-0.030 0.083-0.087 0.157-0.131 0.235-0.040-0.052-0.11-0.102-0.114-0.156-0.013-0.21-0.004-0.422-0.003-0.633z"></path>
<path fill="#dbdac7" style="fill: var(--color32, #dbdac7)" d="M15.992 30.98c0.045-0.078 0.101-0.151 0.131-0.235 0.145-0.403 0.28-0.81 0.424-1.213 0.016-0.046 0.066-0.080 0.099-0.119l0.003 0.91-0.305 0.781-0.353-0.124z"></path>
<path fill="#ebe9dc" style="fill: var(--color33, #ebe9dc)" d="M16.345 31.104l0.305-0.781 0.063 0.924-0.367-0.143z"></path>
<path fill="#cecdb7" style="fill: var(--color31, #cecdb7)" d="M16.866 27.724c-0.049-0.212 0.032-0.38 0.179-0.524l0.084 0.058-0.264 0.467z"></path>
<path fill="#4faa41" style="fill: var(--color24, #4faa41)" d="M16.079 23.793l-0.017-0.003-0.017 0.003 0.039-0.14-0.006 0.14z"></path>
</symbol>
<symbol id="icon-PostgresSQL" viewBox="0 0 32 32">
<path fill="#000" style="fill: var(--color1, #000)" d="M23.452 23.028c0.196-1.633 0.137-1.873 1.354-1.608l0.309 0.027c0.936 0.043 2.159-0.151 2.878-0.485 1.548-0.718 2.465-1.917 0.939-1.602-3.481 0.718-3.72-0.46-3.72-0.46 3.676-5.454 5.212-12.377 3.886-14.072-3.617-4.622-9.879-2.437-9.984-2.38l-0.034 0.006c-0.688-0.143-1.457-0.228-2.322-0.242-1.575-0.026-2.771 0.413-3.677 1.1 0 0-11.171-4.602-10.651 5.788 0.111 2.21 3.168 16.724 6.815 12.341 1.333-1.603 2.621-2.959 2.621-2.959 0.639 0.425 1.405 0.642 2.208 0.564l0.062-0.053c-0.020 0.199-0.011 0.394 0.025 0.624-0.939 1.050-0.663 1.234-2.541 1.62-1.901 0.392-0.784 1.089-0.055 1.271 0.884 0.221 2.928 0.534 4.309-1.399l-0.055 0.221c0.368 0.295 0.344 2.119 0.396 3.422s0.14 2.52 0.405 3.237c0.266 0.717 0.579 2.564 3.048 2.035 2.063-0.441 3.64-1.077 3.784-6.996z"></path>
<path fill="#000" style="fill: var(--color1, #000)" d="M18.864 31.314c-1.092 0-1.803-0.422-2.235-0.83-0.652-0.615-0.91-1.407-1.065-1.881l-0.067-0.198c-0.311-0.84-0.416-2.048-0.479-3.605-0.009-0.234-0.016-0.474-0.023-0.73-0.005-0.187-0.012-0.421-0.021-0.666-0.359 0.176-0.775 0.312-1.212 0.388l-0.028 0.004c-0.77 0.131-1.597 0.089-2.46-0.127-0.609-0.152-1.241-0.468-1.602-0.955-1.051 0.92-2.053 0.796-2.599 0.613-0.963-0.321-1.825-1.224-2.636-2.759-0.577-1.094-1.135-2.519-1.659-4.236-0.913-2.99-1.492-6.139-1.544-7.173-0.162-3.236 0.709-5.551 2.589-6.878 2.965-2.095 7.458-0.863 9.096-0.304 1.101-0.663 2.395-0.986 3.858-0.963 0.786 0.013 1.534 0.082 2.229 0.206 0.725-0.228 2.157-0.555 3.796-0.535 3.020 0.036 5.523 1.213 7.237 3.404 1.224 1.563 0.619 4.845 0.149 6.663-0.66 2.556-1.818 5.276-3.239 7.643 0.386 0.003 0.945-0.044 1.74-0.208 1.569-0.324 2.027 0.517 2.152 0.894 0.499 1.511-1.669 2.652-2.346 2.966-0.866 0.402-2.279 0.647-3.436 0.594l-0.050-0.003-0.304-0.027-0.030 0.253-0.029 0.248c-0.078 3-0.506 4.899-1.388 6.155-0.924 1.316-2.209 1.685-3.34 1.927-0.386 0.082-0.737 0.119-1.055 0.119zM16.567 20.396c0.705 0.564 0.767 1.625 0.822 3.608 0.007 0.247 0.014 0.482 0.022 0.701 0.026 0.663 0.089 2.214 0.332 2.869 0.034 0.093 0.065 0.187 0.098 0.287 0.271 0.829 0.407 1.245 1.577 0.994 0.983-0.211 1.488-0.4 1.884-0.963 0.575-0.819 0.896-2.465 0.955-4.894l1.196 0.029-1.188-0.142 0.035-0.297c0.114-0.977 0.196-1.683 0.849-2.151 0.524-0.375 1.122-0.338 1.597-0.253-0.523-0.395-0.667-0.858-0.706-1.048l-0.1-0.491 0.28-0.416c1.614-2.395 2.945-5.338 3.652-8.076 0.727-2.813 0.505-4.306 0.284-4.589-2.932-3.747-8.017-2.2-8.548-2.024l-0.090 0.049-0.45 0.084-0.23-0.048c-0.636-0.132-1.341-0.205-2.098-0.217-1.189-0.020-2.148 0.261-2.935 0.858l-0.546 0.414-0.633-0.261c-1.353-0.553-5.327-1.665-7.424-0.18-1.164 0.825-1.694 2.44-1.576 4.802 0.039 0.78 0.569 3.732 1.443 6.594 1.208 3.956 2.305 5.271 2.763 5.423 0.080 0.027 0.287-0.134 0.494-0.382 0.931-1.113 1.804-2.095 2.705-3.051l-0.032 0.034 0.693-0.729 0.837 0.556c0.338 0.224 0.71 0.352 1.092 0.375l1.997-1.703-0.289 2.952c-0.007 0.066-0.010 0.157 0.016 0.324l0.087 0.559-0.421 0.471 1.097 0.506 0.459-0.575z"></path>
<path fill="#336791" style="fill: var(--color34, #336791)" d="M28.933 19.36c-3.481 0.718-3.721-0.46-3.721-0.46 3.676-5.454 5.212-12.377 3.886-14.072-3.617-4.622-9.88-2.436-9.984-2.38l-0.034 0.006c-0.688-0.143-1.457-0.228-2.323-0.242-1.575-0.026-2.77 0.413-3.677 1.101 0 0-11.171-4.602-10.652 5.788 0.111 2.21 3.168 16.725 6.815 12.341 1.333-1.603 2.621-2.959 2.621-2.959 0.64 0.425 1.405 0.642 2.208 0.564l0.063-0.053c-0.020 0.199-0.011 0.394 0.025 0.624-0.94 1.050-0.664 1.234-2.542 1.62-1.9 0.392-0.784 1.089-0.055 1.271 0.883 0.221 2.928 0.534 4.309-1.399l-0.055 0.221c0.368 0.295 0.627 1.918 0.583 3.389s-0.073 2.482 0.218 3.27c0.29 0.789 0.579 2.564 3.048 2.035 2.063-0.442 3.132-1.588 3.281-3.499 0.105-1.359 0.344-1.158 0.36-2.372l0.192-0.575c0.221-1.842 0.035-2.436 1.306-2.16l0.309 0.027c0.936 0.043 2.16-0.151 2.878-0.485 1.547-0.718 2.465-1.917 0.939-1.602z"></path>
<path fill="#fff" style="fill: var(--color5, #fff)" d="M18.989 30.577c-2.058 0-2.71-1.63-2.977-2.296-0.39-0.977-0.475-4.767-0.388-7.876 0.005-0.215 0.181-0.388 0.397-0.388 0.004 0 0.009 0 0.013 0l-0.001-0c0.215 0.006 0.388 0.182 0.388 0.398 0 0.004-0 0.008-0 0.012v-0.001c-0.1 3.585 0.042 6.834 0.331 7.557 0.451 1.127 1.135 2.113 3.069 1.699 1.836-0.394 2.523-1.090 2.829-2.865 0.235-1.362 0.7-5.238 0.757-6.003 0.016-0.207 0.187-0.369 0.397-0.369 0.011 0 0.021 0 0.032 0.001l-0.001-0c0.207 0.016 0.369 0.188 0.369 0.398 0 0.010-0 0.021-0.001 0.031l0-0.001c-0.060 0.796-0.522 4.664-0.766 6.079-0.361 2.097-1.296 3.048-3.448 3.509-0.366 0.078-0.698 0.113-1 0.113zM7.83 22.616c-0.189-0.001-0.371-0.033-0.541-0.091l0.012 0.004c-1.337-0.446-2.61-2.623-3.784-6.471-0.894-2.929-1.461-5.987-1.51-6.98-0.147-2.946 0.611-5.030 2.255-6.194 3.252-2.304 8.722-0.11 8.953-0.015 0.147 0.061 0.248 0.203 0.248 0.369 0 0.22-0.179 0.399-0.399 0.399-0.054 0-0.106-0.011-0.153-0.031l0.003 0.001c-0.053-0.022-5.298-2.123-8.192-0.071-1.405 0.996-2.051 2.848-1.918 5.503 0.042 0.837 0.571 3.821 1.476 6.787 1.048 3.435 2.242 5.603 3.274 5.947 0.162 0.054 0.655 0.218 1.36-0.629 0.885-1.060 1.72-1.998 2.583-2.91l-0.027 0.028c0.072-0.072 0.172-0.116 0.282-0.116 0.22 0 0.399 0.179 0.399 0.399 0 0.104-0.040 0.199-0.105 0.27l0-0c-0.012 0.012-1.212 1.267-2.519 2.84-0.619 0.745-1.213 0.963-1.697 0.963zM25.188 19.255c-0.22-0-0.398-0.179-0.398-0.399 0-0.083 0.025-0.16 0.069-0.224l-0.001 0.001c3.716-5.514 5.020-12.176 3.903-13.604-1.406-1.796-3.391-2.735-5.901-2.789-1.858-0.040-3.335 0.434-3.577 0.517l-0.061 0.025c-0.243 0.076-0.429-0.057-0.499-0.212-0.022-0.048-0.035-0.105-0.035-0.164 0-0.144 0.076-0.271 0.191-0.341l0.002-0.001c0.012-0.007 0.048-0.022 0.107-0.044v-0c0.41-0.15 1.91-0.6 3.767-0.579 2.777 0.030 5.071 1.1 6.634 3.097 0.739 0.945 0.741 3.121 0.005 5.972-0.75 2.906-2.163 6.029-3.874 8.569-0.076 0.114-0.203 0.176-0.331 0.176zM25.378 21.808c-0.634 0-1.203-0.090-1.544-0.294-0.35-0.21-0.417-0.495-0.425-0.646-0.096-1.677 0.83-1.97 1.302-2.103-0.066-0.099-0.159-0.216-0.256-0.337-0.275-0.344-0.652-0.815-0.943-1.52-0.046-0.11-0.188-0.366-0.353-0.662-0.895-1.604-2.756-4.943-1.561-6.653 0.553-0.791 1.656-1.103 3.28-0.929-0.478-1.455-2.753-6.008-8.151-6.097-1.623-0.027-2.955 0.472-3.956 1.482-2.24 2.262-2.159 6.356-2.158 6.396 0 0.003 0 0.007 0 0.011 0 0.22-0.179 0.399-0.399 0.399-0.217 0-0.393-0.173-0.399-0.388v-0.001c-0.005-0.182-0.088-4.477 2.389-6.979 1.159-1.171 2.685-1.749 4.535-1.718 3.454 0.057 5.677 1.813 6.933 3.275 1.37 1.594 2.041 3.353 2.096 3.94 0.041 0.437-0.272 0.524-0.335 0.537l-0.144 0.003c-1.594-0.255-2.616-0.078-3.039 0.526-0.91 1.3 0.852 4.458 1.604 5.807 0.192 0.344 0.331 0.593 0.394 0.746 0.247 0.599 0.569 1.002 0.828 1.325 0.228 0.285 0.425 0.531 0.495 0.821 0.033 0.058 0.497 0.745 3.255 0.176 0.691-0.142 1.106-0.021 1.232 0.363 0.249 0.754-1.149 1.633-1.924 1.992-0.694 0.323-1.801 0.526-2.759 0.526zM24.203 20.802c0.087 0.088 0.525 0.241 1.432 0.201 0.806-0.035 1.656-0.21 2.166-0.447 0.652-0.303 1.088-0.642 1.313-0.873l-0.125 0.023c-1.763 0.364-3.011 0.316-3.707-0.144-0.051-0.034-0.095-0.067-0.137-0.102l0.002 0.002c-0.076 0.030-0.145 0.049-0.195 0.063-0.395 0.111-0.803 0.226-0.749 1.276zM12.813 23.031c-0.438 0-0.899-0.060-1.37-0.177-0.488-0.122-1.31-0.489-1.297-1.093 0.014-0.677 0.998-0.88 1.369-0.956 1.338-0.276 1.426-0.386 1.844-0.918 0.122-0.155 0.274-0.348 0.481-0.579 0.307-0.344 0.643-0.518 0.998-0.518 0.247 0 0.45 0.084 0.584 0.14 0.427 0.177 0.783 0.605 0.93 1.117 0.132 0.462 0.069 0.906-0.177 1.252-0.809 1.133-1.972 1.732-3.361 1.732zM11.008 21.796c0.12 0.093 0.361 0.217 0.63 0.284 0.408 0.102 0.803 0.154 1.176 0.154 1.136 0 2.049-0.471 2.712-1.398 0.138-0.194 0.097-0.439 0.060-0.569-0.078-0.271-0.27-0.517-0.468-0.599-0.107-0.044-0.197-0.078-0.279-0.078-0.044 0-0.178 0-0.403 0.252-0.144 0.161-0.29 0.337-0.431 0.517l-0.017 0.023c-0.521 0.662-0.76 0.886-2.31 1.205-0.378 0.078-0.572 0.157-0.668 0.209zM14.075 19.956c-0.199-0-0.363-0.146-0.393-0.336l-0-0.002c-0.009-0.056-0.016-0.125-0.020-0.195l-0-0.005c-1.016-0.019-1.996-0.455-2.74-1.232-0.941-0.982-1.369-2.342-1.175-3.732 0.211-1.509 0.132-2.841 0.090-3.557-0.012-0.199-0.020-0.343-0.020-0.442 0.001-0.126 0.003-0.461 1.122-1.028 0.398-0.202 1.196-0.554 2.068-0.644 1.444-0.149 2.396 0.494 2.681 1.812 0.769 3.557 0.061 5.13-0.456 6.279-0.096 0.214-0.187 0.416-0.26 0.612l-0.064 0.172c-0.273 0.733-0.509 1.366-0.437 1.838 0.003 0.018 0.005 0.039 0.005 0.061 0 0.199-0.146 0.364-0.336 0.394l-0.002 0-0.061 0.005zM10.616 10.565l0.015 0.285c0.044 0.744 0.126 2.127-0.096 3.715-0.16 1.146 0.19 2.265 0.961 3.069 0.609 0.636 1.411 0.986 2.235 0.986h0.017c0.092-0.389 0.245-0.799 0.411-1.241l0.064-0.172c0.082-0.221 0.178-0.435 0.28-0.662 0.498-1.106 1.117-2.483 0.404-5.783-0.141-0.654-0.484-1.032-1.047-1.157-1.157-0.255-2.881 0.615-3.244 0.959zM13.024 10.396c-0.020 0.141 0.258 0.518 0.621 0.568s0.672-0.244 0.692-0.385-0.258-0.296-0.621-0.347c-0.363-0.050-0.673 0.023-0.692 0.164zM13.728 11.102l-0.102-0.007c-0.225-0.031-0.453-0.173-0.608-0.38-0.055-0.072-0.144-0.213-0.126-0.338 0.025-0.184 0.25-0.294 0.6-0.294 0.078 0 0.16 0.006 0.242 0.017 0.191 0.027 0.369 0.082 0.501 0.155 0.227 0.127 0.244 0.269 0.234 0.342-0.028 0.203-0.351 0.505-0.74 0.505zM13.156 10.419c0.011 0.087 0.227 0.374 0.507 0.413l0.065 0.005c0.259 0 0.453-0.204 0.475-0.271-0.024-0.046-0.191-0.159-0.506-0.203-0.062-0.009-0.133-0.015-0.205-0.015h-0c-0.203 0-0.311 0.046-0.336 0.070zM24.057 10.108c0.020 0.141-0.258 0.518-0.621 0.568s-0.673-0.244-0.693-0.385c-0.019-0.141 0.259-0.297 0.622-0.347s0.672 0.023 0.692 0.164zM23.352 10.748c-0.349 0-0.65-0.271-0.675-0.448-0.029-0.211 0.32-0.372 0.678-0.422 0.079-0.011 0.157-0.017 0.233-0.017 0.309 0 0.515 0.091 0.535 0.237 0.013 0.095-0.059 0.241-0.185 0.373-0.083 0.087-0.256 0.237-0.493 0.27l-0.093 0.006zM23.588 9.995c-0.069 0-0.141 0.005-0.214 0.015-0.36 0.050-0.575 0.195-0.565 0.272 0.012 0.085 0.242 0.333 0.543 0.333l0.074-0.005c0.197-0.027 0.345-0.156 0.415-0.23 0.111-0.116 0.155-0.226 0.149-0.263-0.007-0.050-0.14-0.123-0.403-0.123zM24.579 18.206c-0 0-0 0-0 0-0.22 0-0.398-0.178-0.398-0.398 0-0.083 0.025-0.16 0.069-0.224l-0.001 0.001c0.849-1.269 0.694-2.563 0.544-3.814-0.064-0.533-0.13-1.084-0.113-1.613 0.017-0.544 0.087-0.993 0.154-1.428 0.079-0.514 0.154-1.001 0.123-1.578-0-0.006-0.001-0.014-0.001-0.021 0-0.22 0.179-0.399 0.399-0.399 0.213 0 0.387 0.166 0.398 0.376l0 0.001c0.035 0.659-0.049 1.21-0.131 1.742-0.063 0.411-0.129 0.835-0.145 1.332-0.015 0.469 0.044 0.966 0.108 1.492 0.16 1.331 0.341 2.838-0.673 4.353-0.073 0.107-0.194 0.177-0.332 0.177-0 0-0 0-0 0h0z"></path>
</symbol>
<symbol id="icon-Nestjs" viewBox="0 0 32 32">
<path fill="#df234f" style="fill: var(--color35, #df234f)" d="M18.85 0.075c-0.225 0-0.45 0.050-0.65 0.125 0.425 0.275 0.65 0.65 0.775 1.075 0 0.050 0.025 0.1 0.025 0.15s0.025 0.1 0.025 0.15c0.025 0.725-0.2 0.825-0.35 1.25-0.25 0.55-0.175 1.15 0.125 1.625 0.025 0.050 0.050 0.125 0.1 0.175-0.325-2.1 1.425-2.4 1.75-3.050 0.025-0.575-0.45-0.95-0.825-1.225-0.375-0.225-0.675-0.275-0.975-0.275zM21.475 0.525c-0.025 0.2 0 0.15-0.025 0.25 0 0.075 0 0.15-0.025 0.225s-0.025 0.125-0.050 0.2c-0.025 0.075-0.050 0.125-0.075 0.2-0.025 0.050-0.050 0.1-0.075 0.175-0.025 0.025-0.050 0.075-0.075 0.1s-0.025 0.050-0.050 0.075c-0.050 0.050-0.075 0.125-0.125 0.175l-0.15 0.15c-0.050 0.050-0.1 0.1-0.15 0.125-0.175 0.125-0.375 0.225-0.55 0.35-0.050 0.050-0.125 0.075-0.175 0.125s-0.1 0.075-0.15 0.125l-0.15 0.15c-0.050 0.050-0.1 0.1-0.125 0.175-0.050 0.050-0.075 0.125-0.125 0.175-0.025 0.075-0.050 0.125-0.1 0.2-0.025 0.075-0.050 0.125-0.075 0.2s-0.050 0.15-0.050 0.2c0 0.025 0 0.075-0.025 0.1 0 0.025 0 0.075-0.025 0.1v0.35c0 0.075 0 0.125 0.025 0.2 0 0.075 0.025 0.125 0.050 0.2s0.050 0.125 0.075 0.2c0.025 0.050 0.050 0.075 0.050 0.125l-1.9-0.725c-0.325-0.1-0.625-0.175-0.95-0.25-0.175-0.050-0.35-0.075-0.525-0.125-0.5-0.1-1-0.175-1.5-0.225h-0.050c-0.5-0.050-0.975-0.075-1.475-0.075-0.375 0-0.725 0.025-1.075 0.050-0.5 0.025-1 0.1-1.5 0.175l-0.375 0.075c-0.25 0.050-0.5 0.1-0.75 0.175-0.125 0.025-0.25 0.075-0.375 0.1-0.125 0.050-0.25 0.1-0.35 0.15s-0.175 0.075-0.275 0.125c-0.025 0-0.025 0-0.050 0.025-0.075 0.050-0.15 0.075-0.225 0.125-0.025 0-0.050 0.025-0.050 0.025-0.1 0.050-0.175 0.1-0.25 0.125-0.050 0.025-0.125 0.050-0.175 0.075-0.025 0.025-0.050 0.025-0.075 0.050-0.075 0.050-0.15 0.075-0.225 0.125s-0.15 0.075-0.2 0.125c-0.050 0.050-0.125 0.075-0.175 0.125 0 0-0.025 0-0.025 0.025-0.050 0.025-0.1 0.075-0.15 0.125l-0.025 0.025c-0.050 0.025-0.075 0.075-0.125 0.1-0.025 0-0.025 0.025-0.050 0.025-0.050 0.025-0.075 0.075-0.125 0.1 0 0.025-0.025 0.025-0.025 0.025l-0.325 0.325s0 0.025-0.025 0.025l-0.125 0.125c-0.025 0.025-0.050 0.025-0.050 0.050l-0.15 0.15c0 0.025-0.025 0.025-0.025 0.050l-0.225 0.225c-0.125 0.15-0.275 0.275-0.425 0.4s-0.3 0.25-0.475 0.375-0.325 0.225-0.5 0.325-0.35 0.175-0.525 0.25c-0.175 0.075-0.35 0.15-0.525 0.2-0.35 0.075-0.7 0.225-1 0.25 0-0.125-0.075-0.1-0.15-0.1-0.075 0.025-0.15 0.025-0.2 0.050-0.075 0.025-0.125 0.050-0.2 0.075s-0.125 0.050-0.2 0.1c-0.050 0.050-0.125 0.075-0.175 0.125s-0.125 0.1-0.175 0.15c-0.050 0.050-0.125 0.1-0.175 0.15s-0.1 0.1-0.15 0.175c-0.050 0.075-0.1 0.125-0.125 0.2-0.050 0.050-0.075 0.125-0.125 0.2-0.025 0.075-0.075 0.15-0.1 0.225l-0.075 0.225c-0.025 0.075-0.025 0.125-0.050 0.2v0.025c-0.025 0.075-0.025 0.175-0.025 0.225 0.025-0.025 0.025 0.025 0.025 0.075v0.1c0 0.050 0.025 0.1 0.025 0.15 0.025 0.050 0.025 0.1 0.050 0.15s0.050 0.1 0.1 0.15c0.025 0.050 0.075 0.1 0.1 0.15 0.050 0.050 0.1 0.1 0.15 0.125 0.050 0.050 0.1 0.1 0.15 0.125 0.2 0.175 0.25 0.225 0.5 0.375 0.050 0.025 0.075 0.050 0.125 0.075h0.025v0.050c0 0.075 0.025 0.125 0.050 0.2s0.050 0.15 0.075 0.2l0.075 0.15c0 0.025 0.025 0.025 0.025 0.050 0.025 0.075 0.075 0.125 0.1 0.175 0.050 0.050 0.075 0.125 0.125 0.175l0.3 0.3h0.025c0.050 0.050 0.1 0.075 0.15 0.125s0.125 0.075 0.175 0.1c0.050 0.025 0.125 0.075 0.2 0.1 0.050 0.025 0.1 0.050 0.175 0.050 0 0 0.025 0 0.025 0.025 0.025 0 0.075 0.025 0.1 0.025-0.025 0.45-0.025 0.875 0.025 1.025 0.075 0.175 0.45-0.35 0.8-0.925-0.050 0.575-0.075 1.25 0 1.45 0.1 0.2 0.575-0.45 1.025-1.15 5.85-1.35 11.2 2.7 11.775 8.425-0.1-0.9-1.2-1.4-1.725-1.275-0.25 0.6-0.675 1.4-1.35 1.875 0.050-0.55 0.025-1.1-0.075-1.65-0.175 0.75-0.525 1.475-1.025 2.075-0.775 0.050-1.575-0.325-1.975-0.9-0.025-0.025-0.050-0.075-0.075-0.1-0.025-0.050-0.050-0.125-0.075-0.175s-0.050-0.125-0.050-0.175v-0.3c0-0.050 0.025-0.125 0.050-0.175s0.025-0.125 0.050-0.175c0.025-0.050 0.050-0.125 0.1-0.175 0.15-0.4 0.15-0.725-0.125-0.9l-0.15-0.075c-0.025 0-0.075-0.025-0.1-0.025s-0.050-0.025-0.075-0.025-0.125-0.025-0.175-0.050c-0.050-0.025-0.125-0.025-0.175-0.025s-0.125-0.025-0.175-0.025h-0.125c-0.075 0-0.125 0-0.175 0.025-0.050 0-0.125 0.025-0.175 0.025-0.050 0.025-0.125 0.025-0.175 0.050s-0.1 0.050-0.175 0.075l-0.15 0.075c-1.925 1.25-0.775 4.2 0.525 5.050-0.5 0.1-1 0.2-1.15 0.3l-0.025 0.025c0.35 0.225 0.725 0.4 1.125 0.55 0.525 0.175 1.1 0.325 1.35 0.4 0.675 0.15 1.375 0.2 2.075 0.15 3.65-0.25 6.65-3.050 7.2-6.7 0.025 0.075 0.025 0.15 0.050 0.225 0.025 0.15 0.050 0.3 0.075 0.475 0.025 0.075 0.025 0.15 0.025 0.225v0.025c0 0.075 0.025 0.15 0.025 0.225 0 0.1 0.025 0.175 0.025 0.275v1.050c0 0.075-0.025 0.125-0.025 0.2v0.075c0 0.075-0.025 0.15-0.025 0.25-0.025 0.075-0.025 0.15-0.050 0.225v0.025c-0.025 0.075-0.025 0.15-0.050 0.225v0.025c-0.025 0.075-0.025 0.15-0.050 0.225v0.025l-0.075 0.225v0.025c-0.025 0.075-0.050 0.175-0.075 0.25s-0.050 0.15-0.1 0.25c-0.025 0.075-0.050 0.175-0.1 0.25-0.025 0.075-0.075 0.15-0.1 0.25-0.025 0.075-0.075 0.15-0.1 0.225 0 0.025-0.025 0.050-0.025 0.050s0 0.025-0.025 0.025c-0.525 1.075-1.325 2.025-2.325 2.775-0.075 0.050-0.125 0.1-0.2 0.15-0.025 0.025-0.050 0.025-0.050 0.050-0.050 0.050-0.125 0.075-0.175 0.125l0.025 0.050c0.125-0.025 0.225-0.025 0.35-0.050 0.225-0.025 0.425-0.075 0.65-0.125 0.050 0 0.125-0.025 0.175-0.050 0.050 0 0.075-0.025 0.125-0.025s0.125-0.025 0.175-0.025c0.050-0.025 0.1-0.025 0.15-0.050 0.825-0.2 1.625-0.475 2.4-0.8-1.325 1.8-3.075 3.25-5.125 4.2 0.95-0.075 1.9-0.225 2.825-0.5 3.325-0.975 6.125-3.225 7.8-6.25-0.35 1.9-1.1 3.725-2.225 5.325 0.8-0.525 1.525-1.15 2.2-1.825 1.85-1.925 3.075-4.4 3.475-7.025 0.275 1.3 0.375 2.65 0.25 3.975 5.975-8.325 0.5-16.95-1.8-19.225 0-0.025-0.025-0.025-0.025-0.050v0c0 0.1 0 0.2-0.025 0.3-0.025 0.2-0.050 0.375-0.075 0.55-0.050 0.175-0.1 0.375-0.15 0.55s-0.125 0.35-0.2 0.525c-0.075 0.175-0.15 0.35-0.25 0.5s-0.2 0.325-0.3 0.475c-0.1 0.15-0.225 0.3-0.35 0.45s-0.25 0.275-0.4 0.425c-0.075 0.075-0.15 0.15-0.25 0.2-0.075 0.050-0.125 0.1-0.2 0.175-0.15 0.125-0.3 0.225-0.475 0.325-0.15 0.1-0.325 0.2-0.5 0.275l-0.525 0.225c-0.175 0.075-0.35 0.125-0.525 0.175s-0.375 0.1-0.55 0.125c-0.2 0.025-0.375 0.050-0.55 0.075-0.125 0-0.275 0.025-0.4 0.025-0.2 0-0.375-0.025-0.55-0.025-0.2-0.025-0.375-0.050-0.55-0.075-0.2-0.025-0.375-0.075-0.55-0.15 0.175-0.025 0.375-0.025 0.55-0.075 0.2-0.025 0.375-0.075 0.55-0.125s0.375-0.1 0.525-0.175l0.525-0.225c0.175-0.075 0.325-0.175 0.5-0.275 0.15-0.1 0.325-0.225 0.475-0.325 0.15-0.125 0.3-0.25 0.425-0.375 0.15-0.125 0.275-0.275 0.4-0.4 0.125-0.15 0.25-0.3 0.35-0.45 0.025-0.025 0.025-0.050 0.050-0.075 0.075-0.125 0.175-0.275 0.25-0.4 0.1-0.175 0.175-0.325 0.25-0.5s0.15-0.35 0.2-0.525l0.15-0.525c0.025-0.2 0.075-0.375 0.075-0.55 0.025-0.2 0.025-0.375 0.025-0.55 0-0.125 0-0.275-0.025-0.4-0.025-0.2-0.050-0.375-0.075-0.55-0.025-0.2-0.075-0.375-0.125-0.55s-0.125-0.35-0.175-0.525c-0.075-0.175-0.15-0.35-0.225-0.5-0.1-0.175-0.175-0.325-0.275-0.5-0.1-0.15-0.225-0.3-0.325-0.45-0.125-0.15-0.25-0.275-0.375-0.425-0.075-0.075-0.15-0.15-0.225-0.2-0.375-0.3-0.75-0.55-1.15-0.8-0.050-0.025-0.1-0.050-0.175-0.075-0.325-0.275-0.575-0.35-0.825-0.45z"></path>
</symbol>
<symbol id="icon-Express" viewBox="0 0 32 32">
<path d="M31.668 24.61c-1.14 0.29-1.845 0.012-2.477-0.938-1.42-2.128-2.988-4.157-4.5-6.225-0.195-0.267-0.398-0.53-0.65-0.863-1.79 2.415-3.578 4.715-5.255 7.107-0.6 0.855-1.23 1.227-2.35 0.925l6.73-9.033-6.265-8.158c1.078-0.21 1.823-0.103 2.482 0.863 1.457 2.13 3.065 4.157 4.668 6.303 1.613-2.138 3.2-4.168 4.7-6.277 0.602-0.855 1.25-1.18 2.332-0.865-0.82 1.088-1.622 2.158-2.43 3.22-1.090 1.432-2.16 2.883-3.29 4.285-0.402 0.5-0.337 0.825 0.023 1.298 2.090 2.747 4.155 5.523 6.282 8.358zM0.333 15.435c0.18-0.902 0.3-1.822 0.55-2.707 1.5-5.357 7.65-7.585 11.875-4.265 2.475 1.947 3.090 4.692 2.967 7.787h-13.95c-0.21 5.553 3.787 8.905 8.883 7.195 1.787-0.6 2.84-2 3.367-3.75 0.268-0.878 0.71-1.015 1.535-0.765-0.422 2.19-1.38 4.020-3.38 5.165-3 1.715-7.282 1.16-9.535-1.223-1.33-1.4-1.895-3.143-2.145-5.025-0.037-0.3-0.115-0.595-0.175-0.892q0.008-0.76 0.008-1.52zM1.8 15.063h12.607c-0.082-4.015-2.582-6.867-6-6.893-3.75-0.030-6.445 2.755-6.607 6.893z"></path>
</symbol>
<symbol id="icon-GraphQL" viewBox="0 0 32 32">
<path fill="#e434aa" style="fill: var(--color36, #e434aa)" d="M4.598 24.213l-1.15-0.664 12.813-22.19 1.149 0.664z"></path>
<path fill="#e434aa" style="fill: var(--color36, #e434aa)" d="M3.183 21.776h25.624v1.328h-25.624z"></path>
<path fill="#e434aa" style="fill: var(--color36, #e434aa)" d="M16.508 29.922l-12.816-7.399 0.664-1.151 12.816 7.401zM27.642 10.636l-12.816-7.401 0.664-1.149 12.816 7.399z"></path>
<path fill="#e434aa" style="fill: var(--color36, #e434aa)" d="M4.359 10.631l-0.664-1.15 12.817-7.399 0.664 1.149z"></path>
<path fill="#e434aa" style="fill: var(--color36, #e434aa)" d="M27.405 24.213l-12.812-22.191 1.149-0.664 12.812 22.19zM4.2 8.6h1.328v14.801h-1.328z"></path>
<path fill="#e434aa" style="fill: var(--color36, #e434aa)" d="M26.472 8.6h1.328v14.801h-1.328z"></path>
<path fill="#e434aa" style="fill: var(--color36, #e434aa)" d="M16.282 29.36l-0.58-1.005 11.147-6.436 0.58 1.005z"></path>
<path fill="#e434aa" style="fill: var(--color36, #e434aa)" d="M29.559 23.832c-0.767 1.336-2.48 1.792-3.815 1.024s-1.792-2.48-1.024-3.817c0.768-1.336 2.48-1.792 3.817-1.024 1.344 0.776 1.8 2.48 1.023 3.816zM7.272 10.96c-0.769 1.336-2.481 1.792-3.817 1.024s-1.792-2.48-1.024-3.816c0.768-1.336 2.48-1.792 3.816-1.024 1.336 0.777 1.792 2.481 1.024 3.816zM2.441 23.832c-0.769-1.336-0.313-3.040 1.023-3.817 1.336-0.767 3.040-0.311 3.817 1.024 0.768 1.336 0.311 3.040-1.024 3.817-1.344 0.767-3.048 0.311-3.815-1.024zM24.727 10.96c-0.767-1.336-0.311-3.040 1.024-3.816 1.336-0.768 3.040-0.311 3.816 1.024 0.767 1.336 0.312 3.040-1.024 3.816-1.336 0.768-3.048 0.312-3.817-1.024zM16 31.664c-0.001 0-0.002 0-0.002 0-1.541 0-2.79-1.249-2.79-2.79 0-0.001 0-0.002 0-0.003v0c0-0.001 0-0.002 0-0.003 0-1.541 1.249-2.79 2.79-2.79 0.001 0 0.002 0 0.003 0h-0c0.001 0 0.002 0 0.003 0 1.541 0 2.79 1.249 2.79 2.79 0 0.001 0 0.002 0 0.003v-0c0 1.536-1.248 2.792-2.792 2.792zM16 5.92c-0.001 0-0.002 0-0.002 0-1.541 0-2.79-1.249-2.79-2.789 0-0.001 0-0.002 0-0.003v0c0-0.001 0-0.002 0-0.002 0-1.541 1.249-2.789 2.79-2.789 0.001 0 0.002 0 0.003 0h-0c0.001 0 0.002 0 0.003 0 1.541 0 2.79 1.249 2.79 2.789 0 0.001 0 0.002 0 0.003v-0c0 0.001 0 0.002 0 0.002 0 1.541-1.249 2.789-2.79 2.789-0.001 0-0.002 0-0.003 0h0z"></path>
</symbol>
<symbol id="icon-react" viewBox="0 0 32 32">
<path fill="#61dafb" style="fill: var(--color37, #61dafb)" d="M16 13.148c-1.575 0-2.852 1.277-2.852 2.852s1.277 2.852 2.852 2.852v0c1.575 0 2.852-1.277 2.852-2.852s-1.277-2.852-2.852-2.852v0zM8.011 21.673l-0.629-0.16c-4.691-1.185-7.381-3.197-7.381-5.519s2.691-4.333 7.381-5.519l0.629-0.159 0.177 0.624c0.545 1.86 1.163 3.443 1.899 4.957l-0.082-0.186 0.135 0.284-0.135 0.284c-0.656 1.329-1.275 2.912-1.761 4.551l-0.056 0.22zM7.089 11.933c-3.565 1.001-5.753 2.533-5.753 4.061 0 1.527 2.188 3.059 5.753 4.061 0.512-1.62 1.046-2.965 1.662-4.263l-0.086 0.202c-0.531-1.098-1.066-2.443-1.511-3.828l-0.065-0.234zM23.989 21.673l-0.177-0.625c-0.544-1.859-1.162-3.441-1.9-4.954l0.081 0.184-0.135-0.284 0.135-0.284c0.656-1.329 1.275-2.911 1.762-4.55l0.056-0.221 0.177-0.624 0.631 0.159c4.689 1.185 7.38 3.197 7.38 5.52s-2.691 4.333-7.38 5.519zM23.335 15.995c0.64 1.385 1.169 2.747 1.576 4.061 3.567-1.003 5.753-2.535 5.753-4.061 0-1.528-2.188-3.059-5.753-4.061-0.511 1.619-1.045 2.963-1.662 4.262l0.086-0.2zM7.080 11.927l-0.177-0.623c-1.319-4.648-0.919-7.979 1.097-9.141 1.977-1.141 5.152 0.207 8.479 3.621l0.453 0.465-0.453 0.465c-1.146 1.19-2.207 2.482-3.162 3.853l-0.068 0.103-0.18 0.257-0.313 0.027c-1.875 0.151-3.596 0.439-5.264 0.86l0.218-0.047zM9.608 3.087c-0.357 0-0.673 0.077-0.94 0.231-1.325 0.764-1.56 3.42-0.647 7.004 1.21-0.285 2.681-0.521 4.18-0.658l0.131-0.010c0.894-1.264 1.792-2.37 2.756-3.414l-0.020 0.022c-2.080-2.025-4.049-3.175-5.46-3.175zM22.393 30.236c-0.001 0-0.001 0 0 0-1.9 0-4.34-1.431-6.872-4.031l-0.453-0.465 0.453-0.465c1.146-1.19 2.206-2.482 3.16-3.854l0.068-0.103 0.18-0.257 0.312-0.027c1.875-0.15 3.597-0.438 5.267-0.858l-0.218 0.046 0.629-0.159 0.179 0.624c1.316 4.645 0.917 7.977-1.099 9.139-0.449 0.259-0.988 0.411-1.562 0.411-0.016 0-0.031-0-0.047-0l0.002 0zM16.932 25.728c2.080 2.025 4.049 3.175 5.46 3.175h0.001c0.356 0 0.673-0.077 0.939-0.231 1.325-0.764 1.561-3.421 0.647-7.005-1.212 0.286-2.682 0.522-4.182 0.658l-0.13 0.010c-0.893 1.265-1.791 2.371-2.755 3.416l0.020-0.022zM24.92 11.927l-0.629-0.159c-1.453-0.376-3.175-0.664-4.939-0.806l-0.111-0.007-0.312-0.027-0.18-0.257c-1.021-1.474-2.082-2.766-3.237-3.966l0.009 0.010-0.453-0.465 0.453-0.465c3.325-3.413 6.499-4.761 8.479-3.621 2.016 1.163 2.416 4.493 1.099 9.14zM19.667 9.653c1.523 0.139 2.969 0.364 4.312 0.668 0.915-3.584 0.679-6.24-0.647-7.004-1.317-0.761-3.793 0.405-6.4 2.944 0.943 1.022 1.841 2.128 2.666 3.289l0.069 0.103zM9.608 30.236c-0.014 0-0.030 0-0.046 0-0.574 0-1.113-0.152-1.577-0.419l0.015 0.008c-2.016-1.161-2.416-4.492-1.097-9.139l0.176-0.624 0.629 0.159c1.54 0.388 3.239 0.661 5.047 0.812l0.313 0.027 0.179 0.257c1.022 1.475 2.083 2.767 3.239 3.967l-0.010-0.010 0.453 0.465-0.453 0.465c-2.531 2.6-4.971 4.031-6.868 4.031zM8.021 21.667c-0.915 3.584-0.679 6.241 0.647 7.005 1.316 0.751 3.791-0.407 6.4-2.944-0.943-1.022-1.841-2.129-2.667-3.29l-0.069-0.103c-1.629-0.146-3.099-0.382-4.534-0.711l0.224 0.043zM16 22.504c-1.097 0-2.225-0.048-3.355-0.141l-0.313-0.027-0.18-0.257c-0.544-0.768-1.139-1.691-1.697-2.639l-0.103-0.19c-0.452-0.758-0.971-1.732-1.45-2.728l-0.105-0.243-0.133-0.284 0.133-0.284c0.584-1.239 1.102-2.212 1.658-3.161l-0.103 0.191c0.552-0.955 1.159-1.907 1.8-2.829l0.18-0.257 0.313-0.027c1.005-0.090 2.174-0.142 3.355-0.142s2.35 0.052 3.505 0.153l-0.15-0.011 0.312 0.027 0.179 0.257c1.177 1.666 2.294 3.567 3.252 5.56l0.104 0.24 0.135 0.284-0.135 0.284c-1.058 2.232-2.176 4.133-3.439 5.925l0.083-0.125-0.179 0.257-0.312 0.027c-1.129 0.093-2.259 0.141-3.356 0.141zM13.071 21.059c1.973 0.148 3.885 0.148 5.86 0 1.004-1.445 1.978-3.104 2.827-4.836l0.101-0.228c-0.947-1.958-1.922-3.617-3.012-5.19l0.083 0.126c-0.877-0.071-1.898-0.111-2.929-0.111s-2.052 0.040-3.063 0.119l0.134-0.008c-1.008 1.447-1.983 3.106-2.83 4.84l-0.099 0.224c0.951 1.96 1.926 3.619 3.014 5.193l-0.085-0.13z"></path>
</symbol>
<symbol id="icon-html5" viewBox="0 0 32 32">
<path fill="#e34f26" style="fill: var(--color38, #e34f26)" d="M2 0h28l-2.547 28.751-11.484 3.249-11.419-3.251zM11.375 13l-0.309-3.624 13.412 0.004 0.307-3.496-17.568-0.004 0.931 10.68h12.168l-0.435 4.568-3.88 1.072-3.94-1.080-0.251-2.813h-3.479l0.44 5.561 7.229 1.933 7.172-1.924 0.992-10.876z"></path>
</symbol>
<symbol id="icon-css3" viewBox="0 0 32 32">
<path fill="#1572b6" style="fill: var(--color39, #1572b6)" d="M2 0h28l-2.547 28.751-11.484 3.249-11.42-3.251zM24.787 5.884l-17.573-0.004 0.284 3.496 13.5 0.003-0.34 3.621h-8.853l0.32 3.431h8.243l-0.488 4.697-3.88 1.072-3.941-1.080-0.251-2.813h-3.48l0.387 5.14 7.287 2.271 7.164-2.040z"></path>
</symbol>
<symbol id="icon-sass" viewBox="0 0 32 32">
<path fill="#c69" style="fill: var(--color40, #c69)" d="M16 0c8.836 0 16 7.164 16 16s-7.164 16-16 16-16-7.164-16-16 7.164-16 16-16zM12.82 21.331c0.233 0.86 0.208 1.664-0.032 2.389l-0.087 0.24c-0.032 0.081-0.069 0.16-0.104 0.235-0.187 0.387-0.435 0.747-0.74 1.080-0.931 1.012-2.229 1.396-2.787 1.073-0.6-0.349-0.301-1.78 0.779-2.92 1.161-1.224 2.827-2.012 2.827-2.012v-0.004zM26.035 6.849c-0.723-2.844-5.436-3.779-9.896-2.193-2.652 0.943-5.525 2.424-7.591 4.356-2.457 2.295-2.848 4.295-2.687 5.131 0.569 2.948 4.609 4.876 6.271 6.307v0.008c-0.489 0.24-4.075 2.039-4.915 3.9-0.9 1.96 0.14 3.361 0.82 3.54 2.1 0.581 4.26-0.48 5.42-2.199 1.12-1.681 1.021-3.841 0.539-4.901 0.661-0.18 1.44-0.26 2.44-0.139 2.801 0.32 3.361 2.080 3.24 2.8-0.12 0.719-0.697 1.139-0.899 1.259-0.2 0.121-0.26 0.16-0.241 0.241 0.020 0.12 0.121 0.12 0.28 0.1 0.22-0.040 1.461-0.6 1.521-1.961 0.060-1.72-1.581-3.639-4.5-3.6-1.2 0.021-1.961 0.121-2.5 0.341-0.040-0.060-0.081-0.1-0.14-0.14-1.8-1.94-5.14-3.3-5-5.88 0.040-0.94 0.38-3.419 6.4-6.419 4.94-2.461 8.881-1.78 9.561-0.28 0.977 2.139-2.101 6.12-7.241 6.699-1.96 0.22-2.98-0.539-3.241-0.82-0.279-0.3-0.319-0.32-0.419-0.259-0.16 0.080-0.060 0.34 0 0.5 0.16 0.4 0.78 1.1 1.861 1.46 0.939 0.3 3.24 0.479 6-0.6 3.099-1.199 5.519-4.54 4.819-7.34z"></path>
</symbol>
<symbol id="icon-tailwindcss" viewBox="0 0 32 32">
<path fill="#38b2ac" style="fill: var(--color41, #38b2ac)" d="M16.001 6.4c-4.267 0-6.933 2.133-8 6.4 1.6-2.133 3.467-2.933 5.6-2.4 1.217 0.304 2.087 1.187 3.051 2.165 1.569 1.592 3.384 3.435 7.349 3.435 4.267 0 6.933-2.133 8-6.4-1.6 2.133-3.467 2.933-5.6 2.4-1.217-0.304-2.087-1.187-3.051-2.165-1.568-1.592-3.383-3.435-7.349-3.435zM8.001 16c-4.267 0-6.933 2.133-8 6.4 1.6-2.133 3.467-2.933 5.6-2.4 1.217 0.304 2.087 1.187 3.051 2.165 1.569 1.592 3.384 3.435 7.349 3.435 4.267 0 6.933-2.133 8-6.4-1.6 2.133-3.467 2.933-5.6 2.4-1.217-0.304-2.087-1.187-3.051-2.165-1.568-1.592-3.383-3.435-7.349-3.435z"></path>
</symbol>
<symbol id="icon-node-dot-js" viewBox="0 0 32 32">
<path fill="#393" style="fill: var(--color42, #393)" d="M15.997 32c-0.428 0-0.855-0.112-1.229-0.329l-3.915-2.316c-0.584-0.327-0.299-0.443-0.107-0.511 0.78-0.271 0.937-0.333 1.771-0.805 0.087-0.049 0.201-0.031 0.291 0.023l3.008 1.785c0.109 0.060 0.263 0.060 0.363 0l11.727-6.768c0.109-0.063 0.179-0.188 0.179-0.317v-13.533c0-0.132-0.071-0.256-0.183-0.323l-11.721-6.763c-0.108-0.063-0.252-0.063-0.361 0l-11.719 6.764c-0.113 0.065-0.185 0.193-0.185 0.321v13.533c0 0.129 0.072 0.252 0.185 0.313l3.212 1.856c1.743 0.872 2.811-0.155 2.811-1.187v-13.361c0-0.189 0.152-0.337 0.341-0.337h1.487c0.185 0 0.34 0.149 0.34 0.337v13.361c0 2.327-1.267 3.66-3.472 3.66-0.677 0-1.212 0-2.701-0.735l-3.077-1.769c-0.76-0.439-1.229-1.26-1.229-2.139v-13.533c0-0.879 0.471-1.7 1.229-2.137l11.727-6.776c0.743-0.42 1.728-0.42 2.464 0l11.725 6.776c0.76 0.439 1.232 1.259 1.232 2.137v13.533c0 0.879-0.472 1.697-1.232 2.139l-11.725 6.771c-0.373 0.217-0.799 0.329-1.233 0.329zM25.465 18.657c0-2.533-1.712-3.208-5.316-3.684-3.641-0.481-4.012-0.731-4.012-1.583 0-0.704 0.313-1.644 3.011-1.644 2.409 0 3.297 0.519 3.663 2.143 0.032 0.153 0.172 0.265 0.329 0.265h1.521c0.095 0 0.184-0.041 0.248-0.108 0.064-0.072 0.099-0.164 0.089-0.261-0.236-2.797-2.095-4.101-5.851-4.101-3.344 0-5.339 1.411-5.339 3.777 0 2.567 1.984 3.276 5.193 3.593 3.84 0.376 4.137 0.937 4.137 1.692 0 1.311-1.052 1.869-3.523 1.869-3.103 0-3.785-0.779-4.015-2.323-0.027-0.165-0.168-0.287-0.337-0.287h-1.516c-0.188 0-0.339 0.149-0.339 0.337 0 1.976 1.075 4.331 6.207 4.331 3.717 0.001 5.848-1.461 5.848-4.017z"></path>
</symbol>
<symbol id="icon-next-dot-js" viewBox="0 0 32 32">
<path d="M23.751 30.003c-0.119 0.063-0.112 0.088 0.007 0.028 0.036-0.016 0.067-0.037 0.093-0.063l-0 0c0-0.021-0.003-0.019-0.1 0.035zM23.988 29.877c-0.056 0.044-0.056 0.047 0.012 0.012 0.037-0.019 0.069-0.040 0.069-0.047 0-0.025-0.016-0.019-0.081 0.035zM24.144 29.783c-0.056 0.044-0.056 0.047 0.012 0.012 0.037-0.019 0.069-0.040 0.069-0.047 0-0.025-0.016-0.019-0.081 0.035zM24.3 29.689c-0.056 0.044-0.056 0.047 0.012 0.012 0.037-0.019 0.069-0.040 0.069-0.047 0-0.025-0.016-0.019-0.081 0.035zM24.516 29.549c-0.109 0.069-0.144 0.116-0.047 0.063 0.069-0.040 0.181-0.125 0.163-0.128-0.044 0.019-0.082 0.041-0.118 0.067l0.002-0.001zM14.952 0.008c-0.069 0.007-0.288 0.028-0.485 0.044-4.544 0.409-8.801 2.861-11.497 6.631-1.43 1.965-2.431 4.334-2.813 6.904l-0.011 0.087c-0.128 0.879-0.144 1.139-0.144 2.331s0.016 1.451 0.144 2.331c0.869 6.008 5.145 11.056 10.944 12.927 1.039 0.335 2.133 0.563 3.377 0.7 0.485 0.053 2.58 0.053 3.065 0 2.148-0.237 3.969-0.769 5.764-1.685 0.275-0.141 0.328-0.179 0.291-0.209-0.312-0.379-1.167-1.516-2.015-2.659l-0.591-0.834-2.559-3.456-3.205-4.744c-2.045-3.101-3.108-4.645-4.18-6.183l0.952 1.441c-0.012-0.003-0.025 2.105-0.031 4.679-0.009 4.507-0.012 4.688-0.069 4.795-0.056 0.125-0.152 0.224-0.271 0.283l-0.003 0.001c-0.1 0.051-0.188 0.060-0.66 0.060h-0.541l-0.144-0.091c-0.089-0.057-0.16-0.134-0.208-0.225l-0.002-0.003-0.065-0.141 0.007-6.271 0.009-6.273 0.097-0.121c0.065-0.076 0.142-0.14 0.228-0.188l0.004-0.002c0.128-0.063 0.179-0.069 0.72-0.069 0.639 0 0.744 0.025 0.911 0.207-0.11-0.286 1.162 1.609 2.423 3.511l1.437 2.303c2.077 3.149 4.916 7.449 6.312 9.561l2.533 3.837 0.128-0.084c1.249-0.838 2.329-1.789 3.27-2.865l0.016-0.019c1.947-2.219 3.292-5.011 3.755-8.091l0.011-0.088c0.128-0.879 0.144-1.139 0.144-2.331s-0.016-1.451-0.144-2.331c-0.869-6.008-5.145-11.056-10.944-12.927-0.962-0.319-2.092-0.565-3.257-0.691l-0.074-0.006c-0.3-0.031-2.368-0.065-2.629-0.044zM21.501 9.685c0.15 0.076 0.263 0.207 0.315 0.365l0.001 0.004c0.025 0.081 0.031 1.82 0.025 5.739l-0.009 5.624-0.992-1.52-0.995-1.52v-4.088c0-2.643 0.012-4.128 0.031-4.2 0.048-0.171 0.159-0.31 0.306-0.393l0.003-0.002c0.128-0.065 0.175-0.072 0.667-0.072 0.463 0 0.544 0.007 0.648 0.063z"></path>
</symbol>
<symbol id="icon-mail" viewBox="0 0 32 32">
<path d="M26.666 0h-21.332c-2.934 0-5.334 2.4-5.334 5.333v21.333c0 2.934 2.4 5.334 5.334 5.334h21.332c2.936 0 5.334-2.4 5.334-5.334v-21.333c0-2.934-2.398-5.333-5.334-5.333zM8 8h16c0.286 0 0.563 0.061 0.817 0.177l-8.817 10.286-8.817-10.287c0.254-0.116 0.531-0.177 0.817-0.177zM6 22v-12c0-0.042 0.002-0.084 0.004-0.125l5.864 6.842-5.8 5.8c-0.045-0.167-0.069-0.34-0.069-0.517zM24 24h-16c-0.177 0-0.35-0.024-0.517-0.069l5.691-5.691 2.826 3.297 2.826-3.297 5.691 5.691c-0.167 0.045-0.34 0.069-0.517 0.069zM26 22c0 0.177-0.024 0.35-0.069 0.517l-5.8-5.8 5.864-6.842c0.003 0.041 0.004 0.083 0.004 0.125v12z"></path>
</symbol>
<symbol id="icon-instagram" viewBox="0 0 32 32">
<path d="M16 2.881c4.275 0 4.781 0.019 6.462 0.094 1.563 0.069 2.406 0.331 2.969 0.55 0.744 0.288 1.281 0.638 1.837 1.194 0.563 0.563 0.906 1.094 1.2 1.838 0.219 0.563 0.481 1.412 0.55 2.969 0.075 1.688 0.094 2.194 0.094 6.463s-0.019 4.781-0.094 6.463c-0.069 1.563-0.331 2.406-0.55 2.969-0.288 0.744-0.637 1.281-1.194 1.837-0.563 0.563-1.094 0.906-1.837 1.2-0.563 0.219-1.413 0.481-2.969 0.55-1.688 0.075-2.194 0.094-6.463 0.094s-4.781-0.019-6.463-0.094c-1.563-0.069-2.406-0.331-2.969-0.55-0.744-0.288-1.281-0.637-1.838-1.194-0.563-0.563-0.906-1.094-1.2-1.837-0.219-0.563-0.481-1.413-0.55-2.969-0.075-1.688-0.094-2.194-0.094-6.463s0.019-4.781 0.094-6.463c0.069-1.563 0.331-2.406 0.55-2.969 0.288-0.744 0.638-1.281 1.194-1.838 0.563-0.563 1.094-0.906 1.838-1.2 0.563-0.219 1.412-0.481 2.969-0.55 1.681-0.075 2.188-0.094 6.463-0.094zM16 0c-4.344 0-4.887 0.019-6.594 0.094-1.7 0.075-2.869 0.35-3.881 0.744-1.056 0.412-1.95 0.956-2.837 1.85-0.894 0.888-1.438 1.781-1.85 2.831-0.394 1.019-0.669 2.181-0.744 3.881-0.075 1.713-0.094 2.256-0.094 6.6s0.019 4.887 0.094 6.594c0.075 1.7 0.35 2.869 0.744 3.881 0.413 1.056 0.956 1.95 1.85 2.837 0.887 0.887 1.781 1.438 2.831 1.844 1.019 0.394 2.181 0.669 3.881 0.744 1.706 0.075 2.25 0.094 6.594 0.094s4.888-0.019 6.594-0.094c1.7-0.075 2.869-0.35 3.881-0.744 1.050-0.406 1.944-0.956 2.831-1.844s1.438-1.781 1.844-2.831c0.394-1.019 0.669-2.181 0.744-3.881 0.075-1.706 0.094-2.25 0.094-6.594s-0.019-4.887-0.094-6.594c-0.075-1.7-0.35-2.869-0.744-3.881-0.394-1.063-0.938-1.956-1.831-2.844-0.887-0.887-1.781-1.438-2.831-1.844-1.019-0.394-2.181-0.669-3.881-0.744-1.712-0.081-2.256-0.1-6.6-0.1v0z"></path>
<path d="M16 7.781c-4.537 0-8.219 3.681-8.219 8.219s3.681 8.219 8.219 8.219 8.219-3.681 8.219-8.219c0-4.537-3.681-8.219-8.219-8.219zM16 21.331c-2.944 0-5.331-2.387-5.331-5.331s2.387-5.331 5.331-5.331c2.944 0 5.331 2.387 5.331 5.331s-2.387 5.331-5.331 5.331z"></path>
<path d="M26.462 7.456c0 1.060-0.859 1.919-1.919 1.919s-1.919-0.859-1.919-1.919c0-1.060 0.859-1.919 1.919-1.919s1.919 0.859 1.919 1.919z"></path>
</symbol>
<symbol id="icon-github" viewBox="0 0 32 32">
<path d="M16 0.395c-8.836 0-16 7.163-16 16 0 7.069 4.585 13.067 10.942 15.182 0.8 0.148 1.094-0.347 1.094-0.77 0-0.381-0.015-1.642-0.022-2.979-4.452 0.968-5.391-1.888-5.391-1.888-0.728-1.849-1.776-2.341-1.776-2.341-1.452-0.993 0.11-0.973 0.11-0.973 1.606 0.113 2.452 1.649 2.452 1.649 1.427 2.446 3.743 1.739 4.656 1.33 0.143-1.034 0.558-1.74 1.016-2.14-3.554-0.404-7.29-1.777-7.29-7.907 0-1.747 0.625-3.174 1.649-4.295-0.166-0.403-0.714-2.030 0.155-4.234 0 0 1.344-0.43 4.401 1.64 1.276-0.355 2.645-0.532 4.005-0.539 1.359 0.006 2.729 0.184 4.008 0.539 3.054-2.070 4.395-1.64 4.395-1.64 0.871 2.204 0.323 3.831 0.157 4.234 1.026 1.12 1.647 2.548 1.647 4.295 0 6.145-3.743 7.498-7.306 7.895 0.574 0.497 1.085 1.47 1.085 2.963 0 2.141-0.019 3.864-0.019 4.391 0 0.426 0.288 0.925 1.099 0.768 6.354-2.118 10.933-8.113 10.933-15.18 0-8.837-7.164-16-16-16z"></path>
</symbol>
<symbol id="icon-linkedin" viewBox="0 0 32 32">
<path d="M29 0h-26c-1.65 0-3 1.35-3 3v26c0 1.65 1.35 3 3 3h26c1.65 0 3-1.35 3-3v-26c0-1.65-1.35-3-3-3zM12 26h-4v-14h4v14zM10 10c-1.106 0-2-0.894-2-2s0.894-2 2-2c1.106 0 2 0.894 2 2s-0.894 2-2 2zM26 26h-4v-8c0-1.106-0.894-2-2-2s-2 0.894-2 2v8h-4v-14h4v2.481c0.825-1.131 2.087-2.481 3.5-2.481 2.488 0 4.5 2.238 4.5 5v9z"></path>
</symbol>
<symbol id="icon-menu" viewBox="0 0 20 20">
<path d="M16.4 9h-12.8c-0.552 0-0.6 0.447-0.6 1s0.048 1 0.6 1h12.8c0.552 0 0.6-0.447 0.6-1s-0.048-1-0.6-1zM16.4 13h-12.8c-0.552 0-0.6 0.447-0.6 1s0.048 1 0.6 1h12.8c0.552 0 0.6-0.447 0.6-1s-0.048-1-0.6-1zM3.6 7h12.8c0.552 0 0.6-0.447 0.6-1s-0.048-1-0.6-1h-12.8c-0.552 0-0.6 0.447-0.6 1s0.048 1 0.6 1z"></path>
</symbol>
</defs>
</svg>
