<!-- Generated by IcoMoon.io -->
<svg version="1.1" xmlns="http://www.w3.org/2000/svg" width="32" height="32" viewBox="0 0 32 32">
<path fill="#9b4f96" d="M28.85 7.675l-12.075-6.95c-0.2-0.125-0.475-0.175-0.775-0.175s-0.575 0.075-0.775 0.175l-12 6.975c-0.425 0.25-0.725 0.875-0.725 1.35v13.925c0 0.275 0.050 0.6 0.25 0.875l26.7-15.5c-0.15-0.3-0.375-0.525-0.6-0.675z"></path>
<path fill="#68217a" d="M2.675 23.825c0.125 0.2 0.3 0.375 0.475 0.475l12.050 6.975c0.2 0.125 0.475 0.175 0.775 0.175s0.575-0.075 0.775-0.175l12-6.975c0.425-0.25 0.725-0.875 0.725-1.35v-13.925c0-0.225-0.025-0.475-0.15-0.7l-26.65 15.5z"></path>
<path fill="#fff" d="M21.325 19.025c-1.050 1.85-3.050 3.1-5.325 3.1-3.375 0-6.125-2.75-6.125-6.125s2.75-6.125 6.125-6.125c2.275 0 4.275 1.25 5.325 3.125l3.25-1.875c-1.7-2.975-4.9-5-8.575-5-5.45 0-9.875 4.425-9.875 9.875s4.425 9.875 9.875 9.875c3.65 0 6.85-2 8.55-4.95l-3.225-1.9zM24.25 16.55l0.225-1.075h-1.050v-1.175h1.275l0.3-1.55h1.225l-0.3 1.525h0.95l0.3-1.525h1.2l-0.3 1.525h0.6v1.175h-0.825l-0.225 1.075h1.050v1.175h-1.275l-0.3 1.5h-1.225l0.3-1.5h-0.95l-0.3 1.5h-1.2l0.3-1.5h-0.6v-1.175h0.825zM25.45 16.55h0.95l0.225-1.075h-0.95l-0.225 1.075z"></path>
</svg>
