<!-- Generated by IcoMoon.io -->
<svg version="1.1" xmlns="http://www.w3.org/2000/svg" width="32" height="32" viewBox="0 0 32 32">
<path fill="#632ca6" d="M26.094 22.721l-2.662-1.756-2.221 3.71-2.583-0.756-2.274 3.471 0.117 1.093 12.366-2.279-0.718-7.726zM14.562 19.39l1.984-0.273c0.321 0.144 0.544 0.199 0.93 0.297 0.599 0.156 1.293 0.306 2.321-0.212 0.239-0.119 0.738-0.574 0.939-0.834l8.129-1.474 0.829 10.036-13.926 2.51zM29.662 15.774l-0.802 0.153-1.541-15.927-26.266 3.046 3.236 26.259 3.074-0.446c-0.245-0.351-0.628-0.775-1.28-1.317-0.905-0.753-0.585-2.030-0.051-2.837 0.707-1.363 4.347-3.096 4.141-5.275-0.074-0.792-0.2-1.824-0.935-2.53-0.005 0.058-0.008 0.126-0.008 0.195 0 0.134 0.011 0.266 0.032 0.395l-0.002-0.014s-0.302-0.385-0.453-0.911c-0.149-0.201-0.267-0.266-0.426-0.535-0.113 0.311-0.098 0.672-0.098 0.672s-0.247-0.584-0.287-1.076c-0.146 0.22-0.183 0.639-0.183 0.639s-0.321-0.92-0.248-1.415c-0.146-0.431-0.581-1.287-0.458-3.232 0.801 0.562 2.566 0.428 3.254-0.585 0.228-0.336 0.384-1.252-0.114-3.058-0.32-1.157-1.113-2.881-1.422-3.535l-0.037 0.027c0.163 0.527 0.499 1.631 0.628 2.167 0.39 1.624 0.495 2.19 0.312 2.939-0.156 0.651-0.53 1.077-1.477 1.553-0.947 0.477-2.204-0.685-2.284-0.749-0.92-0.733-1.633-1.929-1.712-2.511-0.082-0.636 0.367-1.018 0.593-1.538-0.324 0.093-0.686 0.257-0.686 0.257s0.431-0.446 0.963-0.832c0.22-0.146 0.349-0.239 0.582-0.431-0.336-0.005-0.609 0.004-0.609 0.004s0.56-0.303 1.141-0.523c-0.425-0.019-0.832-0.003-0.832-0.003s1.25-0.559 2.237-0.97c0.679-0.278 1.342-0.196 1.715 0.343 0.489 0.706 1.003 1.089 2.092 1.327 0.668-0.296 0.872-0.449 1.712-0.678 0.739-0.813 1.32-0.918 1.32-0.918s-0.288 0.264-0.365 0.679c0.253-0.198 0.54-0.398 0.837-0.582l0.042-0.024s-0.178 0.22-0.344 0.569l0.039 0.057c0.489-0.293 1.064-0.525 1.064-0.525s-0.165 0.208-0.357 0.477c0.369-0.003 1.117 0.016 1.407 0.049 1.714 0.037 2.070-1.831 2.727-2.065 0.824-0.294 1.192-0.472 2.596 0.906 1.204 1.184 2.145 3.302 1.678 3.777-0.392 0.394-1.165-0.154-2.021-1.221-0.453-0.566-0.795-1.234-0.955-2.083-0.136-0.717-0.662-1.133-0.662-1.133s0.306 0.679 0.306 1.28c0 0.327 0.041 1.553 0.567 2.24-0.052 0.101-0.076 0.497-0.134 0.573-0.611-0.739-1.924-1.268-2.139-1.423 0.725 0.594 2.39 1.958 3.030 3.265 0.605 1.236 0.248 2.369 0.555 2.662 0.087 0.084 1.301 1.597 1.535 2.357 0.407 1.325 0.024 2.717-0.509 3.581l-1.489 0.232c-0.218-0.061-0.365-0.091-0.56-0.204 0.108-0.191 0.322-0.666 0.324-0.764l-0.084-0.148c-0.463 0.656-1.24 1.294-1.885 1.66-0.844 0.479-1.817 0.405-2.451 0.209-1.798-0.555-3.498-1.77-3.908-2.089 0 0-0.012 0.255 0.065 0.312 0.453 0.511 1.492 1.436 2.495 2.081l-2.14 0.235 1.012 7.877c-0.448 0.064-0.518 0.096-1.009 0.166-0.433-1.529-1.261-2.527-2.165-3.108-0.798-0.512-1.899-0.628-2.952-0.42l-0.068 0.078c0.732-0.076 1.597 0.030 2.486 0.593 0.872 0.551 1.574 1.975 1.833 2.832 0.331 1.096 0.56 2.267-0.331 3.51-0.634 0.883-2.486 1.371-3.981 0.315 0.399 0.642 0.94 1.168 1.666 1.267 1.079 0.147 2.104-0.041 2.809-0.764 0.602-0.619 0.921-1.913 0.837-3.276l0.953-0.138 0.344 2.446 15.77-1.899zM20.067 9.13c-0.044 0.101-0.113 0.166-0.009 0.493l0.006 0.019 0.017 0.042 0.043 0.098c0.188 0.383 0.393 0.743 0.736 0.928q0.134-0.023 0.276-0.030c0.323-0.014 0.526 0.037 0.655 0.107 0.012-0.065 0.014-0.159 0.007-0.297-0.025-0.485 0.096-1.309-0.835-1.743-0.352-0.163-0.845-0.113-1.009 0.091 0.030 0.004 0.057 0.010 0.078 0.017 0.248 0.087 0.080 0.173 0.035 0.275zM22.678 13.653c-0.122-0.067-0.693-0.041-1.095 0.007-0.765 0.090-1.59 0.355-1.771 0.496-0.329 0.254-0.179 0.697 0.064 0.88 0.681 0.509 1.279 0.85 1.909 0.767 0.387-0.051 0.728-0.664 0.97-1.22 0.166-0.383 0.166-0.796-0.077-0.931zM15.909 9.73c0.216-0.204-1.074-0.474-2.075 0.209-0.738 0.503-0.761 1.582-0.055 2.194 0.071 0.061 0.129 0.104 0.184 0.139 0.192-0.094 0.427-0.19 0.669-0.271l0.042-0.012c0.457-0.149 0.837-0.225 1.149-0.266 0.149-0.167 0.323-0.461 0.28-0.994-0.059-0.723-0.607-0.607-0.195-0.999z"></path>
</svg>
