<!-- Generated by IcoMoon.io -->
<svg version="1.1" xmlns="http://www.w3.org/2000/svg" width="32" height="32" viewBox="0 0 32 32">
<path fill="#3a4d54" d="M18.45 12.7h2.825v2.875h1.425c0.65 0 1.325-0.125 1.95-0.325 0.3-0.1 0.65-0.25 0.95-0.425-0.4-0.525-0.6-1.175-0.65-1.825-0.075-0.875 0.1-2.025 0.7-2.7l0.3-0.35 0.35 0.275c0.9 0.725 1.625 1.7 1.775 2.85 1.075-0.325 2.325-0.25 3.275 0.3l0.375 0.225-0.2 0.4c-0.8 1.55-2.475 2.050-4.1 1.95-2.45 6.075-7.75 8.95-14.2 8.95-3.325 0-6.375-1.25-8.125-4.2l-0.025-0.050-0.25-0.525c-0.6-1.3-0.775-2.725-0.65-4.15l0.050-0.425h2.4v-2.85h2.825v-2.8h5.625v-2.825h3.375v5.625z"></path>
<path fill="#00aada" d="M27.6 13.775c0.2-1.475-0.9-2.625-1.6-3.175-0.775 0.9-0.9 3.3 0.325 4.3-0.7 0.6-2.125 1.175-3.625 1.175h-18.050c-0.15 1.55 0.125 2.975 0.75 4.2l0.2 0.375c0.125 0.225 0.275 0.425 0.425 0.65 0.75 0.050 1.425 0.075 2.050 0.050 1.225-0.025 2.225-0.175 3-0.425 0.125-0.050 0.225 0.025 0.275 0.125 0.050 0.125-0.025 0.225-0.125 0.275-0.1 0.025-0.2 0.075-0.325 0.1-0.6 0.175-1.25 0.275-2.075 0.325h-0.15c-0.325 0.025-0.675 0.025-1.050 0.025-0.4 0-0.775 0-1.225-0.025 1.5 1.7 3.85 2.7 6.8 2.7 6.25 0 11.55-2.775 13.875-8.975 1.675 0.175 3.275-0.25 4-1.675-1.125-0.675-2.625-0.45-3.475-0.025z"></path>
<path fill="#28b8eb" d="M27.6 13.775c0.2-1.475-0.9-2.625-1.6-3.175-0.775 0.9-0.9 3.3 0.325 4.3-0.7 0.6-2.125 1.175-3.625 1.175h-17c-0.075 2.375 0.8 4.175 2.375 5.25 1.225-0.025 2.225-0.175 3-0.425 0.125-0.050 0.225 0.025 0.275 0.125 0.050 0.125-0.025 0.225-0.125 0.275-0.1 0.025-0.2 0.075-0.325 0.1-0.6 0.175-1.3 0.3-2.125 0.35l-0.025-0.025c2.125 1.1 5.2 1.075 8.75-0.275 3.95-1.525 7.65-4.425 10.225-7.725-0.050 0.025-0.1 0.025-0.125 0.050z"></path>
<path fill="#028bb8" d="M4.675 17.95c0.1 0.825 0.35 1.6 0.725 2.325l0.2 0.375c0.125 0.225 0.275 0.425 0.425 0.65 0.75 0.050 1.425 0.075 2.050 0.050 1.225-0.025 2.225-0.175 3-0.425 0.125-0.050 0.225 0.025 0.275 0.125 0.050 0.125-0.025 0.225-0.125 0.275-0.1 0.025-0.2 0.075-0.325 0.1-0.6 0.175-1.3 0.3-2.125 0.35h-0.1c-0.325 0.025-0.675 0.025-1.025 0.025-0.4 0-0.8 0-1.225-0.025 1.5 1.7 3.875 2.7 6.825 2.7 5.35 0 10-2.025 12.7-6.5h-21.275v-0.025z"></path>
<path fill="#019bc6" d="M5.875 17.95c0.325 1.45 1.075 2.6 2.2 3.375 1.225-0.025 2.225-0.175 3-0.425 0.125-0.050 0.225 0.025 0.275 0.125 0.050 0.125-0.025 0.225-0.125 0.275-0.1 0.025-0.2 0.075-0.325 0.1-0.6 0.175-1.3 0.3-2.15 0.35 2.125 1.1 5.2 1.075 8.725-0.275 2.125-0.825 4.2-2.050 6.050-3.525h-17.65z"></path>
<path fill="#00acd3" d="M7.1 13.175v2.45h2.45v-2.45h-2.45zM7.3 13.375h0.2v2.025h-0.2v-2.025zM7.65 13.375h0.2v2.025h-0.2v-2.025zM8.025 13.375h0.2v2.025h-0.2v-2.025zM8.4 13.375h0.2v2.025h-0.2v-2.025zM8.775 13.375h0.2v2.025h-0.2v-2.025zM9.15 13.375h0.2v2.025h-0.2v-2.025zM9.9 10.375v2.45h2.45v-2.45h-2.45zM10.125 10.575h0.2v2.025h-0.2v-2.025zM10.475 10.575h0.2v2.025h-0.2v-2.025zM10.85 10.575h0.2v2.025h-0.2v-2.025zM11.225 10.575h0.2v2.025h-0.2v-2.025zM11.575 10.575h0.2v2.025h-0.2v-2.025zM11.95 10.575h0.2v2.025h-0.2v-2.025z"></path>
<path fill="#23c2ee" d="M9.9 13.175v2.45h2.45v-2.45h-2.45zM10.125 13.375h0.2v2.025h-0.2v-2.025zM10.475 13.375h0.2v2.025h-0.2v-2.025zM10.85 13.375h0.2v2.025h-0.2v-2.025zM11.225 13.375h0.2v2.025h-0.2v-2.025zM11.575 13.375h0.2v2.025h-0.2v-2.025zM11.95 13.375h0.2v2.025h-0.2v-2.025z"></path>
<path fill="#00acd3" d="M12.725 13.175v2.45h2.45v-2.45h-2.45zM12.925 13.375h0.2v2.025h-0.2v-2.025zM13.3 13.375h0.2v2.025h-0.2v-2.025zM13.675 13.375h0.2v2.025h-0.2v-2.025zM14.025 13.375h0.2v2.025h-0.2v-2.025zM14.4 13.375h0.2v2.025h-0.2v-2.025zM14.775 13.375h0.2v2.025h-0.2v-2.025z"></path>
<path fill="#23c2ee" d="M12.725 10.375v2.45h2.45v-2.45h-2.45zM12.925 10.575h0.2v2.025h-0.2v-2.025zM13.3 10.575h0.2v2.025h-0.2v-2.025zM13.675 10.575h0.2v2.025h-0.2v-2.025zM14.025 10.575h0.2v2.025h-0.2v-2.025zM14.4 10.575h0.2v2.025h-0.2v-2.025zM14.775 10.575h0.2v2.025h-0.2v-2.025zM15.55 13.175v2.45h2.45v-2.45h-2.45zM15.75 13.375h0.2v2.025h-0.2v-2.025zM16.125 13.375h0.2v2.025h-0.2v-2.025zM16.475 13.375h0.2v2.025h-0.2v-2.025zM16.85 13.375h0.2v2.025h-0.2v-2.025zM17.225 13.375h0.2v2.025h-0.2v-2.025zM17.6 13.375h0.2v2.025h-0.2v-2.025z"></path>
<path fill="#00acd3" d="M15.55 10.375v2.45h2.45v-2.45h-2.45zM15.75 10.575h0.2v2.025h-0.2v-2.025zM16.125 10.575h0.2v2.025h-0.2v-2.025zM16.475 10.575h0.2v2.025h-0.2v-2.025zM16.85 10.575h0.2v2.025h-0.2v-2.025zM17.225 10.575h0.2v2.025h-0.2v-2.025zM17.6 10.575h0.2v2.025h-0.2v-2.025z"></path>
<path fill="#23c2ee" d="M15.55 7.55v2.45h2.45v-2.45h-2.45zM15.75 7.75h0.2v2.025h-0.2v-2.025zM16.125 7.75h0.2v2.025h-0.2v-2.025zM16.475 7.75h0.2v2.025h-0.2v-2.025zM16.85 7.75h0.2v2.025h-0.2v-2.025zM17.225 7.75h0.2v2.025h-0.2v-2.025zM17.6 7.75h0.2v2.025h-0.2v-2.025z"></path>
<path fill="#00acd3" d="M18.375 13.175v2.45h2.45v-2.45h-2.45zM18.575 13.375h0.2v2.025h-0.2v-2.025zM18.925 13.375h0.2v2.025h-0.2v-2.025zM19.3 13.375h0.2v2.025h-0.2v-2.025zM19.675 13.375h0.2v2.025h-0.2v-2.025zM20.050 13.375h0.2v2.025h-0.2v-2.025zM20.425 13.375h0.2v2.025h-0.2v-2.025z"></path>
<path fill="#d4eef1" d="M12.2 19.575c0.375 0 0.675 0.3 0.675 0.675s-0.3 0.675-0.675 0.675c-0.375 0-0.675-0.3-0.675-0.675s0.3-0.675 0.675-0.675z"></path>
<path fill="#3a4d54" d="M12.2 19.775c0.050 0 0.125 0 0.175 0.025-0.050 0.025-0.1 0.1-0.1 0.175 0 0.1 0.1 0.2 0.2 0.2 0.075 0 0.15-0.050 0.175-0.1 0.025 0.050 0.025 0.125 0.025 0.175 0 0.275-0.225 0.475-0.475 0.475-0.275 0-0.475-0.225-0.475-0.475s0.2-0.475 0.475-0.475zM0.275 18.2h31.35c-0.675-0.175-2.15-0.4-1.925-1.3-1.25 1.425-4.225 1-5 0.3-0.85 1.225-5.75 0.75-6.075-0.2-1.050 1.25-4.325 1.25-5.375 0-0.35 0.95-5.25 1.425-6.075 0.2-0.75 0.7-3.75 1.125-5-0.3 0.275 0.875-1.225 1.125-1.9 1.3z"></path>
<path fill="#bfdbe0" d="M14 24.45c-1.675-0.8-2.575-1.875-3.1-3.050-0.625 0.175-1.375 0.3-2.225 0.35-0.325 0.025-0.675 0.025-1.025 0.025-0.425 0-0.85 0-1.3-0.025 1.5 1.5 3.4 2.675 6.875 2.7h0.775z"></path>
<path fill="#d4eef1" d="M11.525 22.475c-0.225-0.325-0.45-0.7-0.625-1.075-0.625 0.175-1.375 0.3-2.225 0.35 0.575 0.3 1.425 0.6 2.85 0.725z"></path>
</svg>
