<!-- Generated by IcoMoon.io -->
<svg version="1.1" xmlns="http://www.w3.org/2000/svg" width="32" height="32" viewBox="0 0 32 32">
<path fill="#0acf83" d="M11.375 32.25c2.975 0 5.375-2.4 5.375-5.375v-5.375h-5.375c-2.975 0-5.375 2.4-5.375 5.375s2.4 5.375 5.375 5.375z"></path>
<path fill="#a259ff" d="M6 16.125c0-2.975 2.4-5.375 5.375-5.375h5.375v10.75h-5.375c-2.975 0-5.375-2.4-5.375-5.375z"></path>
<path fill="#f24e1e" d="M6 5.375c0-2.975 2.4-5.375 5.375-5.375h5.375v10.75h-5.375c-2.975 0-5.375-2.4-5.375-5.375z"></path>
<path fill="#ff7262" d="M16.75 0h5.375c2.975 0 5.375 2.4 5.375 5.375s-2.4 5.375-5.375 5.375h-5.375z"></path>
<path fill="#1abcfe" d="M27.5 16.125c0 2.975-2.4 5.375-5.375 5.375s-5.375-2.4-5.375-5.375 2.4-5.375 5.375-5.375 5.375 2.4 5.375 5.375z"></path>
</svg>
