<!-- Generated by IcoMoon.io -->
<svg version="1.1" xmlns="http://www.w3.org/2000/svg" width="32" height="32" viewBox="0 0 32 32">
<path fill="#2088ff" d="M6.667 0c-3.674 0-6.667 2.993-6.667 6.667 0 3.218 2.295 5.913 5.333 6.532v9.467c0 2.942 2.42 5.334 5.333 5.334h0.049c0.325 2.256 2.275 4 4.618 4 2.569 0 4.667-2.097 4.667-4.666s-2.097-4.667-4.666-4.667c-2.343 0-4.293 1.744-4.618 4h-0.049c-2.184 0-4-1.788-4-4v-6.722c0.841 0.857 2.011 1.389 3.306 1.389 0.002 0 0.003 0 0.005 0h0.739c0.326 2.256 2.275 4 4.618 4s4.292-1.744 4.617-4h2.764c0.326 2.256 2.275 4 4.618 4 2.57 0 4.666-2.098 4.666-4.667s-2.097-4.666-4.666-4.666c-2.343 0-4.293 1.744-4.618 4h-2.764c-0.325-2.256-2.274-4-4.618-4s-4.293 1.744-4.618 4h-0.739c-1.608 0-2.948-1.147-3.247-2.668 3.645-0.034 6.604-3.012 6.604-6.665 0-3.674-2.993-6.667-6.667-6.667zM6.667 1.333c0.003 0 0.007 0 0.011 0 2.94 0 5.323 2.383 5.323 5.323 0 0.004 0 0.007 0 0.011v-0.001c0 0.003 0 0.006 0 0.010 0 2.94-2.383 5.324-5.324 5.324-0.004 0-0.007 0-0.011 0h0.001c-0.003 0-0.006 0-0.010 0-2.94 0-5.323-2.383-5.323-5.323 0-0.004 0-0.007 0-0.011v0.001c0-0.003 0-0.007 0-0.011 0-2.94 2.383-5.322 5.322-5.322 0.004 0 0.007 0 0.011 0h-0.001zM5.363 3.219c-0.695 0.003-1.363 0.562-1.363 1.323v4.261c0 1.011 1.177 1.666 2.036 1.133l3.408-2.114c0.814-0.505 0.819-1.75 0.008-2.261l-3.409-2.147c-0.19-0.122-0.422-0.194-0.671-0.194-0.004 0-0.007 0-0.011 0h0.001zM5.333 4.542l3.409 2.147-3.409 2.114v-4.261zM15.334 13.334c0.003 0 0.007-0 0.011-0 1.835 0 3.322 1.488 3.322 3.322 0 0.004 0 0.007-0 0.011v-0.001c0 0.003 0 0.007 0 0.010 0 1.835-1.488 3.323-3.323 3.323-0.003 0-0.007 0-0.010 0h0.001c-0.003 0-0.007 0-0.010 0-1.836 0-3.323-1.488-3.323-3.323 0-0.004 0-0.007 0-0.011v0.001c0-0.003 0-0.006 0-0.010 0-1.835 1.488-3.323 3.323-3.323 0.004 0 0.007 0 0.011 0h-0.001zM27.334 13.334c0.003 0 0.007-0 0.011-0 1.835 0 3.322 1.488 3.322 3.322 0 0.004 0 0.007-0 0.011v-0.001c0 0.003 0 0.007 0 0.010 0 1.835-1.488 3.323-3.323 3.323-0.003 0-0.007 0-0.010 0h0.001c-0.003 0-0.006 0-0.010 0-1.836 0-3.323-1.488-3.323-3.323 0-0.004 0-0.007 0-0.011v0.001c0-0.003 0-0.006 0-0.010 0-1.835 1.488-3.323 3.323-3.323 0.004 0 0.007 0 0.011 0h-0.001zM16.692 15.071c-0 0-0 0-0.001 0-0.184 0-0.351 0.075-0.471 0.195l-1.575 1.573-0.523-0.521c-0.121-0.12-0.287-0.194-0.471-0.194s-0.351 0.075-0.472 0.196v0c-0.12 0.121-0.194 0.287-0.194 0.471s0.075 0.352 0.196 0.472l0 0 0.994 0.99c0.121 0.12 0.287 0.194 0.471 0.194s0.35-0.074 0.471-0.195v0l2.046-2.043c0.121-0.121 0.196-0.287 0.196-0.472s-0.075-0.351-0.195-0.471v0c-0.121-0.12-0.287-0.195-0.471-0.195v0zM28.692 15.071c-0 0-0 0-0.001 0-0.184 0-0.351 0.075-0.471 0.195l-1.575 1.573-0.523-0.521c-0.121-0.12-0.287-0.194-0.471-0.194s-0.351 0.075-0.472 0.196v0c-0.12 0.121-0.194 0.287-0.194 0.471s0.075 0.352 0.196 0.472l0 0 0.994 0.99c0.121 0.12 0.287 0.194 0.471 0.194s0.35-0.074 0.471-0.195v0l2.046-2.043c0.121-0.121 0.196-0.287 0.196-0.472s-0.075-0.351-0.195-0.471v0c-0.121-0.12-0.287-0.195-0.471-0.195v0zM15.334 24c0.003 0 0.006 0 0.010 0 1.835 0 3.323 1.488 3.323 3.323 0 0.004 0 0.007-0 0.011v-0.001c0 0.003 0 0.007 0 0.011 0 1.835-1.488 3.322-3.322 3.322-0.004 0-0.007 0-0.011-0h0.001c-0.003 0-0.007 0-0.010 0-1.835 0-3.323-1.488-3.323-3.323 0-0.003 0-0.007 0-0.010v0.001c0-0.003 0-0.006 0-0.010 0-1.836 1.488-3.323 3.324-3.323 0.004 0 0.007 0 0.011 0h-0.001zM14 26.334c-0.548 0-1 0.452-1 1s0.452 1 1 1 1-0.451 1-1c0-0.548-0.452-1-1-1zM16.666 26.334c-0.548 0-1 0.452-1 1s0.452 1 1 1 1-0.451 1-1c0-0.548-0.452-1-1-1zM14 27c0.188 0 0.334 0.146 0.334 0.334s-0.146 0.333-0.334 0.333c-0.188 0-0.334-0.145-0.334-0.333s0.146-0.334 0.334-0.334zM16.666 27c0.188 0 0.334 0.146 0.334 0.334s-0.146 0.333-0.334 0.333c-0.188 0-0.333-0.145-0.333-0.333s0.146-0.334 0.333-0.334z"></path>
<path fill="#79b8ff" d="M27.334 22.666c-2.346 0-4.297 1.748-4.619 4.008-0.018-0.002-0.039-0.003-0.061-0.003-0.002 0-0.004 0-0.006 0h0l-0.675 0.023c-0.359 0.012-0.645 0.306-0.645 0.666 0 0.008 0 0.015 0 0.022l-0-0.001c0.012 0.359 0.306 0.645 0.666 0.645 0.008 0 0.015-0 0.023-0l-0.001 0 0.675-0.022c0.010-0 0.018-0.001 0.027-0.002l-0.002 0c0.327 2.254 2.276 3.997 4.618 3.997 2.57 0 4.666-2.097 4.666-4.666s-2.097-4.667-4.666-4.667zM27.334 24c0.003 0 0.006 0 0.010 0 1.835 0 3.323 1.488 3.323 3.323 0 0.004 0 0.007-0 0.011v-0.001c0 0.003 0 0.007 0 0.011 0 1.835-1.488 3.322-3.322 3.322-0.004 0-0.007 0-0.011-0h0.001c-0.003 0-0.007 0-0.010 0-1.835 0-3.323-1.488-3.323-3.323 0-0.003 0-0.007 0-0.010v0.001c0-0.003 0-0.006 0-0.010 0-1.836 1.488-3.323 3.323-3.323 0.004 0 0.007 0 0.011 0h-0.001z"></path>
</svg>
