<!-- Generated by IcoMoon.io -->
<svg version="1.1" xmlns="http://www.w3.org/2000/svg" width="32" height="32" viewBox="0 0 32 32">
<path fill="#e434aa" d="M4.598 24.213l-1.15-0.664 12.813-22.19 1.149 0.664z"></path>
<path fill="#e434aa" d="M3.183 21.776h25.624v1.328h-25.624z"></path>
<path fill="#e434aa" d="M16.508 29.922l-12.816-7.399 0.664-1.151 12.816 7.401zM27.642 10.636l-12.816-7.401 0.664-1.149 12.816 7.399z"></path>
<path fill="#e434aa" d="M4.359 10.631l-0.664-1.15 12.817-7.399 0.664 1.149z"></path>
<path fill="#e434aa" d="M27.405 24.213l-12.812-22.191 1.149-0.664 12.812 22.19zM4.2 8.6h1.328v14.801h-1.328z"></path>
<path fill="#e434aa" d="M26.472 8.6h1.328v14.801h-1.328z"></path>
<path fill="#e434aa" d="M16.282 29.36l-0.58-1.005 11.147-6.436 0.58 1.005z"></path>
<path fill="#e434aa" d="M29.559 23.832c-0.767 1.336-2.48 1.792-3.815 1.024s-1.792-2.48-1.024-3.817c0.768-1.336 2.48-1.792 3.817-1.024 1.344 0.776 1.8 2.48 1.023 3.816zM7.272 10.96c-0.769 1.336-2.481 1.792-3.817 1.024s-1.792-2.48-1.024-3.816c0.768-1.336 2.48-1.792 3.816-1.024 1.336 0.777 1.792 2.481 1.024 3.816zM2.441 23.832c-0.769-1.336-0.313-3.040 1.023-3.817 1.336-0.767 3.040-0.311 3.817 1.024 0.768 1.336 0.311 3.040-1.024 3.817-1.344 0.767-3.048 0.311-3.815-1.024zM24.727 10.96c-0.767-1.336-0.311-3.040 1.024-3.816 1.336-0.768 3.040-0.311 3.816 1.024 0.767 1.336 0.312 3.040-1.024 3.816-1.336 0.768-3.048 0.312-3.817-1.024zM16 31.664c-0.001 0-0.002 0-0.002 0-1.541 0-2.79-1.249-2.79-2.79 0-0.001 0-0.002 0-0.003v0c0-0.001 0-0.002 0-0.003 0-1.541 1.249-2.79 2.79-2.79 0.001 0 0.002 0 0.003 0h-0c0.001 0 0.002 0 0.003 0 1.541 0 2.79 1.249 2.79 2.79 0 0.001 0 0.002 0 0.003v-0c0 1.536-1.248 2.792-2.792 2.792zM16 5.92c-0.001 0-0.002 0-0.002 0-1.541 0-2.79-1.249-2.79-2.789 0-0.001 0-0.002 0-0.003v0c0-0.001 0-0.002 0-0.002 0-1.541 1.249-2.789 2.79-2.789 0.001 0 0.002 0 0.003 0h-0c0.001 0 0.002 0 0.003 0 1.541 0 2.79 1.249 2.79 2.789 0 0.001 0 0.002 0 0.003v-0c0 0.001 0 0.002 0 0.002 0 1.541-1.249 2.789-2.79 2.789-0.001 0-0.002 0-0.003 0h0z"></path>
</svg>
