<!-- Generated by IcoMoon.io -->
<svg version="1.1" xmlns="http://www.w3.org/2000/svg" width="32" height="32" viewBox="0 0 32 32">
<path fill="#99425b" d="M31.032 15.755c0-1.923-1.457-3.541-3.413-4.003l4.381-11.724h-21.71l4.391 11.761c-1.895 0.499-3.291 2.089-3.291 3.976 0 1.387 0.764 2.616 1.926 3.374-0.458 0.592-0.988 1.137-1.589 1.655-1.131 0.962-2.385 1.701-3.739 2.192-1.223-0.749-1.752-2.071-1.274-3.255 1.864-0.517 3.22-2.099 3.22-3.957 0-2.283-2.048-4.133-4.555-4.133-2.517 0-4.563 1.858-4.563 4.143 0 1.128 0.509 2.163 1.324 2.903-0.071 0.13-0.143 0.259-0.214 0.398-0.683 1.276-1.457 2.719-1.753 4.337-0.591 3.235 0.377 5.834 2.71 7.304 1.314 0.823 2.762 1.239 4.321 1.239 2.678 0 5.399-1.221 8.027-2.404 1.875-0.841 3.81-1.72 5.716-2.145 0.703-0.157 1.436-0.25 2.211-0.352 1.568-0.203 3.189-0.416 4.645-1.183 1.701-0.896 2.863-2.395 3.199-4.114 0.254-1.323 0-2.654-0.652-3.819 0.427-0.61 0.683-1.367 0.683-2.185 0-0.002 0-0.005 0-0.007v0zM29.046 15.755c0 1.285-1.151 2.33-2.567 2.33s-2.567-1.045-2.567-2.33c0-0.416 0.122-0.813 0.336-1.155 0.081-0.13 0.184-0.259 0.285-0.37 0.106-0.113 0.223-0.213 0.349-0.3l0.007-0.005 0.011-0.010c0.081-0.056 0.173-0.111 0.265-0.166 0 0 0.010 0 0.010-0.010 0.041-0.018 0.082-0.046 0.123-0.065 0.010 0 0.020-0.010 0.030-0.010 0.041-0.018 0.092-0.036 0.142-0.055 0.063-0.022 0.11-0.041 0.157-0.061l-0.014 0.005c0.010 0 0.020-0.010 0.030-0.010 0.041-0.008 0.082-0.027 0.122-0.036 0.011 0 0.031-0.010 0.041-0.010 0.051-0.009 0.092-0.018 0.142-0.027h0.011l0.152-0.028c0.011 0 0.030 0 0.041-0.009 0.041 0 0.081-0.010 0.122-0.010h0.051c0.051 0 0.102-0.009 0.163-0.009h0.133c0.040 0 0.072 0 0.111 0.009h0.020c0.082 0.010 0.163 0.018 0.245 0.037 1.161 0.222 2.048 1.165 2.048 2.293zM13.132 1.877h16.026l-3.678 9.847c-0.152 0.028-0.306 0.074-0.458 0.12l-3.871-7.165-3.882 7.119c-0.153-0.046-0.316-0.074-0.479-0.101zM20.416 14.95c-0.193-0.869-0.683-1.646-1.375-2.219l2.11-3.864 2.129 3.947c-0.632 0.573-1.090 1.304-1.273 2.136zM15.313 13.49c0.051-0.010 0.092-0.018 0.143-0.028h0.030c0.041-0.009 0.082-0.009 0.122-0.019h0.041c0.041 0 0.071-0.009 0.112-0.009h0.397c0.040 0 0.071 0.009 0.102 0.009 0.020 0 0.030 0 0.051 0.010 0.041 0.009 0.071 0.009 0.113 0.018 0.009 0 0.020 0 0.041 0.009 0.051 0.010 0.102 0.018 0.142 0.028h0.010c0.041 0.009 0.082 0.018 0.122 0.036 0.011 0 0.020 0.010 0.041 0.010 0.030 0.009 0.071 0.018 0.102 0.037 0.011 0 0.020 0.009 0.031 0.009 0.040 0.019 0.081 0.028 0.122 0.047h0.010c0.051 0.018 0.092 0.036 0.133 0.065h0.010c0.041 0.018 0.082 0.046 0.123 0.064 0.010 0 0.010 0.010 0.020 0.010 0.041 0.018 0.072 0.046 0.113 0.064l0.011 0.009c0.122 0.083 0.234 0.176 0.346 0.269l0.011 0.009c0.102 0.101 0.203 0.213 0.285 0.333 0.265 0.37 0.418 0.805 0.418 1.276 0 1.285-1.151 2.329-2.567 2.329s-2.567-1.044-2.567-2.329c-0.011-1.082 0.815-1.997 1.936-2.256zM5.287 13.425c1.416 0 2.567 1.045 2.567 2.33s-1.151 2.33-2.567 2.33c-1.416 0-2.567-1.045-2.567-2.33s1.151-2.33 2.567-2.33zM28.985 21.441c-0.224 1.183-1.029 2.219-2.211 2.838-1.11 0.583-2.476 0.767-3.912 0.952-0.784 0.102-1.609 0.213-2.404 0.389-2.119 0.472-4.156 1.396-6.133 2.283-2.527 1.138-4.911 2.21-7.121 2.21-1.152 0-2.181-0.296-3.158-0.915-2.241-1.405-2.13-4.040-1.864-5.483 0.244-1.351 0.927-2.617 1.579-3.828 0.040-0.074 0.071-0.139 0.111-0.213 0.225 0.074 0.459 0.13 0.703 0.167-0.387 1.96 0.713 3.985 2.853 4.983l0.388 0.184 0.417-0.139c1.783-0.573 3.434-1.507 4.89-2.755 0.825-0.703 1.528-1.461 2.119-2.284 0.234 0.037 0.469 0.047 0.703 0.047 2.119 0 3.901-1.323 4.411-3.098h1.711c0.51 1.784 2.293 3.098 4.412 3.098 0.846 0 1.63-0.212 2.302-0.573 0.266 0.693 0.347 1.414 0.204 2.136z"></path>
</svg>
