<!-- Generated by IcoMoon.io -->
<svg version="1.1" xmlns="http://www.w3.org/2000/svg" width="32" height="32" viewBox="0 0 32 32">
<path fill="#486bb3" d="M14.121 13.774c0.092 0.068 0.205 0.107 0.328 0.107 0.3 0 0.545-0.238 0.557-0.533l0.012-0.008 0.188-3.315c-0.225 0.027-0.45 0.065-0.675 0.115-1.232 0.28-2.3 0.887-3.135 1.707l2.717 1.928 0.008-0.002zM13.758 18.632c-0.058-0.249-0.278-0.432-0.541-0.432-0.037 0-0.073 0.004-0.108 0.010l0.004-0.001-0.005-0.008-3.262 0.552c0.508 1.38 1.425 2.51 2.602 3.272l0.026 0.015 1.265-3.055-0.010-0.012c0.043-0.105 0.057-0.223 0.030-0.343zM12.674 16.279c0.11-0.030 0.213-0.095 0.29-0.19 0.188-0.235 0.155-0.572-0.070-0.768l0.002-0.012-2.482-2.22c-0.605 0.97-0.964 2.149-0.964 3.411 0 0.25 0.014 0.496 0.041 0.739l-0.003-0.030 3.182-0.918 0.002-0.012zM15.084 17.255l0.915 0.44 0.915-0.438 0.225-0.988-0.633-0.79h-1.015l-0.635 0.79zM16.983 13.337c0.005 0.115 0.045 0.227 0.122 0.322 0.188 0.235 0.525 0.277 0.765 0.102l0.010 0.005 2.7-1.915c-1.020-0.998-2.35-1.65-3.788-1.825l0.188 3.31h0.003zM18.878 18.195c-0.043-0.008-0.085-0.012-0.128-0.010-0.073 0.003-0.145 0.023-0.212 0.055-0.188 0.092-0.315 0.282-0.315 0.502 0 0.080 0.017 0.155 0.047 0.224l-0.001-0.004-0.005 0.005 1.277 3.085c1.232-0.785 2.152-1.957 2.635-3.31l-3.29-0.558-0.008 0.010zM16.488 19.829c-0.097-0.176-0.281-0.293-0.493-0.293-0.006 0-0.012 0-0.018 0l0.001-0c-0.193 0.008-0.375 0.115-0.473 0.295h-0.002l-1.605 2.9c0.628 0.221 1.352 0.348 2.105 0.348 0.519 0 1.023-0.060 1.507-0.174l-0.044 0.009c0.22-0.050 0.435-0.11 0.642-0.18l-1.607-2.907h-0.012z"></path>
<path fill="#486bb3" d="M31.136 19.197l-2.61-11.332c-0.143-0.604-0.546-1.094-1.081-1.352l-0.012-0.005-10.56-5.045c-0.256-0.125-0.558-0.198-0.876-0.198-0.037 0-0.073 0.001-0.109 0.003l0.005-0c-0.284 0.014-0.549 0.085-0.787 0.2l0.012-0.005-10.56 5.045c-0.546 0.265-0.948 0.754-1.090 1.344l-0.003 0.014-2.603 11.335c-0.032 0.134-0.051 0.288-0.051 0.447 0 0.405 0.122 0.782 0.331 1.096l-0.005-0.007c0.035 0.055 0.075 0.108 0.115 0.16l7.31 9.087c0.374 0.461 0.94 0.753 1.574 0.753 0.002 0 0.004 0 0.007 0l11.722-0.003c0.615 0 1.195-0.277 1.58-0.753l7.308-9.090c0.27-0.338 0.434-0.771 0.434-1.242 0-0.16-0.019-0.315-0.054-0.464l0.003 0.014zM27.119 19.059c-0.078 0.337-0.44 0.543-0.815 0.462-0.003 0-0.008 0-0.010-0.003-0.005 0-0.008-0.003-0.012-0.005-0.052-0.012-0.117-0.023-0.163-0.035-0.215-0.058-0.372-0.145-0.567-0.22-0.418-0.15-0.765-0.275-1.102-0.325-0.172-0.012-0.26 0.067-0.355 0.13-0.045-0.010-0.188-0.035-0.27-0.047-0.605 1.902-1.895 3.552-3.643 4.582 0.030 0.073 0.082 0.227 0.105 0.255-0.040 0.108-0.1 0.207-0.047 0.372 0.122 0.317 0.32 0.63 0.56 1.003 0.115 0.172 0.235 0.305 0.34 0.505 0.025 0.047 0.058 0.12 0.082 0.17 0.163 0.348 0.043 0.747-0.27 0.898-0.315 0.152-0.705-0.008-0.875-0.358-0.025-0.050-0.058-0.115-0.078-0.163-0.090-0.205-0.12-0.38-0.183-0.58-0.142-0.42-0.262-0.767-0.433-1.063-0.098-0.142-0.215-0.16-0.323-0.195-0.020-0.035-0.095-0.172-0.135-0.242-0.35 0.133-0.71 0.242-1.085 0.328-1.64 0.372-3.283 0.223-4.747-0.343l-0.143 0.26c-0.107 0.027-0.21 0.058-0.273 0.133-0.23 0.275-0.322 0.715-0.49 1.135-0.063 0.198-0.092 0.375-0.182 0.58-0.020 0.047-0.055 0.113-0.078 0.16v0.003l-0.002 0.003c-0.168 0.348-0.557 0.508-0.873 0.358-0.313-0.15-0.43-0.55-0.27-0.898 0.025-0.050 0.055-0.122 0.080-0.17 0.105-0.198 0.223-0.332 0.34-0.505 0.24-0.375 0.45-0.71 0.572-1.027 0.030-0.105-0.015-0.25-0.055-0.358l0.115-0.275c-1.683-0.997-3.010-2.585-3.645-4.552l-0.275 0.047c-0.075-0.043-0.223-0.14-0.362-0.128-0.338 0.050-0.685 0.175-1.103 0.325-0.195 0.075-0.35 0.16-0.567 0.218-0.045 0.012-0.11 0.025-0.162 0.038-0.005 0-0.008 0.003-0.013 0.005-0.003 0-0.008 0-0.010 0.003-0.375 0.080-0.737-0.125-0.815-0.462s0.162-0.68 0.535-0.77c0.003 0 0.008-0.003 0.010-0.003s0.003 0 0.005-0.003c0.053-0.012 0.12-0.030 0.17-0.040 0.22-0.043 0.4-0.032 0.607-0.047 0.442-0.047 0.808-0.085 1.133-0.188 0.103-0.043 0.202-0.185 0.272-0.275l0.265-0.078c-0.298-2.055 0.205-4.070 1.29-5.703l-0.203-0.18c-0.012-0.080-0.030-0.26-0.127-0.365-0.248-0.232-0.563-0.428-0.94-0.66-0.18-0.105-0.345-0.172-0.525-0.307-0.037-0.027-0.090-0.072-0.13-0.105-0.003-0.002-0.008-0.005-0.010-0.008-0.303-0.242-0.372-0.66-0.155-0.932 0.122-0.152 0.31-0.23 0.502-0.223 0.15 0.005 0.308 0.060 0.44 0.165 0.043 0.035 0.102 0.080 0.14 0.113 0.17 0.145 0.273 0.29 0.415 0.443 0.313 0.318 0.57 0.58 0.852 0.77 0.148 0.088 0.262 0.053 0.375 0.037 0.037 0.027 0.158 0.115 0.227 0.162 1.075-1.143 2.49-1.988 4.13-2.36 0.383-0.088 0.762-0.145 1.143-0.175l0.015-0.268c0.085-0.082 0.178-0.197 0.205-0.327 0.027-0.34-0.018-0.705-0.070-1.147-0.030-0.205-0.078-0.378-0.088-0.6-0.002-0.045 0-0.11 0.002-0.162 0-0.005-0.002-0.013-0.002-0.018 0-0.388 0.283-0.702 0.632-0.702s0.633 0.315 0.633 0.702c0 0.055 0.003 0.13 0.003 0.18-0.008 0.223-0.058 0.395-0.087 0.6-0.052 0.44-0.1 0.808-0.073 1.147 0.025 0.17 0.125 0.237 0.207 0.315 0.003 0.045 0.010 0.197 0.015 0.283 2.010 0.178 3.875 1.098 5.247 2.535l0.24-0.172c0.082 0.005 0.26 0.030 0.383-0.043 0.282-0.19 0.54-0.455 0.852-0.77 0.142-0.152 0.247-0.295 0.418-0.443 0.038-0.033 0.098-0.078 0.14-0.113 0.302-0.242 0.725-0.215 0.942 0.057s0.148 0.69-0.155 0.932c-0.043 0.035-0.098 0.082-0.14 0.113-0.18 0.133-0.345 0.2-0.525 0.307-0.378 0.232-0.692 0.428-0.94 0.66-0.117 0.125-0.108 0.245-0.12 0.357-0.035 0.033-0.157 0.143-0.225 0.2 0.533 0.783 0.942 1.698 1.174 2.682l0.011 0.056c0.23 0.998 0.265 1.993 0.133 2.95l0.255 0.075c0.045 0.065 0.14 0.223 0.273 0.275 0.325 0.102 0.69 0.14 1.133 0.188 0.207 0.017 0.387 0.008 0.608 0.047 0.052 0.010 0.13 0.030 0.183 0.043 0.375 0.093 0.613 0.435 0.535 0.773z"></path>
<path fill="#486bb3" d="M21.569 13.089l-2.47 2.21 0.003 0.008c-0.085 0.075-0.15 0.175-0.177 0.295-0.067 0.293 0.11 0.583 0.395 0.662l0.003 0.012 3.197 0.92c0.067-0.69 0.027-1.405-0.137-2.12-0.165-0.723-0.442-1.39-0.813-1.988z"></path>
</svg>
