<!-- Generated by IcoMoon.io -->
<svg version="1.1" xmlns="http://www.w3.org/2000/svg" width="32" height="32" viewBox="0 0 32 32">
<path fill="#439934" d="M22.009 10.703c0.401 1.161 0.69 2.346 0.785 3.574 0.118 1.524 0.064 3.037-0.257 4.536-0.009 0.041-0.027 0.080-0.041 0.12-0.101 0-0.203-0.012-0.302 0.003-0.832 0.131-1.664 0.266-2.495 0.401-0.86 0.139-1.72 0.273-2.578 0.422-0.304 0.052-0.68-0.010-0.803 0.41-0.003 0.012-0.038 0.014-0.059 0.020l0.041-2.513-0.042-6.063 0.401-0.069c0.655-0.107 1.31-0.216 1.965-0.32 0.782-0.124 1.565-0.245 2.348-0.366 0.345-0.054 0.691-0.103 1.037-0.155z"></path>
<path fill="#45a538" d="M15.432 27.514c-0.422-0.363-0.86-0.71-1.265-1.093-2.179-2.055-3.773-4.475-4.558-7.392-0.216-0.803-0.361-1.619-0.407-2.448-0.033-0.581-0.079-1.166-0.039-1.744 0.109-1.536 0.331-3.057 0.782-4.537l0.025-0.034c0.044 0.058 0.107 0.11 0.129 0.175 0.44 1.295 0.876 2.591 1.31 3.888 1.364 4.075 2.727 8.151 4.094 12.225 0.027 0.079 0.096 0.145 0.146 0.216l-0.217 0.742z"></path>
<path fill="#46a037" d="M22.009 10.703c-0.346 0.052-0.692 0.101-1.037 0.154-0.783 0.121-1.566 0.242-2.348 0.366-0.655 0.104-1.311 0.213-1.965 0.32l-0.401 0.069-0.003-0.261c-0.013-0.215-0.036-0.429-0.038-0.644-0.017-1.37-0.028-2.739-0.045-4.109-0.011-0.857-0.026-1.714-0.044-2.571-0.011-0.532-0.022-1.065-0.046-1.597-0.013-0.286-0.059-0.57-0.078-0.856-0.011-0.164 0.004-0.33 0.007-0.495 0.204 0.396 0.404 0.794 0.614 1.187 0.332 0.621 0.86 1.079 1.336 1.578 1.881 1.973 3.216 4.267 4.048 6.858z"></path>
<path fill="#409433" d="M16.259 20.188c0.020-0.006 0.055-0.009 0.059-0.020 0.123-0.421 0.499-0.358 0.803-0.41 0.858-0.148 1.719-0.282 2.578-0.422 0.831-0.135 1.663-0.27 2.495-0.401 0.099-0.015 0.201-0.003 0.302-0.003-0.155 0.555-0.278 1.122-0.475 1.662-0.224 0.612-0.495 1.21-0.783 1.796-0.463 0.929-0.992 1.731-1.604 2.46l0.015-0.019c-0.48 0.577-1.014 1.11-1.55 1.637-0.296 0.291-0.645 0.529-0.971 0.79l-0.084-0.058-0.303-0.259-0.314-0.688c-0.204-0.733-0.33-1.577-0.348-2.448l-0-0.011 0.006-0.14 0.043-0.607c0.014-0.207 0.033-0.414 0.042-0.621 0.032-0.745 0.060-1.491 0.090-2.236z"></path>
<path fill="#4faa41" d="M16.259 20.188c-0.029 0.745-0.058 1.491-0.089 2.237-0.009 0.207-0.028 0.414-0.042 0.621l-0.191 0.072c-0.425-1.25-0.85-2.488-1.265-3.728-0.688-2.052-1.367-4.108-2.053-6.16-2.923-9.564-3.493-11.213-4.066-12.86l2.391 7.894c-0.026-0.078-0.102-0.138-0.154-0.207l1.224-2.251c0.042 0.073 0.098 0.141 0.124 0.22-2.686-9.16-2.11-7.49-1.538-5.818l3.23 10.848c0.729 2.183 1.454 4.367 2.182 6.55 0.029 0.087 0.077 0.168 0.123 0.265l0.168-0.195-0.042 2.513z"></path>
<path fill="#4aa73c" d="M10.789 8.057c0.053 0.069 0.128 0.129 0.154 0.207-1.818-6.246-1.248-4.597-0.682-2.946l2.357 7.913c0.687 2.053 1.366 4.108 2.053 6.161 0.415 1.24 0.841 2.478 1.265 3.728l0.191-0.072-0.043 0.607-0.039 0.14c-0.066 0.664-0.123 1.329-0.204 1.992-0.041 0.332-0.127 0.658-0.193 0.987-0.050-0.072-0.119-0.137-0.146-0.216-1.367-4.074-2.729-8.15-4.094-12.225-2.481-8.133-2.927-9.424-3.375-10.714l2.065 6.826c-0.022-0.066-0.085-0.117-0.129-0.175l0.818-2.21z"></path>
<path fill="#57ae47" d="M16.3 17.675l-0.168 0.195c-0.046-0.098-0.094-0.178-0.123-0.265-0.728-2.183-1.453-4.367-2.182-6.55-3.802-12.519-4.378-14.19-4.956-15.859l3.264 10.829c-0.026-0.079-0.082-0.147-0.124-0.22l1.514-1.991c0.048 0.064 0.116 0.12 0.14 0.192 0.42 1.23 0.837 2.462 1.251 3.694 0.387 1.151 0.768 2.304 1.159 3.453 0.026 0.077 0.117 0.132 0.178 0.197l0.003 0.261c0.015 2.021 0.029 4.042 0.043 6.063z"></path>
<path fill="#60b24f" d="M16.255 11.351c-0.061-0.065-0.152-0.12-0.178-0.197-0.391-1.149-0.772-2.302-1.159-3.453-0.414-1.232-0.831-2.464-1.251-3.694-0.025-0.072-0.093-0.128-0.14-0.192 0.492-0.482 0.969-0.981 1.481-1.441 0.455-0.409 0.821-0.847 0.838-1.492 0.001-0.027 0.015-0.053 0.036-0.129l0.13 0.327c-0.003 0.165-0.018 0.331-0.007 0.495 0.019 0.286 0.065 0.57 0.078 0.856 0.024 0.532 0.035 1.064 0.046 1.597 0.017 0.857 0.033 1.714 0.044 2.571 0.017 1.369 0.028 2.739 0.045 4.109 0.002 0.215 0.024 0.43 0.038 0.644z"></path>
<path fill="#a9aa88" d="M15.649 26.771c0.066-0.329 0.152-0.655 0.193-0.987 0.081-0.662 0.137-1.328 0.204-1.992l0.017-0.003 0.017 0.003c0.019 0.882 0.145 1.727 0.365 2.532l-0.017-0.073c-0.044 0.058-0.106 0.11-0.13 0.175-0.182 0.512-0.353 1.029-0.536 1.541-0.025 0.070-0.095 0.125-0.143 0.186l-0.187-0.642 0.217-0.742z"></path>
<path fill="#b6b598" d="M15.619 28.155c0.049-0.061 0.119-0.116 0.143-0.186 0.183-0.512 0.354-1.029 0.536-1.541 0.023-0.066 0.085-0.117 0.13-0.175l0.314 0.689c-0.062 0.088-0.148 0.167-0.182 0.265l-0.601 1.765c-0.025 0.071-0.109 0.121-0.166 0.18l-0.174-0.996z"></path>
<path fill="#c2c1a7" d="M15.793 29.151c0.057-0.059 0.141-0.11 0.166-0.18l0.601-1.765c0.034-0.098 0.12-0.177 0.182-0.265l0.304 0.259c-0.147 0.145-0.228 0.313-0.179 0.524l-0.092 0.302c-0.042 0.052-0.103 0.097-0.123 0.156-0.21 0.601-0.41 1.205-0.621 1.805-0.027 0.076-0.101 0.136-0.153 0.203-0.027-0.347-0.055-0.693-0.083-1.040z"></path>
<path fill="#cecdb7" d="M15.876 30.191c0.052-0.067 0.127-0.127 0.154-0.203 0.211-0.601 0.412-1.204 0.621-1.805 0.021-0.059 0.081-0.104 0.123-0.156l-0.127 1.386c-0.034 0.039-0.083 0.073-0.099 0.119-0.144 0.404-0.279 0.81-0.424 1.213-0.030 0.083-0.087 0.157-0.131 0.235-0.040-0.052-0.11-0.102-0.114-0.156-0.013-0.21-0.004-0.422-0.003-0.633z"></path>
<path fill="#dbdac7" d="M15.992 30.98c0.045-0.078 0.101-0.151 0.131-0.235 0.145-0.403 0.28-0.81 0.424-1.213 0.016-0.046 0.066-0.080 0.099-0.119l0.003 0.91-0.305 0.781-0.353-0.124z"></path>
<path fill="#ebe9dc" d="M16.345 31.104l0.305-0.781 0.063 0.924-0.367-0.143z"></path>
<path fill="#cecdb7" d="M16.866 27.724c-0.049-0.212 0.032-0.38 0.179-0.524l0.084 0.058-0.264 0.467z"></path>
<path fill="#4faa41" d="M16.079 23.793l-0.017-0.003-0.017 0.003 0.039-0.14-0.006 0.14z"></path>
</svg>
