<!-- Generated by IcoMoon.io -->
<svg version="1.1" xmlns="http://www.w3.org/2000/svg" width="32" height="32" viewBox="0 0 32 32">
<path fill="#850000" d="M17.488 9.827c-0.419 0.018-1.127 0.13-1.127 0.178 0 0.020 0.499 0.27 0.537 0.27 0.035 0 0.614 0.289 0.743 0.369 0.168 0.107 0.288 0.205 0.253 0.205-0.023 0-0.617-0.23-0.843-0.327-0.183-0.077-0.946-0.305-1.317-0.393-0.201-0.047-0.286-0.065-0.628-0.127-0.504-0.092-1.097-0.098-1.354-0.013-0.369 0.12-0.452 0.268-0.452 0.812 0 0.3 0.015 0.427 0.080 0.696 0.028 0.117 0.108 0.375 0.146 0.462 0.011 0.027 0.046 0.113 0.075 0.188 0.030 0.074 0.121 0.267 0.201 0.424 0.449 0.892 1.122 1.635 2.070 2.289 0.299 0.205 1.112 0.594 1.437 0.687 0.083 0.023 0.11 0.069 0.043 0.069-0.075 0-0.762-0.19-0.903-0.249-0.037-0.018-0.091-0.040-0.146-0.060l-0.017-0.006c-0.489-0.197-1.114-0.604-1.631-1.066-0.556-0.496-1.004-1.1-1.314-1.781l-0.014-0.033c-0.198-0.447-0.333-0.969-0.366-1.423-0.020-0.26-0.040-0.322-0.107-0.319-0.023 0-0.236-0.008-0.472-0.021-0.64-0.027-1.515 0.043-2.382 0.193-1.656 0.282-3.443 0.934-5.282 1.927-0.423 0.227-0.719 0.399-1.011 0.576l0.105-0.059c-0.035 0.021-0.146 0.088-0.246 0.15s-0.218 0.132-0.261 0.159c-0.095 0.056-1.147 0.77-1.272 0.864-0.047 0.034-0.178 0.132-0.288 0.212-0.499 0.369-1.586 1.256-1.649 1.346-0.030 0.045 0.018 0.067 0.082 0.045 0.033-0.013 0.118-0.030 0.186-0.040 0.070-0.011 0.251-0.058 0.401-0.107 0.152-0.048 0.317-0.098 0.363-0.111 0.372-0.087 0.522-0.117 0.74-0.149 0.099-0.012 0.244-0.035 0.326-0.048 1.019-0.149 1.506-0.187 1.96-0.152 0.986 0.080 1.93 0.248 2.47 0.44 0.404 0.146 1.226 0.59 1.588 0.856 0.209 0.157 0.881 0.826 1.029 1.028 0.115 0.16 0.243 0.3 0.273 0.3 0.010 0 0.023-0.51 0.025-1.131l0.007-1.128 1.321-0.008c1.039-0.005 1.327 0.003 1.345 0.025 0.025 0.033 0.086 0.14 0.284 0.506 0.188 0.352 0.281 0.523 0.339 0.624 0.030 0.056 0.1 0.185 0.158 0.287 0.055 0.102 0.157 0.292 0.227 0.422s0.128 0.24 0.128 0.245c0 0.023 0.104 0.157 0.121 0.157 0.010 0 0.035-0.038 0.053-0.080 0.020-0.045 0.072-0.145 0.116-0.22 0.045-0.075 0.125-0.221 0.181-0.324s0.131-0.245 0.171-0.313c0.11-0.198 0.226-0.411 0.321-0.586 0.157-0.304 0.261-0.491 0.368-0.678l-0.055 0.103c0.032-0.063 0.072-0.128 0.085-0.145 0.021-0.023 0.316-0.030 1.386-0.025l1.357 0.008 0.008 2.204c0.005 1.736 0.012 2.201 0.038 2.201 0.015-0.003 0.115-0.061 0.218-0.133 0.145-0.102 0.208-0.164 0.276-0.279 0.153-0.262 0.588-0.674 0.879-0.834 0.326-0.184 0.703-0.33 1.101-0.418l0.028-0.005c0.401-0.085 0.52-0.098 1.431-0.13 1.663-0.058 1.909-0.067 1.922-0.080 0.008-0.007-0.015-0.072-0.048-0.148-0.035-0.072-0.095-0.207-0.138-0.297-0.158-0.342-0.158-0.456 0.008-0.624 0.113-0.117 0.403-0.22 0.903-0.32 0.082-0.017 0.186-0.040 0.227-0.055 0.043-0.013 0.096-0.023 0.118-0.023 0.064 0 0.563-0.122 0.668-0.162 0.073-0.030 0.464-0.115 0.931-0.205 0.203-0.040 0.73-0.145 1.167-0.233 0.276-0.055 0.564-0.112 0.639-0.127s0.184-0.037 0.238-0.047c0.055-0.012 0.128-0.028 0.163-0.033 0.035-0.007 0.211-0.042 0.39-0.079 0.079-0.020 0.215-0.047 0.353-0.071l0.050-0.007c0.126-0.012 1.072-0.239 1.29-0.309 0.347-0.113 0.449-0.157 0.668-0.304 0.235-0.16 0.301-0.247 0.534-0.712 0.259-0.517 0.296-0.604 0.369-0.821 0.113-0.347 0.105-0.479-0.038-0.624-0.101-0.1-0.317-0.202-0.474-0.225-0.118-0.015-0.134-0.010-0.191 0.053-0.035 0.037-0.066 0.082-0.066 0.098 0 0.023-0.040 0.132-0.152 0.402-0.011 0.027-0.033 0.095-0.051 0.149-0.015 0.056-0.045 0.133-0.063 0.175-0.032 0.070-0.035 0.057-0.023-0.137 0.013-0.193 0.045-0.354 0.118-0.6 0.013-0.047 0.030-0.127 0.037-0.177l0.012-0.090-0.261-0.104c-0.271-0.113-0.505-0.21-0.64-0.271-0.046-0.017-0.158-0.062-0.251-0.097-0.096-0.035-0.211-0.080-0.259-0.102-0.048-0.024-0.135-0.060-0.223-0.095l-0.040-0.014c-0.168-0.066-0.755-0.265-1.255-0.422 0.478 0.115 0.143 0.012-0.192-0.090l-0.811-0.212c-0.181-0.045-0.299-0.078-0.416-0.114l0.064 0.017c-0.040-0.011-0.139-0.038-0.214-0.057-0.442-0.122-0.556-0.152-0.715-0.197-0.041-0.014-0.129-0.038-0.218-0.060l-0.045-0.010c-0.048-0.012-0.177-0.042-0.288-0.069-0.194-0.048-1.004-0.234-1.444-0.335l-0.314-0.072c-0.055-0.012-0.155-0.032-0.226-0.045-0.068-0.012-0.211-0.040-0.314-0.063-0.102-0.019-0.323-0.063-0.489-0.090-0.165-0.029-0.363-0.064-0.439-0.077-0.693-0.125-0.74-0.132-1.983-0.27-0.765-0.087-1.795-0.16-2.046-0.148-0.040 0-0.262 0.010-0.491 0.023zM14.587 11.057c0.663 0.215 1.308 0.507 1.749 0.792 0.352 0.227 0.788 0.589 0.906 0.751l0.050 0.068-0.095-0.037c-0.052-0.023-0.163-0.070-0.246-0.11-0.442-0.205-0.489-0.222-0.489-0.177 0 0.012 0.102 0.177 0.226 0.361 0.126 0.188 0.226 0.352 0.226 0.367 0 0.012-0.047-0.008-0.105-0.048-0.226-0.155-0.755-0.377-0.785-0.332-0.008 0.012 0.155 0.22 0.364 0.462 0.205 0.242 0.376 0.449 0.376 0.465 0 0.037-0.040 0.032-0.23-0.038-0.196-0.069-0.246-0.077-0.246-0.029 0 0.032 0.424 0.604 0.592 0.801 0.048 0.055 0.086 0.107 0.086 0.12 0 0.060-0.588-0.322-1.004-0.651-0.595-0.475-1.17-1.111-1.473-1.637-0.249-0.43-0.334-0.661-0.334-0.916 0-0.149 0.007-0.179 0.063-0.232 0.033-0.034 0.073-0.063 0.088-0.063s0.14 0.038 0.283 0.085zM22.51 11.946c0.24 0.043 0.569 0.1 0.727 0.128s0.352 0.059 0.427 0.072c0.075 0.015 0.183 0.034 0.238 0.047s0.163 0.035 0.238 0.053c0.248 0.055 0.308 0.068 0.715 0.162 0.436 0.102 0.532 0.122 0.665 0.149 0.113 0.023 0.226 0.066 0.226 0.085 0 0.008-0.082 0.056-0.183 0.107-0.206 0.102-0.249 0.11-1.097 0.143-0.577 0.024-0.886 0.018-1.167-0.027-0.567-0.088-0.86-0.247-1.089-0.591-0.080-0.117-0.133-0.152-0.317-0.199-0.067-0.021-0.171-0.048-0.226-0.066-0.056-0.018-0.151-0.045-0.211-0.063-0.181-0.047-0.078-0.074 0.286-0.074 0.251 0 0.427 0.017 0.765 0.074zM25.528 15.434c-0.009 0.002-0.020 0.004-0.031 0.004s-0.022-0.001-0.032-0.004l0.001 0c-0.017-0.008-0.005-0.013 0.030-0.013s0.047 0.005 0.032 0.012zM25.42 15.463c0 0.012-0.029 0.030-0.067 0.038-0.078 0.020-0.384 0.107-0.484 0.139-0.035 0.013-0.148 0.048-0.251 0.078-0.259 0.075-0.886 0.279-1.054 0.345-0.317 0.12-1.059 0.514-1.164 0.619-0.156 0.152-0.204 0.316-0.181 0.631 0.007 0.133 0.024 0.3 0.040 0.372 0.030 0.157 0.012 0.2-0.048 0.122s-0.189-0.357-0.226-0.494c-0.020-0.061-0.043-0.145-0.055-0.184-0.045-0.142-0.027-0.31 0.043-0.411 0.095-0.145 0.436-0.377 0.838-0.569 0.191-0.093 0.745-0.283 1.255-0.432 0.102-0.030 0.216-0.065 0.251-0.075 0.361-0.122 1.104-0.239 1.104-0.178zM17.483 15.631c-0.008 0.007-0.030 0.010-0.048 0.002-0.020-0.007-0.012-0.014 0.015-0.014 0.028-0.003 0.043 0.005 0.033 0.012z"></path>
<path fill="#850000" d="M12.221 20.458v1.747h1.25c0.938 0 1.257-0.008 1.279-0.030 0.038-0.038 0.046-3.464 0.008-3.464-0.012 0-0.030 0.020-0.038 0.042-0.010 0.023-0.283 0.449-0.61 0.948-0.517 0.789-0.66 0.981-0.66 0.884 0-0.017-0.855-1.352-1.074-1.675-0.027-0.038-0.053-0.081-0.075-0.126l-0.002-0.006c-0.021-0.038-0.045-0.067-0.057-0.067-0.011 0-0.021 0.786-0.021 1.747z"></path>
</svg>
