<!-- Generated by IcoMoon.io -->
<svg version="1.1" xmlns="http://www.w3.org/2000/svg" width="32" height="32" viewBox="0 0 32 32">
<path fill="#df234f" d="M18.85 0.075c-0.225 0-0.45 0.050-0.65 0.125 0.425 0.275 0.65 0.65 0.775 1.075 0 0.050 0.025 0.1 0.025 0.15s0.025 0.1 0.025 0.15c0.025 0.725-0.2 0.825-0.35 1.25-0.25 0.55-0.175 1.15 0.125 1.625 0.025 0.050 0.050 0.125 0.1 0.175-0.325-2.1 1.425-2.4 1.75-3.050 0.025-0.575-0.45-0.95-0.825-1.225-0.375-0.225-0.675-0.275-0.975-0.275zM21.475 0.525c-0.025 0.2 0 0.15-0.025 0.25 0 0.075 0 0.15-0.025 0.225s-0.025 0.125-0.050 0.2c-0.025 0.075-0.050 0.125-0.075 0.2-0.025 0.050-0.050 0.1-0.075 0.175-0.025 0.025-0.050 0.075-0.075 0.1s-0.025 0.050-0.050 0.075c-0.050 0.050-0.075 0.125-0.125 0.175l-0.15 0.15c-0.050 0.050-0.1 0.1-0.15 0.125-0.175 0.125-0.375 0.225-0.55 0.35-0.050 0.050-0.125 0.075-0.175 0.125s-0.1 0.075-0.15 0.125l-0.15 0.15c-0.050 0.050-0.1 0.1-0.125 0.175-0.050 0.050-0.075 0.125-0.125 0.175-0.025 0.075-0.050 0.125-0.1 0.2-0.025 0.075-0.050 0.125-0.075 0.2s-0.050 0.15-0.050 0.2c0 0.025 0 0.075-0.025 0.1 0 0.025 0 0.075-0.025 0.1v0.35c0 0.075 0 0.125 0.025 0.2 0 0.075 0.025 0.125 0.050 0.2s0.050 0.125 0.075 0.2c0.025 0.050 0.050 0.075 0.050 0.125l-1.9-0.725c-0.325-0.1-0.625-0.175-0.95-0.25-0.175-0.050-0.35-0.075-0.525-0.125-0.5-0.1-1-0.175-1.5-0.225h-0.050c-0.5-0.050-0.975-0.075-1.475-0.075-0.375 0-0.725 0.025-1.075 0.050-0.5 0.025-1 0.1-1.5 0.175l-0.375 0.075c-0.25 0.050-0.5 0.1-0.75 0.175-0.125 0.025-0.25 0.075-0.375 0.1-0.125 0.050-0.25 0.1-0.35 0.15s-0.175 0.075-0.275 0.125c-0.025 0-0.025 0-0.050 0.025-0.075 0.050-0.15 0.075-0.225 0.125-0.025 0-0.050 0.025-0.050 0.025-0.1 0.050-0.175 0.1-0.25 0.125-0.050 0.025-0.125 0.050-0.175 0.075-0.025 0.025-0.050 0.025-0.075 0.050-0.075 0.050-0.15 0.075-0.225 0.125s-0.15 0.075-0.2 0.125c-0.050 0.050-0.125 0.075-0.175 0.125 0 0-0.025 0-0.025 0.025-0.050 0.025-0.1 0.075-0.15 0.125l-0.025 0.025c-0.050 0.025-0.075 0.075-0.125 0.1-0.025 0-0.025 0.025-0.050 0.025-0.050 0.025-0.075 0.075-0.125 0.1 0 0.025-0.025 0.025-0.025 0.025l-0.325 0.325s0 0.025-0.025 0.025l-0.125 0.125c-0.025 0.025-0.050 0.025-0.050 0.050l-0.15 0.15c0 0.025-0.025 0.025-0.025 0.050l-0.225 0.225c-0.125 0.15-0.275 0.275-0.425 0.4s-0.3 0.25-0.475 0.375-0.325 0.225-0.5 0.325-0.35 0.175-0.525 0.25c-0.175 0.075-0.35 0.15-0.525 0.2-0.35 0.075-0.7 0.225-1 0.25 0-0.125-0.075-0.1-0.15-0.1-0.075 0.025-0.15 0.025-0.2 0.050-0.075 0.025-0.125 0.050-0.2 0.075s-0.125 0.050-0.2 0.1c-0.050 0.050-0.125 0.075-0.175 0.125s-0.125 0.1-0.175 0.15c-0.050 0.050-0.125 0.1-0.175 0.15s-0.1 0.1-0.15 0.175c-0.050 0.075-0.1 0.125-0.125 0.2-0.050 0.050-0.075 0.125-0.125 0.2-0.025 0.075-0.075 0.15-0.1 0.225l-0.075 0.225c-0.025 0.075-0.025 0.125-0.050 0.2v0.025c-0.025 0.075-0.025 0.175-0.025 0.225 0.025-0.025 0.025 0.025 0.025 0.075v0.1c0 0.050 0.025 0.1 0.025 0.15 0.025 0.050 0.025 0.1 0.050 0.15s0.050 0.1 0.1 0.15c0.025 0.050 0.075 0.1 0.1 0.15 0.050 0.050 0.1 0.1 0.15 0.125 0.050 0.050 0.1 0.1 0.15 0.125 0.2 0.175 0.25 0.225 0.5 0.375 0.050 0.025 0.075 0.050 0.125 0.075h0.025v0.050c0 0.075 0.025 0.125 0.050 0.2s0.050 0.15 0.075 0.2l0.075 0.15c0 0.025 0.025 0.025 0.025 0.050 0.025 0.075 0.075 0.125 0.1 0.175 0.050 0.050 0.075 0.125 0.125 0.175l0.3 0.3h0.025c0.050 0.050 0.1 0.075 0.15 0.125s0.125 0.075 0.175 0.1c0.050 0.025 0.125 0.075 0.2 0.1 0.050 0.025 0.1 0.050 0.175 0.050 0 0 0.025 0 0.025 0.025 0.025 0 0.075 0.025 0.1 0.025-0.025 0.45-0.025 0.875 0.025 1.025 0.075 0.175 0.45-0.35 0.8-0.925-0.050 0.575-0.075 1.25 0 1.45 0.1 0.2 0.575-0.45 1.025-1.15 5.85-1.35 11.2 2.7 11.775 8.425-0.1-0.9-1.2-1.4-1.725-1.275-0.25 0.6-0.675 1.4-1.35 1.875 0.050-0.55 0.025-1.1-0.075-1.65-0.175 0.75-0.525 1.475-1.025 2.075-0.775 0.050-1.575-0.325-1.975-0.9-0.025-0.025-0.050-0.075-0.075-0.1-0.025-0.050-0.050-0.125-0.075-0.175s-0.050-0.125-0.050-0.175v-0.3c0-0.050 0.025-0.125 0.050-0.175s0.025-0.125 0.050-0.175c0.025-0.050 0.050-0.125 0.1-0.175 0.15-0.4 0.15-0.725-0.125-0.9l-0.15-0.075c-0.025 0-0.075-0.025-0.1-0.025s-0.050-0.025-0.075-0.025-0.125-0.025-0.175-0.050c-0.050-0.025-0.125-0.025-0.175-0.025s-0.125-0.025-0.175-0.025h-0.125c-0.075 0-0.125 0-0.175 0.025-0.050 0-0.125 0.025-0.175 0.025-0.050 0.025-0.125 0.025-0.175 0.050s-0.1 0.050-0.175 0.075l-0.15 0.075c-1.925 1.25-0.775 4.2 0.525 5.050-0.5 0.1-1 0.2-1.15 0.3l-0.025 0.025c0.35 0.225 0.725 0.4 1.125 0.55 0.525 0.175 1.1 0.325 1.35 0.4 0.675 0.15 1.375 0.2 2.075 0.15 3.65-0.25 6.65-3.050 7.2-6.7 0.025 0.075 0.025 0.15 0.050 0.225 0.025 0.15 0.050 0.3 0.075 0.475 0.025 0.075 0.025 0.15 0.025 0.225v0.025c0 0.075 0.025 0.15 0.025 0.225 0 0.1 0.025 0.175 0.025 0.275v1.050c0 0.075-0.025 0.125-0.025 0.2v0.075c0 0.075-0.025 0.15-0.025 0.25-0.025 0.075-0.025 0.15-0.050 0.225v0.025c-0.025 0.075-0.025 0.15-0.050 0.225v0.025c-0.025 0.075-0.025 0.15-0.050 0.225v0.025l-0.075 0.225v0.025c-0.025 0.075-0.050 0.175-0.075 0.25s-0.050 0.15-0.1 0.25c-0.025 0.075-0.050 0.175-0.1 0.25-0.025 0.075-0.075 0.15-0.1 0.25-0.025 0.075-0.075 0.15-0.1 0.225 0 0.025-0.025 0.050-0.025 0.050s0 0.025-0.025 0.025c-0.525 1.075-1.325 2.025-2.325 2.775-0.075 0.050-0.125 0.1-0.2 0.15-0.025 0.025-0.050 0.025-0.050 0.050-0.050 0.050-0.125 0.075-0.175 0.125l0.025 0.050c0.125-0.025 0.225-0.025 0.35-0.050 0.225-0.025 0.425-0.075 0.65-0.125 0.050 0 0.125-0.025 0.175-0.050 0.050 0 0.075-0.025 0.125-0.025s0.125-0.025 0.175-0.025c0.050-0.025 0.1-0.025 0.15-0.050 0.825-0.2 1.625-0.475 2.4-0.8-1.325 1.8-3.075 3.25-5.125 4.2 0.95-0.075 1.9-0.225 2.825-0.5 3.325-0.975 6.125-3.225 7.8-6.25-0.35 1.9-1.1 3.725-2.225 5.325 0.8-0.525 1.525-1.15 2.2-1.825 1.85-1.925 3.075-4.4 3.475-7.025 0.275 1.3 0.375 2.65 0.25 3.975 5.975-8.325 0.5-16.95-1.8-19.225 0-0.025-0.025-0.025-0.025-0.050v0c0 0.1 0 0.2-0.025 0.3-0.025 0.2-0.050 0.375-0.075 0.55-0.050 0.175-0.1 0.375-0.15 0.55s-0.125 0.35-0.2 0.525c-0.075 0.175-0.15 0.35-0.25 0.5s-0.2 0.325-0.3 0.475c-0.1 0.15-0.225 0.3-0.35 0.45s-0.25 0.275-0.4 0.425c-0.075 0.075-0.15 0.15-0.25 0.2-0.075 0.050-0.125 0.1-0.2 0.175-0.15 0.125-0.3 0.225-0.475 0.325-0.15 0.1-0.325 0.2-0.5 0.275l-0.525 0.225c-0.175 0.075-0.35 0.125-0.525 0.175s-0.375 0.1-0.55 0.125c-0.2 0.025-0.375 0.050-0.55 0.075-0.125 0-0.275 0.025-0.4 0.025-0.2 0-0.375-0.025-0.55-0.025-0.2-0.025-0.375-0.050-0.55-0.075-0.2-0.025-0.375-0.075-0.55-0.15 0.175-0.025 0.375-0.025 0.55-0.075 0.2-0.025 0.375-0.075 0.55-0.125s0.375-0.1 0.525-0.175l0.525-0.225c0.175-0.075 0.325-0.175 0.5-0.275 0.15-0.1 0.325-0.225 0.475-0.325 0.15-0.125 0.3-0.25 0.425-0.375 0.15-0.125 0.275-0.275 0.4-0.4 0.125-0.15 0.25-0.3 0.35-0.45 0.025-0.025 0.025-0.050 0.050-0.075 0.075-0.125 0.175-0.275 0.25-0.4 0.1-0.175 0.175-0.325 0.25-0.5s0.15-0.35 0.2-0.525l0.15-0.525c0.025-0.2 0.075-0.375 0.075-0.55 0.025-0.2 0.025-0.375 0.025-0.55 0-0.125 0-0.275-0.025-0.4-0.025-0.2-0.050-0.375-0.075-0.55-0.025-0.2-0.075-0.375-0.125-0.55s-0.125-0.35-0.175-0.525c-0.075-0.175-0.15-0.35-0.225-0.5-0.1-0.175-0.175-0.325-0.275-0.5-0.1-0.15-0.225-0.3-0.325-0.45-0.125-0.15-0.25-0.275-0.375-0.425-0.075-0.075-0.15-0.15-0.225-0.2-0.375-0.3-0.75-0.55-1.15-0.8-0.050-0.025-0.1-0.050-0.175-0.075-0.325-0.275-0.575-0.35-0.825-0.45z"></path>
</svg>
