<!-- Generated by IcoMoon.io -->
<svg version="1.1" xmlns="http://www.w3.org/2000/svg" width="32" height="32" viewBox="0 0 32 32">
<path fill="#000" d="M11.322 12.39c1.104 3.377 1.523 9.4 4.752 9.4 0.245 0 0.494-0.024 0.744-0.072-2.935-0.684-3.283-6.642-5.074-9.728-0.151 0.138-0.288 0.268-0.423 0.401l0.002-0.002z"></path>
<path fill="#000" d="M11.743 11.991c1.791 3.085 2.139 9.043 5.074 9.728 0.268-0.051 0.501-0.116 0.726-0.198l-0.032 0.010c-2.635-1.291-3.363-7.076-5.397-9.862-0.123 0.102-0.247 0.21-0.37 0.321z"></path>
<path fill="#14559a" d="M14.323 10.156c-0.245 0-0.494 0.024-0.744 0.072-0.653 0.123-1.317 0.405-1.986 0.83 0.182 0.181 0.357 0.387 0.52 0.612 0.681-0.565 1.357-0.982 2.030-1.233 0.213-0.083 0.467-0.156 0.729-0.206l0.028-0.005c-0.171-0.045-0.368-0.070-0.57-0.070-0.002 0-0.005 0-0.008 0h0z"></path>
<path fill="#000" d="M19.567 20.341c0.297-0.238 0.561-0.47 0.814-0.714l-0.004 0.004c-1.122-3.361-1.524-9.471-4.775-9.471-0.232 0-0.467 0.022-0.701 0.065 2.962 0.737 3.341 7.181 4.666 10.116z"></path>
<path fill="#3092c4" d="M14.901 10.226c-0.171-0.045-0.368-0.070-0.57-0.070-0.003 0-0.005 0-0.008 0h0l1.278 0.005c-0.232 0-0.467 0.021-0.701 0.066z"></path>
<path fill="#1969bc" d="M19.51 21.055c-0.128-0.124-0.248-0.253-0.36-0.388l-0.006-0.008c-0.547 0.387-1.092 0.681-1.633 0.872 0.193 0.094 0.395 0.164 0.609 0.207 0.166 0.034 0.338 0.052 0.519 0.052 0.608 0 1.088-0.072 1.497-0.268-0.225-0.122-0.431-0.279-0.625-0.467z"></path>
<path fill="#000" d="M14.143 10.437c2.653 1.387 2.883 7.671 5 10.222 0.142-0.1 0.282-0.206 0.423-0.318-1.325-2.935-1.704-9.38-4.665-10.116-0.253 0.047-0.505 0.117-0.758 0.211z"></path>
<path fill="#000" d="M12.113 11.669c2.034 2.785 2.762 8.571 5.397 9.862 0.541-0.191 1.087-0.485 1.633-0.872-2.117-2.551-2.348-8.835-5-10.222-0.673 0.251-1.349 0.668-2.030 1.232z"></path>
<path fill="#000" d="M10.021 12.309c-0.319 0.721-0.645 1.668-1.038 2.905 0.783-1.103 1.563-2.053 2.339-2.824-0.117-0.366-0.234-0.665-0.367-0.954l0.022 0.053c-0.352 0.271-0.663 0.54-0.96 0.824l0.004-0.004z"></path>
<path fill="#2b74b1" d="M11.259 11.28c-0.094 0.067-0.188 0.136-0.283 0.208 0.124 0.27 0.238 0.573 0.345 0.902 0.132-0.13 0.27-0.26 0.409-0.388l0.012-0.011c-0.156-0.271-0.316-0.503-0.492-0.721l0.008 0.011z"></path>
<path fill="#125a9e" d="M11.593 11.057c-0.111 0.070-0.222 0.145-0.334 0.223 0.174 0.214 0.333 0.453 0.484 0.711 0.124-0.112 0.247-0.22 0.37-0.322-0.164-0.225-0.338-0.431-0.52-0.612z"></path>
<path fill="#000" d="M29.688 9.899c-1.5 5.786-4.634 10.434-7.261 11.605h-0.005l-0.142 0.061-0.017 0.007-0.040 0.015-0.018 0.008-0.093 0.033-0.033 0.011-0.032 0.011-0.028 0.009-0.056 0.017-0.024 0.006-0.064 0.017-0.041 0.011-0.050 0.011c0.119 0.044 0.242 0.066 0.376 0.066 2.491 0 5.003-4.465 9.159-11.889l-1.632 0.001z"></path>
<path fill="#000" d="M8.441 10.391l0.005-0.004 0.006-0.004h0.003l0.040-0.015 0.008-0.004 0.011-0.004 0.043-0.015h0.002l0.096-0.034 0.014-0.004 0.041-0.012 0.019-0.006 0.041-0.012 0.016-0.004 0.137-0.036 0.019-0.004 0.040-0.008 0.020-0.006 0.040-0.008h0.009l0.083-0.015h0.017l0.039-0.007 0.022-0.004 0.037-0.005 0.020-0.004 0.089-0.008c-0.079-0.008-0.171-0.013-0.265-0.014h-0.001c-2.806 0-6.671 5.205-8.412 11.947h0.336c0.266-0.43 0.77-1.352 1.259-2.282l0.256-0.534c1.22-4.775 3.704-8.031 5.91-8.894z"></path>
<path fill="#0d82ca" d="M10.021 12.309c0.292-0.28 0.604-0.549 0.929-0.8l0.027-0.020c-0.080-0.177-0.156-0.321-0.239-0.461l0.011 0.021c-0.257 0.312-0.491 0.723-0.728 1.261z"></path>
<path fill="#0d82ca" d="M10.251 10.43c0.183 0.153 0.348 0.365 0.498 0.618 0.047-0.058 0.095-0.112 0.145-0.162-0.195-0.185-0.418-0.343-0.662-0.467l-0.016-0.007 0.030 0.014 0.005 0.004z"></path>
<path fill="#000" d="M2.532 19.285c2.558-4.93 3.77-8.050 5.91-8.894-2.206 0.864-4.691 4.12-5.91 8.894z"></path>
<path fill="#127bca" d="M10.893 10.886c-0.050 0.051-0.097 0.104-0.145 0.162 0.081 0.134 0.155 0.281 0.228 0.44 0.095-0.072 0.189-0.141 0.282-0.208-0.116-0.144-0.236-0.272-0.363-0.392l-0.002-0.002z"></path>
<path fill="#000" d="M3.693 22.079l-0.046 0.006h-0.009l-0.039 0.004h-0.006l-0.094 0.006h-0.010c2.589-0.073 3.773-1.369 4.36-3.249 0.446-1.425 0.813-2.626 1.134-3.634-1.085 1.526-2.174 3.346-3.269 5.385-0.528 0.983-1.331 1.393-2.020 1.48z"></path>
<path fill="#000" d="M3.693 22.078c0.689-0.088 1.492-0.498 2.020-1.481 1.095-2.038 2.185-3.858 3.269-5.384 0.394-1.237 0.72-2.184 1.038-2.905-2.16 2.056-4.328 5.474-6.327 9.769z"></path>
<path fill="#05a1e6" d="M2.532 19.285c-0.744 1.462-1.248 2.384-1.767 3.296l0.251-0.48h0.976c0.144-1.095 0.333-2.050 0.576-2.982l-0.037 0.166z"></path>
<path fill="#000" d="M9.268 10.177l-0.021 0.004-0.037 0.005-0.060 0.011-0.017 0.004-0.083 0.014h-0.009l-0.040 0.008-0.020 0.005-0.039 0.008-0.018 0.005-0.137 0.036-0.016 0.005-0.041 0.012-0.019 0.005-0.041 0.012-0.015 0.004-0.095 0.034-0.043 0.015-0.018 0.008-0.040 0.015-0.014 0.007c-2.139 0.844-3.351 3.964-5.91 8.894-0.208 0.767-0.397 1.722-0.526 2.695l-0.013 0.121h0.137l0.939-0.004h0.431l0.094-0.006h0.006l0.039-0.004h0.009l0.046-0.006c2-4.296 4.168-7.713 6.327-9.769 0.238-0.538 0.472-0.949 0.728-1.26-0.15-0.253-0.314-0.465-0.497-0.619l-0.005-0.004-0.030-0.015-0.030-0.015-0.029-0.014-0.035-0.014-0.027-0.012-0.057-0.024-0.024-0.009-0.042-0.017-0.023-0.008-0.059-0.020h-0.005l-0.068-0.019-0.015-0.005-0.070-0.020c-0.034-0.009-0.082-0.020-0.13-0.029l-0.012-0.002-0.015-0.004-0.062-0.010-0.012-0.004-0.073-0.010h-0.013l-0.056-0.006-0.089 0.008z"></path>
<path fill="#000" d="M23.828 13.102c-0.492 1.577-0.891 2.877-1.238 3.948 1.351-1.859 2.681-4.197 3.948-6.895-1.478 0.464-2.266 1.527-2.71 2.947z"></path>
<path fill="#000" d="M22.633 21.405c-0.069 0.035-0.138 0.068-0.206 0.099 2.627-1.172 5.761-5.819 7.261-11.605h-0.304c-3.447 6.158-4.555 10.28-6.751 11.507z"></path>
<path fill="#079ae1" d="M20.917 20.888c0.572-0.698 1.037-1.884 1.673-3.838-0.733 1.007-1.471 1.873-2.21 2.579l-0.004 0.006c0.161 0.483 0.338 0.909 0.54 1.253z"></path>
<path fill="#1969bc" d="M20.917 20.888c-0.195 0.238-0.401 0.418-0.63 0.552-0.050 0.029-0.101 0.057-0.152 0.082 0.232 0.128 0.503 0.218 0.791 0.252l0.010 0.001 0.131 0.012h0.008l0.063 0.004h0.214l0.024-0.004 0.047-0.004h0.023l0.051-0.006h0.004l0.016-0.004 0.055-0.009h0.016l0.061-0.010h0.010l0.123-0.026c-0.339-0.124-0.623-0.417-0.867-0.834z"></path>
<path fill="#1e5cb3" d="M16.074 21.79c0.245 0 0.494-0.024 0.743-0.072 0.268-0.051 0.501-0.115 0.725-0.197l-0.032 0.010c0.193 0.094 0.395 0.164 0.609 0.208 0.166 0.034 0.338 0.051 0.519 0.051h-2.564zM18.638 21.79c0.607 0 1.088-0.072 1.497-0.268 0.232 0.128 0.503 0.218 0.791 0.252l0.010 0.001 0.131 0.011h0.008l0.063 0.004h-2.5z"></path>
<path fill="#1d60b5" d="M21.213 21.79h0.14l0.024-0.004 0.048-0.004h0.023l0.051-0.006h0.004l0.015-0.004 0.055-0.008 0.017-0.004 0.062-0.010h0.010l0.123-0.026c0.119 0.044 0.242 0.066 0.376 0.066l-0.947 0.004-0-0.005z"></path>
<path fill="#175fab" d="M20.378 19.635v-0.004c-0.249 0.24-0.513 0.472-0.787 0.692l-0.023 0.018c-0.117 0.094-0.254 0.198-0.395 0.299l-0.028 0.019c0.119 0.142 0.24 0.275 0.367 0.396 0.193 0.187 0.399 0.345 0.625 0.467 0.051-0.025 0.102-0.053 0.152-0.082 0.23-0.134 0.435-0.315 0.63-0.552-0.201-0.344-0.378-0.77-0.539-1.253z"></path>
<path fill="#000" d="M28.421 9.899h-1.53l-0.242 0.012-0.113 0.242c-1.267 2.698-2.597 5.036-3.948 6.895-0.635 1.954-1.101 3.141-1.672 3.838 0.244 0.417 0.529 0.71 0.866 0.834l0.026-0.006h0.006l0.019-0.004 0.043-0.011 0.025-0.007 0.038-0.010 0.023-0.007 0.056-0.017 0.028-0.009 0.032-0.012 0.032-0.010 0.026-0.010 0.066-0.023 0.018-0.007 0.041-0.016 0.017-0.006 0.142-0.061h0.005c0.068-0.030 0.137-0.064 0.205-0.099 2.196-1.227 3.305-5.349 6.752-11.507l-0.962-0.001z"></path>
<path fill="#7dcbec" d="M9.358 10.169l0.016 0.004 0.040 0.004h0.014l0.073 0.009 0.012 0.004 0.062 0.010 0.015 0.004 0.142 0.031 0.013 0.004 0.057 0.016 0.016 0.005 0.068 0.019 0.005 0.004 0.059 0.020 0.023 0.007 0.043 0.017 0.024 0.008 0.056 0.024 0.027 0.012 0.034 0.015 0.030 0.014 0.030 0.015c0.245 0.12 0.47 0.28 0.678 0.475 0.077-0.081 0.157-0.153 0.241-0.219-0.456-0.323-0.973-0.508-1.568-0.508-0.069 0-0.138 0.004-0.208 0.009z"></path>
<path fill="#5ec5ed" d="M10.893 10.886c0.128 0.119 0.25 0.251 0.366 0.394 0.112-0.078 0.223-0.153 0.334-0.223-0.139-0.14-0.289-0.268-0.449-0.383l-0.011-0.007c-0.083 0.065-0.163 0.138-0.24 0.219z"></path>
<path fill="#000" d="M9.292 10.185l0.208-0.009c0.596 0 1.112 0.184 1.567 0.507 0.481-0.38 1.063-0.512 1.87-0.512h-3.911l0.265 0.014z"></path>
<path fill="#000" d="M12.938 10.172c-0.808 0-1.388 0.133-1.87 0.512 0.159 0.112 0.313 0.244 0.459 0.39 0.67-0.425 1.333-0.708 1.986-0.83 0.25-0.047 0.498-0.071 0.743-0.071l-1.319-0.001z"></path>
<path fill="#000" d="M22.59 17.050c0.348-1.071 0.745-2.371 1.238-3.948 0.444-1.421 1.231-2.483 2.709-2.947l0.114-0.242c-2.409 0.144-3.535 1.37-4.101 3.184-0.991 3.168-1.591 5.222-2.169 6.531 0.738-0.706 1.476-1.572 2.209-2.578z"></path>
</svg>
