<!-- Generated by IcoMoon.io -->
<svg version="1.1" xmlns="http://www.w3.org/2000/svg" width="32" height="32" viewBox="0 0 32 32">
<path fill="#5c2d91" d="M32 16c0 8.837-7.163 16-16 16s-16-7.163-16-16c0-8.837 7.163-16 16-16s16 7.163 16 16z"></path>
<path fill="#fff" opacity="0.1" d="M4.91 4.5c-3.293 2.943-5.355 7.204-5.355 11.945 0 8.837 7.163 16 16 16 4.742 0 9.002-2.063 11.932-5.34l0.014-0.015z"></path>
<path fill="#fff" d="M3.7 20.625c-0.003 0-0.007 0-0.011 0-0.192 0-0.366-0.081-0.489-0.21l-0-0c-0.127-0.125-0.205-0.299-0.205-0.491 0-0.003 0-0.006 0-0.010v0c0-0.002-0-0.003-0-0.005 0-0.193 0.078-0.368 0.205-0.495v0c0.123-0.132 0.298-0.215 0.492-0.215 0.003 0 0.006 0 0.009 0h-0c0.001 0 0.001 0 0.002 0 0.196 0 0.373 0.082 0.498 0.215l0 0c0.13 0.126 0.21 0.303 0.21 0.498 0 0.001 0 0.002 0 0.002v-0c0 0.002 0 0.004 0 0.006 0 0.194-0.080 0.369-0.21 0.493l-0 0c-0.126 0.13-0.301 0.21-0.496 0.21-0.002 0-0.003 0-0.005 0h0z"></path>
<path fill="#fff" d="M13.635 20.5h-1.31l-4.685-7.27c-0.108-0.164-0.206-0.351-0.283-0.549l-0.007-0.021h-0.040c0.034 0.299 0.053 0.646 0.053 0.998 0 0.089-0.001 0.177-0.004 0.265l0-0.013v6.59h-1.065v-9.115h1.385l4.56 7.14q0.285 0.445 0.37 0.61h0.025c-0.043-0.341-0.067-0.736-0.067-1.136 0-0.072 0.001-0.143 0.002-0.214l-0 0.011v-6.41h1.065z"></path>
<path fill="#fff" d="M20.845 20.5h-4.845v-9.115h4.62v0.965h-3.53v3.030h3.29v0.96h-3.29v3.16h3.76z"></path>
<path fill="#fff" d="M28 12.35h-2.65v8.15h-1.065v-8.15h-2.62v-0.965h6.335z"></path>
</svg>
