<!-- Generated by IcoMoon.io -->
<svg version="1.1" xmlns="http://www.w3.org/2000/svg" width="32" height="32" viewBox="0 0 32 32">
<path fill="#dd3735" d="M5.251 8.174c0.043 0.033 0.119 0.054 0.043 0.119-0.054 0.076-0.119 0.14-0.162 0.227-0.043 0.076-0.076 0.097-0.14 0.043 0.086-0.141 0.172-0.271 0.259-0.39zM26.964 19.51c0 0.032 0.011 0.053 0.011 0.086 0.022-0.043 0.022-0.065 0.033-0.086zM26.964 19.607v-0.011zM24.761 23.826l-1.88-10.428c-0.032-0.010-0.075-0.032-0.151-0.053 0.022 0.043 0.033 0.076 0.044 0.108 0.053-0.011 0.076-0.011 0.097-0.021 0-0.011 0-0.021 0.011-0.033l1.88 10.428zM22.816 11.051c-0.011 0.032-0.011 0.065-0.011 0.097 0-0.033 0-0.066 0.012-0.098zM22.827 11.267c-0.011 0-0.011 0-0.021-0.011v0.011c0.012 0.011 0.012 0.011 0.022 0zM22.806 11.354v-0.076c-0.032 0.011-0.064 0.011-0.108 0.022 0.054 0.021 0.108 0.032 0.108 0.053z"></path>
<path fill="#dd3a0a" d="M31.933 13.919c-0.021-0.422-0.032-0.844-0.076-1.266-0.076-0.573-0.151-1.158-0.281-1.72-0.097-0.465-0.259-0.909-0.421-1.352-0.205-0.519-0.41-1.049-0.67-1.547-0.421-0.8-0.972-1.515-1.48-2.261-0.336-0.476-0.768-0.865-1.092-1.352-0.183-0.281-0.454-0.519-0.724-0.735-0.432-0.347-0.886-0.661-1.339-0.963-0.346-0.238-0.691-0.465-1.059-0.671-0.291-0.163-0.605-0.293-0.907-0.433-0.346-0.162-0.681-0.357-1.069-0.433-0.098-0.021-0.184-0.053-0.281-0.086-0.248-0.086-0.486-0.183-0.735-0.259-0.378-0.119-0.745-0.259-1.134-0.357-0.377-0.097-0.766-0.162-1.155-0.216-0.432-0.064-0.874-0.086-1.307-0.129-0.281-0.033-0.562-0.065-0.832-0.076-0.41-0.021-0.832-0.021-1.242-0.032-0.205-0.011-0.421-0.033-0.626-0.022-0.313 0.011-0.626 0.043-0.94 0.086-0.302 0.033-0.605 0.086-0.896 0.13-0.356 0.043-0.712 0.065-1.069 0.108-0.335 0.043-0.681 0.108-1.015 0.163-0.119 0.022-0.238 0.065-0.357 0.086-0.259 0.054-0.529 0.076-0.788 0.163-0.464 0.141-0.929 0.304-1.383 0.476-0.422 0.173-0.832 0.357-1.231 0.573-0.41 0.227-0.8 0.497-1.188 0.757-0.368 0.249-0.735 0.508-1.092 0.789-0.345 0.271-0.669 0.573-0.983 0.876-0.172 0.172-0.313 0.378-0.475 0.573-0.27 0.314-0.54 0.617-0.799 0.941-0.215 0.271-0.41 0.552-0.616 0.833-0.367 0.497-0.68 1.027-0.971 1.557-0.119 0.216-0.227 0.433-0.335 0.649-0.162 0.324-0.335 0.638-0.486 0.974-0.108 0.227-0.195 0.476-0.259 0.725-0.151 0.53-0.302 1.071-0.443 1.601-0.13 0.476-0.162 0.974-0.172 1.461-0.011 0.433 0.032 0.855 0.075 1.287 0.011 0.108-0.053 0.238 0.076 0.324-0.043 0.119-0.011 0.185 0.053 0.205-0.075 0.119 0.033 0.195-0.010 0.304-0.011 0.021 0.033 0.064 0.053 0.097 0 0.033-0.010 0.076 0 0.108 0.012 0.097 0.055 0.195 0.055 0.303 0 0.076 0.064 0.162 0.086 0.238 0.011 0.032 0 0.086-0.022 0.108-0.065 0.076-0.054 0.14 0.043 0.184 0.055 0.14 0.033 0.205 0.022 0.271 0.021 0.097-0.011 0.129 0 0.151 0.086 0.173 0.119 0.368 0.129 0.562 0 0.044 0.022 0.087 0.043 0.141 0.011 0 0 0.205 0 0.205 0.053-0.032 0.097-0.043 0.151-0.064 0.033 0.14 0.065 0.271 0.108 0.39 0.054 0.086 0.054 0.129 0.033 0.14 0.043 0.195 0.064 0.378 0.14 0.562 0-0.205-0.021-0.41-0.053-0.605 0.151 0.054 0.281 0.108 0.367 0.108 0.011-0.033 0.022-0.076 0.033-0.097-0.065-0.064-0.119-0.162-0.184-0.227 0.022 0.086 0 0.119 0 0.152-0.043-0.022-0.097-0.044-0.151-0.066 0.043-0.053 0.086-0.108 0.151-0.172 0-0.098-0.053-0.185-0.205-0.174 0.065-0.021 0.13-0.053 0.205-0.076 0.119-0.064-0.011-0.183-0.011-0.335 0.011-0.183-0.097-0.367-0.13-0.562-0.054-0.303-0.043-0.757-0.076-1.060-0.065-0.054-0.119 0.086-0.13 0.097 0.033 0.259 0.065 0.519 0.086 0.779-0.064-0.216-0.108-0.454-0.162-0.714-0.011 0.076-0.022 0.108-0.022 0.152-0.053 0.053-0.011 0.119 0.022 0.195-0.076-0.033-0.162-0.021-0.162-0.021v0.303c-0.108-0.108-0.14-0.195-0.194-0.271-0.021-0.086-0.033-0.172-0.053-0.259 0.021-0.055 0-0.087 0-0.119-0.012-0.076-0.022-0.163-0.033-0.26 0.011-0.011-0.011-0.172-0.011-0.172 0.086 0.010 0.141 0.021 0.195 0.021-0.108-0.14-0.033-0.227 0.011-0.313 0.022-0.043 0.097-0.053 0.119-0.098 0.086-0.162 0.227-0.291 0.227-0.498 0-0.097 0.033-0.205 0.043-0.303 0.022-0.184 0.043-0.368 0.053-0.552 0.022-0.238 0-0.476 0.055-0.703 0.087-0.378 0.195-0.757 0.314-1.135 0.086-0.271 0.184-0.53 0.291-0.8 0.162-0.422 0.314-0.844 0.519-1.244 0.291-0.585 0.626-1.147 0.951-1.72 0.205-0.357 0.421-0.692 0.649-1.039 0.216-0.335 0.431-0.681 0.68-0.995 0.346-0.443 0.724-0.855 1.145-1.222 0.432-0.389 0.843-0.789 1.307-1.147 0.604-0.466 1.242-0.877 1.922-1.234 0.551-0.291 1.124-0.52 1.696-0.736 0.367-0.14 0.767-0.205 1.145-0.324 0.432-0.141 0.864-0.205 1.318-0.216 0.291-0.011 0.573-0.044 0.864-0.076 0.259-0.021 0.518-0.043 0.8-0.075-0.033 0.043-0.043 0.065-0.054 0.086-0.118 0.173-0.248 0.346-0.367 0.519-0.097 0.141-0.205 0.292-0.303 0.433-0.173 0.228-0.357 0.455-0.519 0.693-0.248 0.357-0.475 0.725-0.735 1.082-0.259 0.346-0.54 0.671-0.81 1.006-0.356 0.466-0.691 0.941-1.048 1.406-0.324 0.443-0.669 0.866-0.983 1.309-0.281 0.389-0.53 0.8-0.8 1.2-0.399 0.595-0.799 1.179-1.199 1.774-0.314 0.454-0.627 0.898-0.951 1.352-0.022 0.033-0.054 0.043-0.086 0.064-0.086 0.14-0.086 0.216-0.119 0.281-0.086 0.162-0.172 0.324-0.27 0.476-0.054 0.086-0.13 0.162-0.195 0.248-0.011-0.13 0.172-0.195 0.086-0.357-0.053 0.087-0.108 0.163-0.162 0.249l-0.13 0.259c0.043 0.033 0.119 0.055 0.043 0.119-0.033 0.055-0.065 0.119-0.097 0.174 0.054-0.033 0.086-0.065 0.119-0.108 0 0.119-0.065 0.216-0.119 0.313-0.043 0.086-0.151 0.152-0.227 0.216 0.011 0.011 0.086 0.043 0.097 0.054 0.097-0.033 0.13-0.086 0.141-0.054 0.033-0.043 0.065-0.076 0.076-0.108 0.043-0.108 0.108-0.195 0.215-0.238 0.043-0.022 0.076-0.054 0.108-0.086 0.324-0.336 0.659-0.66 0.951-1.017 0.454-0.552 0.865-1.125 1.297-1.687 0.183-0.238 0.399-0.476 0.594-0.704 0.032 0.249 0.011 0.486 0 0.714-0.033 0.4-0.054 0.8-0.086 1.211-0.011 0.162 0 0.324-0.011 0.487 0 0.043-0.033 0.076-0.033 0.119 0 0.108 0.033 0.227 0.033 0.335-0.033 0.4-0.076 0.789-0.109 1.19-0.011 0.086 0.032 0.173 0.053 0.249-0.053 0.584 0.066 1.201-0.032 1.817 0.076-0.119 0.097-0.195 0.097-0.27 0.010-0.065 0-0.13 0-0.205v-0.108c0.010-0.195 0.053-0.4 0.032-0.595-0.022-0.216-0.022-0.422 0.022-0.627 0.022-0.086-0.011-0.195 0.043-0.303v0.162c-0.011 0.616 0.011 1.233-0.075 1.849-0.011 0.054 0.033 0.152-0.086 0.141-0.098 0.195 0.021 0.335-0.086 0.443-0.022 0.022 0.021 0.119 0.032 0.184-0.043 0.13-0.043 0.13 0.021 0.141 0.011 0.238 0.033 0.454 0.043 0.681 0.172-0.41 0.086-0.833 0.163-1.255 0.011 0.173 0.022 0.346 0.011 0.53 0 0.282-0.011 0.552-0.021 0.833 0 0.054-0.011 0.108-0.022 0.163-0.033 0.152-0.043 0.303-0.097 0.443-0.043 0.108-0.021 0.271-0.021 0.4v0.412c0.043 0.184-0.011 0.281 0.021 0.389-0.033 0.109-0.043 0.141-0.033 0.174l0.033 0.162c0.216-0.022 0.119 0.141 0.205 0.227-0.065 0.087-0.043 0.119-0.043 0.163 0 0.097-0.010 0.184-0.021 0.281 0 0.249-0.011 0.498-0.011 0.736 0 0.033 0.011 0.064 0.011 0.097 0 0.022-0.011 0.304-0.011 0.304 0.022 0.032 0 0.064-0.033 0.097-0.010 0-0.043-1.374-0.043-1.374h-0.162c-0.021 0.649 0.033 1.233-0.086 1.839-0.13 0.010-0.172 0.032-0.314 0.032-0.335 0-0.67 0-1.005 0.011-0.4 0-0.788 0.011-1.188 0.011-0.194 0-0.399 0.022-0.594 0.022-0.259 0-0.53-0.033-0.788-0.033-0.4 0-0.789 0.033-1.189 0.044-0.291 0.011-0.583 0.011-0.874 0.022-0.195 0.010-0.39 0.021-0.584 0.043-0.086 0.011-0.162 0.043-0.27 0.076-0.033 0-0.108-0.011-0.172 0-0.109 0.022-0.205 0.086-0.314 0.108-0.162 0.033-0.205 0.076-0.184 0.238v0.108c-0.011 0.021 0.238-0.033 0.238-0.033-0.022 0-0.033 0.065-0.066 0.119 0.087-0.033 0.141-0.054 0.195-0.076 0.162 0.076 0.303 0.033 0.432 0.066 0.421 0.108 0.853 0.152 1.285 0.194 0.281 0.022 0.551 0.033 0.832 0.043 0.399 0.022 0.799 0.044 1.199 0.044 0.335 0 0.659-0.033 0.993-0.033 0.464 0 0.929 0.021 1.394 0.033 0.097 0 0.205-0.012 0.313-0.012h0.788c0.703-0.021 1.405-0.033 2.107-0.053 0.4-0.012 0.811-0.033 1.21-0.044l1.231-0.033c0.475-0.011 0.951-0.011 1.415-0.021 0.356 0 0.702-0.012 1.059-0.023 0.399-0.011 0.809-0.043 1.209-0.064 0.216-0.011 0.433-0.033 0.649-0.054 0.259-0.021 0.53-0.053 0.788-0.064 0.389-0.022 0.789-0.033 1.178-0.055 0.486-0.032 0.972-0.075 1.469-0.086 0.454-0.021 0.918-0.011 1.372-0.021 0.4-0.011 0.8-0.033 1.21-0.044l0.681-0.033s0.453-0.011 0.68-0.033c0.389-0.021 0.777-0.064 1.167-0.075 0.248-0.011 0.497 0 0.745-0.011 0.399-0.011 0.81-0.033 1.21-0.033 0.151 0 0.313 0.022 0.507 0.033-0.086 0.076-0.14 0.119-0.205 0.173 0.043 0.011 0.086 0.033 0.13 0.054-0.065 0.043-0.119 0.053-0.172 0.053-0.022 0.055-0.044 0.076-0.066 0.185h0.195c-0.076 0-0.14 0.097-0.216 0.162-0.086-0.022-0.162 0-0.205 0.119 0.076 0.043 0.065 0.075 0.054 0.119-0.13 0.043-0.227 0.086-0.172 0.227-0.044 0.021-0.098 0.043-0.152 0.076-0.053 0.086-0.151 0.108-0.13 0.227 0.044 0.010 0.086 0.033 0.119 0.043-0.054 0.022-0.108 0.054-0.162 0.076-0.194 0.119-0.108 0.173-0.064 0.227-0.033 0.022-0.065 0.043-0.097 0.054 0.021 0.097 0.053 0.119 0.064 0.119-0.043 0.032-0.097 0.076-0.162 0.13-0.033 0.097-0.076 0.14-0.119 0.205s-0.065 0.152-0.119 0.216c-0.227 0.249-0.389 0.542-0.68 0.736-0.108 0.076-0.205 0.173-0.303 0.271-0.195 0.183-0.367 0.389-0.573 0.562-0.27 0.227-0.55 0.432-0.842 0.638-0.356 0.249-0.712 0.498-1.069 0.736-0.195 0.129-0.41 0.227-0.616 0.346s-0.4 0.227-0.605 0.346c-0.13 0.086-0.249 0.205-0.389 0.271-0.356 0.152-0.735 0.281-1.102 0.422-0.357 0.152-0.616 0.281-0.886 0.378-0.248 0.086-0.508 0.152-0.767 0.205-0.086 0.022-0.184 0-0.281 0.011-0.184 0.033-0.367 0.076-0.551 0.098-0.475 0.065-0.951 0.108-1.426 0.173-0.281 0.033-0.551 0.086-0.832 0.119-0.194 0.011-0.399-0.011-0.594-0.011-0.14 0-0.291 0.033-0.432 0.011-0.227-0.033-0.454-0.086-0.681-0.13-0.053-0.011-0.13-0.033-0.172-0.011-0.086 0.044-0.163-0.021-0.249 0-0.053 0.011-0.108-0.033-0.162-0.033-0.043-0.010-0.098 0.011-0.152 0-0.119-0.032-0.227-0.075-0.357-0.064-0.129 0.011-0.259-0.054-0.398-0.086-0.195-0.044-0.378-0.086-0.573-0.13-0.075-0.022-0.14-0.054-0.216-0.097-0.281 0-0.465-0.011-0.638-0.076-0.151-0.053-0.291-0.129-0.454-0.108-0.043 0.011-0.075-0.011-0.119-0.011-0.033-0.044-0.064-0.13-0.096-0.13-0.216 0.011-0.346-0.172-0.53-0.227-0.097-0.033-0.172-0.141-0.27-0.173-0.238-0.097-0.432-0.303-0.702-0.335-0.086-0.011-0.172-0.054-0.27-0.086 0.033 0.043 0.053 0.075 0.086 0.108-0.313-0.152-0.605-0.324-0.897-0.487-0.043-0.011-0.075-0.053-0.108-0.076l-0.291-0.195c-0.162 0.033-0.227-0.033-0.271-0.054-0.291-0.205-0.626-0.335-0.907-0.562-0.119-0.098-0.259-0.163-0.345-0.282-0.152-0.184-0.335-0.314-0.541-0.422-0.162-0.086-0.313-0.184-0.464-0.281-0.076-0.054-0.152-0.119-0.152-0.238 0-0.076-0.032-0.152-0.129-0.108-0.043-0.065-0.086-0.14-0.14-0.162-0.13-0.053-0.216-0.152-0.313-0.238s-0.172-0.205-0.291-0.248c-0.216-0.086-0.346-0.27-0.475-0.422-0.303-0.357-0.573-0.747-0.854-1.125-0.022-0.033-0.065-0.055-0.097-0.087 0.043 0.119 0.097 0.216 0.151 0.324-0.108-0.043-0.183-0.119-0.248-0.195-0.011 0.011 0.745 1.255 0.745 1.255 0.066 0.097 0.119 0.195 0.184 0.292-0.162 0.011-0.27-0.076-0.324-0.173-0.097-0.172-0.205-0.281-0.421-0.259-0.021-0.076-0.043-0.163-0.053-0.238-0.044 0-0.076 0-0.152-0.011 0.152 0.238 0.281 0.443 0.422 0.681-0.055-0.033-0.086-0.054-0.109-0.065 0.194 0.205 0.335 0.465 0.583 0.595 0.054 0.248 0.335 0.367 0.4 0.605-0.053-0.011-0.098-0.022-0.152-0.033-0.086-0.108-0.183-0.216-0.28-0.335 0.021 0.076 0.053 0.14 0.097 0.195 0.13 0.162 0.249 0.324 0.4 0.465 0.054 0.055 0.13 0.077 0.13 0.174 0.086 0.043 0.119 0.053 0.151 0.053 0.022 0.066-0.010 0.163 0.119 0.141 0.086 0.162 0.172 0.162 0.291 0.108 0.141 0.141 0.217 0.152 0.314 0.066 0 0.053 0.011 0.108 0.011 0.151 0.043-0.022 0.033-0.054 0.033-0.108 0.053 0.043 0.086 0.065 0.108 0.086 0.108 0.152 0.205 0.292 0.356 0.411 0.205 0.173 0.389 0.357 0.583 0.519 0.378 0.314 0.8 0.574 1.221 0.812 0.519 0.292 1.016 0.606 1.545 0.887 0.637 0.336 1.318 0.563 2.020 0.725 0.259 0.054 0.508 0.108 0.768 0.172 0.226 0.066 0.453 0.163 0.68 0.217 0.346 0.076 0.702 0.141 1.048 0.205 0.075 0.011 0.152 0.022 0.238 0.033 0.096 0.022 0.215-0.022 0.237 0.011 0.054 0.086 0.097 0.043 0.162 0.032 0.076-0.022 0.162-0.022 0.248-0.022 0.303 0.011 0.594 0.076 0.897 0.054 0.066 0 0.163-0.055 0.217 0.053 0.097-0.043 0.151-0.043 0.194-0.053 0.012 0.097 0 0.097-0.021 0.108-0.022 0.011-0.055 0.022-0.098 0.054 0.389 0.076 0.756 0.086 1.080 0 0.562 0.043 1.048-0.022 1.513-0.184 0.043 0.054 0.076 0.13 0.14 0.022 0.021-0.033 0.076-0.044 0.119-0.055 0.097-0.022 0.216-0.065 0.302-0.033 0.098 0.033 0.13-0.053 0.205-0.053 0.13 0 0.249-0.011 0.368-0.033 0.065-0.011 0.13-0.043 0.205-0.065-0.086-0.044-0.172-0.055-0.238-0.055 0.13-0.065 0.249-0.119 0.368-0.172-0.022 0.032-0.044 0.075-0.086 0.075h0.151c-0.033 0-0.076 0.097-0.13 0.162 0.388-0.097 0.745-0.184 1.091-0.271-0.119-0.227 0.129-0.151 0.216-0.281-0.108 0.033-0.216 0.065-0.324 0.086 0.367-0.183 0.745-0.346 1.112-0.508-0.053 0.065-0.119 0.097-0.215 0.152 0.065 0.010 0.108 0.010 0.14 0.021 0.172 0.055 0.13-0.108 0.183-0.205 0.205 0 0.291-0.032 0.389-0.065 0.108-0.033 0.216-0.065 0.324-0.108 0.172-0.076 0.335-0.172 0.507-0.259 0.033-0.011 0.086 0 0.13 0 0.119-0.076 0.162-0.141 0.194-0.131 0.152 0.022 0.259-0.033 0.302-0.172 0.076-0.055 0.13-0.098 0.183-0.131 0.237-0.13 0.464-0.259 0.702-0.389 0.086 0 0.13 0 0.151-0.011 0.141-0.066 0.271-0.14 0.4-0.216-0.033-0.011-0.108-0.053-0.108-0.053 0.108-0.022 0.14-0.033 0.205-0.055 0.259-0.304 0.616-0.509 0.885-0.747 0.119-0.011 0.119-0.043 0.119-0.064 0.043-0.054 0.086-0.119 0.14-0.163 0.238-0.216 0.497-0.4 0.713-0.627 0.313-0.314 0.616-0.639 0.897-0.974 0.259-0.303 0.519-0.605 0.735-0.941 0.303-0.465 0.562-0.941 0.832-1.429 0.195-0.346 0.367-0.692 0.562-1.038 0.021-0.033 0.064-0.076 0.097-0.076 0.291-0.033 0.584-0.053 0.864-0.086 0.065-0.011 0.14-0.053 0.205-0.086-0.033-0.054-0.054-0.119-0.086-0.173-0.044-0.066-0.108-0.119-0.152-0.185-0.043-0.053-0.075-0.119-0.108-0.183-0.033-0.053-0.065-0.097-0.097-0.152-0.066-0.119-0.13-0.238-0.185-0.367-0.011-0.033-0.033-0.086-0.021-0.119 0.195-0.422 0.27-0.876 0.454-1.298 0.183-0.433 0.238-0.919 0.324-1.385 0.076-0.443 0.119-0.887 0.172-1.33 0.033-0.314 0.076-0.617 0.086-0.93 0.066-0.498 0.044-0.963 0.033-1.429-0.011-0.411-0.033-0.832-0.053-1.244zM4.83 27.235c-0.076-0.086-0.14-0.184-0.216-0.27l0.033-0.033c0.118 0.13 0.237 0.26 0.356 0.401-0.065-0.033-0.14-0.054-0.172-0.098zM5.002 27.333c0.033-0.011 0.066-0.011 0.098-0.022 0.033 0.054 0.054 0.119 0.086 0.184-0.151-0.011-0.227-0.076-0.184-0.162zM16.238 31.8v-0.033c0.205-0.021 0.399-0.043 0.605-0.064v0.032c-0.205 0.033-0.399 0.053-0.605 0.065zM18.959 31.519c-0.151 0.033-0.313 0.055-0.464 0.076-0.054 0.011-0.119 0.065-0.14-0.033-0.022 0.011-0.044 0.011-0.065 0.022 0.053 0.162 0.183 0.032 0.291 0.097-0.238 0.033-0.464 0.054-0.691 0.086v-0.021c0.066-0.011 0.141-0.022 0.205-0.033v-0.032c-0.108-0.011-0.215-0.022-0.324-0.022-0.032 0-0.075 0.044-0.108 0.054-0.043 0.011-0.086 0.022-0.14 0.022-0.183 0.011-0.367 0.011-0.54 0.021-0.011 0-0.033-0.011-0.044-0.011v-0.033c0.724-0.097 1.437-0.194 2.16-0.291 0.011 0.021 0.011 0.043 0.022 0.064-0.065 0-0.108 0.023-0.162 0.033zM19.122 31.411c0.249-0.033 0.476-0.054 0.713-0.086-0.497 0.14-0.659 0.162-0.713 0.086zM9.713 9.571c0.345-0.476 0.702-0.952 1.048-1.439 0.108-0.142 0.194-0.293 0.302-0.433 0.033-0.043 0.076-0.065 0.13-0.108l-0.011-0.021c0.043-0.055 0.086-0.099 0.108-0.141 0.055-0.086 0.087-0.184 0.131-0.281 0.011-0.021 0.043-0.042 0.043-0.042 0.152 0.076 0.152-0.086 0.205-0.141 0.097-0.108 0.195-0.227 0.281-0.335 0.065-0.086 0.13-0.162 0.184-0.259 0.011-0.033-0.022-0.086-0.033-0.13h-0.032c0.033-0.021 0.065-0.053 0.097-0.076 0.011 0 0.011 0 0.021-0.011 0.065-0.098 0.13-0.195 0.195-0.282 0.129-0.172 0.27-0.346 0.421-0.497-0.021 0.053-0.043 0.108-0.065 0.151 0.011 0 0.011 0.011 0.022 0.011 0.13-0.173 0.27-0.335 0.4-0.509-0.011-0.010-0.022-0.021-0.033-0.021-0.053 0.054-0.097 0.108-0.151 0.163-0.011-0.011-0.021-0.022-0.033-0.022 0.109-0.141 0.217-0.281 0.324-0.443 0.022 0.033 0.043 0.076 0.086 0.162 0.044-0.108 0.087-0.183 0.119-0.259-0.032 0.033-0.075 0.065-0.108 0.098l-0.033-0.033 0.195-0.291c0.205-0.292 0.411-0.595 0.616-0.888 0.076-0.108 0.172-0.195 0.238-0.303 0.205-0.41 0.53-0.736 0.777-1.114 0.054-0.076 0.13-0.14 0.195-0.205 0.053-0.066 0.097-0.044 0.14 0.011 0.291 0.368 0.583 0.746 0.874 1.114 0.217 0.271 0.433 0.53 0.638 0.811 0.248 0.346 0.486 0.693 0.735 1.039 0.281 0.4 0.562 0.8 0.832 1.211 0.41 0.606 0.799 1.212 1.21 1.818 0.303 0.443 0.605 0.876 0.897 1.32h-0.552c-0.507-0.010-1.026-0.053-1.534-0.032-0.691 0.033-1.393 0.108-2.084 0.163-0.875 0.076-1.761 0.086-2.636 0.086-0.314 0-0.627 0.044-0.94 0.066-0.378 0.021-0.746 0.043-1.124 0.053-0.443 0.022-0.874 0.033-1.318 0.044-0.249 0.011-0.508 0-0.778 0zM22.103 14.546v0.098c-0.011 0-0.021 0.011-0.043 0.011-0.043-0.152-0.086-0.314-0.14-0.466-0.108-0.314-0.227-0.628-0.422-0.909-0.217-0.303-0.41-0.616-0.627-0.93-0.053-0.076-0.13-0.141-0.195-0.205-0.227-0.249-0.454-0.509-0.745-0.693-0.432-0.271-0.875-0.498-1.351-0.693-0.13-0.053-0.248-0.119-0.378-0.195h0.259l1.847-0.033c0.4-0.010 0.789-0.010 1.188-0.032 0.097 0 0.151 0.033 0.205 0.119 0.097 0.162 0.194 0.324 0.302 0.487 0.011 0.021 0.033 0.053 0.033 0.086 0 0.238 0 0.487 0.011 0.725 0.010 0.249 0.033 0.487 0.043 0.736 0 0.249-0.022 0.508-0.011 0.768 0.011 0.368 0.022 0.747 0.022 1.125zM10.479 10.924c0.508-0.022 0.993-0.054 1.491-0.076 0.388-0.022 0.788-0.033 1.176-0.054 0.162-0.010 0.314-0.021 0.475 0-0.172 0.087-0.346 0.174-0.497 0.282-0.195 0.13-0.378 0.303-0.573 0.443s-0.368 0.314-0.53 0.498c-0.205 0.248-0.432 0.465-0.649 0.703-0.152 0.173-0.324 0.335-0.454 0.519-0.184 0.238-0.346 0.497-0.518 0.768 0.054-1.028 0.119-2.044 0.076-3.083zM17.533 21.33c-0.346 0.086-0.702 0.184-1.059 0.227-0.302 0.044-0.616 0.033-0.929 0.033-0.282 0-0.552-0.011-0.832-0.033-0.313-0.032-0.626-0.064-0.929-0.205-0.26-0.119-0.53-0.227-0.788-0.357-0.26-0.13-0.519-0.281-0.714-0.519-0.14-0.174-0.335-0.314-0.507-0.465 0.033 0.13 0.108 0.238 0.227 0.314-0.054 0.065-0.13 0.033-0.238-0.141-0.032 0.022-0.064 0.033-0.086 0.044 0.033-0.076 0.065-0.152 0.097-0.216-0.043-0.086-0.097-0.184-0.14-0.271-0.086-0.14-0.172-0.291-0.248-0.432-0.022-0.033-0.022-0.065-0.043-0.097-0.054-0.065-0.108-0.13-0.152-0.195-0.086-0.129-0.162-0.27-0.27-0.4 0 0.033 0.011 0.065 0.011 0.108-0.011 0-0.022 0.011-0.022 0.011l-0.227-0.552c-0.011 0-0.011 0-0.021 0.011l0.194 0.714c-0.011 0-0.021 0.010-0.033 0.010-0.032-0.043-0.064-0.086-0.086-0.14-0.021-0.087-0.086-0.087-0.14-0.055-0.033 0.022-0.055 0.097-0.043 0.13 0.076 0.184 0.162 0.368 0.249 0.552 0.021 0.065 0.043 0.119 0.076 0.184 0.011 0.022 0.043 0.043 0.043 0.076 0.043 0.086 0.076 0.172 0.13 0.249 0.097 0.13 0.205 0.259 0.303 0.389s0.183 0.271 0.269 0.4c0.011 0.022 0.043 0.022 0.053 0.033 0.055 0.162 0.238 0.281 0.368 0.216 0.033 0.249 0.303 0.335 0.411 0.573-0.13-0.054-0.227-0.097-0.313-0.141-0.011 0.011-0.011 0.021-0.022 0.043 0.13 0.065 0.259 0.13 0.378 0.205 0.109 0.066 0.217 0.13 0.314 0.205 0.13 0.119 0.281 0.185 0.464 0.227-0.010-0.033-0.021-0.044-0.021-0.044 0.302 0.141 0.616 0.292 0.853 0.41-1.124 0.022-2.323 0.044-3.565 0.066 0-0.205-0.011-0.4-0.011-0.606 0-0.086 0.021-0.162 0.010-0.249-0.033-0.497-0.033-0.995-0.097-1.482-0.064-0.519-0.064-1.027-0.053-1.548 0.010-0.28-0.011-0.572-0.022-0.854 0-0.378 0-0.747 0.011-1.125 0-0.054 0.022-0.097 0.043-0.152h0.033c0.010 0.022 0 0.055 0.021 0.066 0.033 0.033 0.087 0.086 0.109 0.076 0.064-0.044 0.162-0.086 0.184-0.152 0.053-0.129 0.076-0.27 0.076-0.4 0-0.097 0.043-0.162 0.086-0.227 0.022-0.033 0.033-0.065 0.055-0.108-0.043-0.033-0.086-0.054-0.14-0.097 0.043-0.119 0.033-0.26 0.195-0.324 0.021-0.011 0.021-0.066 0.033-0.098 0.010-0.087 0.021-0.185 0.032-0.271 0.021 0.033 0.033 0.043 0.053 0.064 0.011-0.021 0.022-0.033 0.022-0.033 0-0.043-0.011-0.129 0-0.129 0.13-0.022 0.076-0.162 0.14-0.227 0.010-0.011-0.011-0.044-0.011-0.066s0-0.053 0.011-0.053c0.151-0.033 0.129-0.195 0.227-0.271 0.033-0.022 0.043-0.053 0.086-0.108 0.086 0.151-0.065 0.227-0.076 0.335 0.183-0.108 0.237-0.367 0.129-0.443 0.043-0.033 0.086-0.076 0.119-0.119 0.119-0.13 0.248-0.249 0.356-0.378 0.076-0.097 0.119-0.216 0.195-0.313 0.043-0.054 0.13-0.097 0.195-0.13 0.195-0.108 0.378-0.227 0.497-0.411 0.022-0.022 0.054-0.043 0.086-0.065s0.098-0.022 0.108-0.054c0.011-0.021-0.021-0.076-0.043-0.108 0.043-0.022 0.086-0.065 0.172-0.108-0.033 0.065-0.043 0.108-0.065 0.152l0.053 0.053c0.098-0.076 0.249-0.162 0.346-0.227 0-0.010-0.054-0.053-0.054-0.053-0.064 0.033-0.162 0.086-0.259 0.13 0.021-0.033 0.021-0.054 0.033-0.065 0.151-0.097 0.302-0.195 0.464-0.271 0.378-0.172 0.756-0.346 1.134-0.508 0.065-0.033 0.152-0.011 0.227-0.011 0.032 0 0.053 0 0.086-0.011 0.172-0.054 0.346-0.108 0.518-0.152 0.075-0.021 0.161-0.032 0.238-0.032 0.323 0.010 0.647 0.010 0.971 0.032 0.14 0.011 0.27 0.043 0.4 0.086 0.162 0.055 0.335 0.13 0.486 0.205 0.183 0.099 0.356 0.206 0.53 0.325 0.313 0.205 0.605 0.433 0.918 0.617 0.303 0.184 0.54 0.433 0.735 0.714 0.238 0.335 0.508 0.638 0.616 1.049l0.162 0.714c0.033 0.13 0.108 0.259 0.076 0.411-0.055 0.271-0.098 0.552-0.141 0.823-0.021 0.109-0.043 0.218-0.032 0.324 0.021 0.337-0.109 0.628-0.238 0.931-0.044 0.097-0.108 0.195-0.162 0.303 0.011 0.011 0.076 0.044 0.086 0.044l0.097-0.195c0.011 0 0.011 0 0.022 0.011-0.054 0.151-0.097 0.314-0.152 0.465-0.129 0.335-0.259 0.681-0.421 1.006-0.086 0.184-0.238 0.335-0.346 0.509-0.108 0.151-0.194 0.313-0.302 0.454-0.097 0.119-0.194 0.238-0.324 0.324-0.291 0.216-0.594 0.433-0.907 0.606-0.194 0.119-0.421 0.184-0.637 0.238zM11.775 20.756l-0.011 0.011c-0.023-0.011-0.055-0.021-0.076-0.043l-0.259-0.39c-0.021-0.032-0.033-0.064-0.021-0.108 0.119 0.184 0.238 0.357 0.367 0.53zM18.495 22.237c0.486-0.205 0.885-0.497 1.252-0.832 0.055-0.054 0.108-0.108 0.173-0.152 0.454-0.281 0.788-0.67 1.091-1.103 0.346-0.498 0.573-1.060 0.854-1.59 0.021-0.044 0.043-0.086 0.064-0.119-0.022 1.233 0.119 2.445 0.281 3.667-1.22 0.043-2.463 0.086-3.716 0.13zM29.448 21.913c-0.011 0.022-0.033 0.044-0.043 0.066-0.011-0.022-0.011-0.055-0.022-0.099-0.065 0.174-0.205 0.087-0.303 0.087-0.583 0.011-1.177 0.011-1.761 0.011-0.562 0-1.134 0-1.695 0.010-0.184 0-0.378 0.043-0.562 0.054-0.443 0.021-0.885 0.033-1.328 0.043-0.033 0-0.065-0.053-0.119-0.097-0.011 0.022-0.033 0.054-0.065 0.097-0.012-0.021-0.033-0.043-0.055-0.075-0.011 0.033-0.022 0.065-0.033 0.086h-0.031c-0.022-0.151-0.065-0.291-0.065-0.443 0-0.324 0.033-0.649 0.043-0.974 0.011-0.151 0-0.291 0-0.433 0.044 0.033 0.076 0.055 0.119 0.086 0.021-0.042 0.043-0.075 0.065-0.107 0 0-0.022-0.012-0.044-0.033 0.021-0.011 0.043-0.033 0.043-0.044 0.011-0.033 0.033-0.065 0.033-0.086 0-0.076-0.022-0.141-0.033-0.205 0.011 0 0.021 0 0.033-0.012l0.064 0.324h0.033c-0.044-0.075 0.097-0.14-0.022-0.227-0.011-0.011 0.011-0.076 0.011-0.108-0.033-0.064-0.053-0.129-0.086-0.216 0.011-0.011 0.043-0.022 0.076-0.033-0.043-0.021-0.076-0.043-0.108-0.053 0.108-0.098 0.108-0.152 0.011-0.26 0.022-0.010 0.044-0.010 0.044-0.021 0-0.098 0-0.195-0.021-0.291-0.022-0.109 0.033-0.238-0.13-0.304 0.011 0.033 0.022 0.054 0.043 0.086 0 0-0.033 0.011-0.065 0.033-0.14-0.13-0.053-0.304-0.086-0.498 0.076 0.022 0.13 0.044 0.183 0.066-0.022-0.076-0.076-0.163-0.108-0.26h-0.044v-0.714c0 0.011 0.076 0.011 0.119 0.022 0-0.011 0.010-0.022 0.010-0.033-0.033-0.043-0.076-0.086-0.119-0.14l0.022-0.022c-0.086-0.108-0.043-0.259-0.043-0.291v-0.757c0.108 0.108-0.053 0.249 0.108 0.314v-0.108h-0.011c-0.011-0.162-0.011-0.324-0.021-0.487h-0.021c-0.011 0.022-0.011 0.033-0.022 0.055h-0.021l0.065-2.585c0.108 0.14 0.227 0.271 0.302 0.411 0.249 0.455 0.573 0.844 0.875 1.255 0.259 0.357 0.497 0.746 0.735 1.114 0.291 0.443 0.572 0.887 0.864 1.33 0.216 0.336 0.443 0.671 0.669 0.996 0.205 0.291 0.422 0.573 0.638 0.855 0.183 0.249 0.378 0.498 0.561 0.746 0.216 0.303 0.432 0.605 0.649 0.898 0.108 0.151 0.227 0.303 0.345 0.454 0.066 0.086 0.163 0.152 0.227 0.205-0.010 0-0.021 0-0.043-0.011 0.033 0.043 0.053 0.076 0.076 0.097 0.119 0.065 0.13 0.13 0.065 0.227zM29.999 19.21v-0.076c0 0.021 0.011 0.053 0 0.076zM30.367 14.44c-0.011 0-0.076-0.066-0.086-0.076-0.011 0.033 0 0.065-0.022 0.108-0.011-0.032-0.086-0.021-0.086-0.053-0.011 0.151 0.064 0.303 0.053 0.454 0.033-0.022 0.162-0.033 0.195-0.065 0.011 0.011 0.033 0.021 0.044 0.021-0.216 0.163-0.162 0.324-0.065 0.509 0.021 0.043 0.086 0.129 0.021 0.216-0.021 0.022 0.011 0.086 0.022 0.141h0.032v0.021l-0.097 0.033c-0.021-0.033-0.151-0.097-0.151-0.152v0.553c0.108 0.033 0.108 0.184 0.151 0.26 0.023-0.033 0.033-0.055 0.044-0.086l0.011 0.010c-0.011 0.065-0.022 0.13-0.044 0.195-0.021 0.097-0.043 0.183-0.053 0.281 0 0.011 0.021 0.033 0.021 0.043-0.118 0.271-0.053 0.573-0.096 0.854-0.033 0.205 0 0.423-0.022 0.639-0.022 0.184-0.066 0.378-0.108 0.562-0.011 0.033-0.033 0.043-0.086 0.065 0.021-0.13 0.011-0.216-0.011-0.335-0.011 0-0.152-0.076-0.163-0.076 0 0.152 0.086 0.357 0.119 0.53-0.033-0.011-0.162-0.086-0.172-0.086-0.022 0.13-0.022 0.303-0.033 0.443-0.011 0.108-0.108 0.205-0.119 0.324 0 0.066 0.076 0.108 0.065 0.217h0.086c0-0.216 0.098-0.41 0.098-0.638h0.032c0.011 0.022 0.044 0.044 0.033 0.054-0.022 0.119-0.066 0.249-0.054 0.368 0 0.065 0.053 0.13 0.033 0.205-0.022 0.066-0.033 0.13-0.044 0.227-0.011-0.054-0.022-0.076-0.022-0.108-0.011 0-0.108-0.011-0.119-0.011-0.011 0.065 0.076 0.13 0.065 0.184-0.011 0.011-0.021 0.011-0.043 0.022l-0.356-0.52c-0.282-0.41-0.562-0.822-0.843-1.244-0.076-0.108-0.141-0.216-0.195-0.324-0.335-0.574-0.702-1.126-1.112-1.656-0.313-0.4-0.562-0.833-0.854-1.254-0.269-0.4-0.539-0.79-0.809-1.19-0.097-0.129-0.216-0.248-0.303-0.389-0.28-0.443-0.53-0.898-0.809-1.341-0.238-0.368-0.497-0.725-0.745-1.082-0.086-0.119-0.172-0.249-0.259-0.379-0.011-0.021-0.021-0.042-0.021-0.075-0.022-0.238-0.044-0.476-0.054-0.703 0-0.216 0.022-0.433 0.022-0.66v-0.195c0-0.054 0.010-0.097 0.010-0.152 0.010-0.010 0.021-0.032 0.032-0.043-0.313 0-0.637-0.011-0.951 0-0.205 0.010-0.313-0.076-0.454-0.228-0.41-0.465-0.713-0.995-1.069-1.493-0.335-0.476-0.681-0.942-1.026-1.407-0.281-0.378-0.562-0.746-0.843-1.125-0.314-0.433-0.616-0.865-0.94-1.298-0.389-0.519-0.789-1.039-1.188-1.557-0.185-0.238-0.39-0.465-0.595-0.714 0.141 0.022 0.271 0.044 0.4 0.055l0.519 0.033c0.389 0.032 0.777 0.053 1.166 0.107 0.324 0.044 0.649 0.109 0.984 0.163 0.713 0.119 1.415 0.314 2.096 0.541 0.4 0.13 0.788 0.303 1.178 0.465 0.874 0.357 1.706 0.79 2.527 1.244 0.259 0.141 0.41 0.368 0.604 0.573 0.281 0.292 0.562 0.584 0.832 0.887 0.313 0.357 0.604 0.725 0.907 1.093 0.27 0.324 0.55 0.649 0.821 0.974 0.086 0.097 0.152 0.216 0.227 0.324 0.172 0.26 0.367 0.509 0.518 0.79 0.108 0.206 0.172 0.444 0.248 0.671 0.108 0.335 0.216 0.66 0.324 0.995 0.075 0.249 0.14 0.509 0.194 0.768 0.044 0.174 0.033 0.357 0.086 0.53 0.066 0.228 0 0.476 0.066 0.704 0.010 0.022 0.021 0.054 0.032 0.076 0.043 0.043 0.076 0.086 0.011 0.151-0.010 0.011-0.010 0.053 0 0.086 0.022-0.021 0.033-0.043 0.055-0.076 0 0.022 0.010 0.033 0.010 0.043 0 0.043-0.011 0.086 0 0.129 0 0.021 0.021 0.053 0.032 0.076 0.022-0.022 0.043-0.033 0.086-0.066 0.097 0.368 0.108 0.736 0.108 1.114 0 0.357 0.064 0.714-0.086 1.060 0.032-0.119-0.044-0.228-0.011-0.336z"></path>
<path fill="#dd3735" d="M26.085 12.607c0.010 0 0.021 0.011 0.021 0.011l-0.011-0.012c0-0.010 0-0.010-0.011 0zM27.791 23.294c-0.119 0.086-0.238 0.162-0.389 0.195-0.011-0.011-0.011-0.022-0.022-0.033 0.119-0.076 0.248-0.151 0.367-0.227 0.011 0.021 0.033 0.043 0.044 0.064zM7.537 8.636c0.119-0.151 0.238-0.302 0.367-0.454 0.010 0.011 0.096 0.033 0.108 0.043-0.119 0.152-0.281 0.357-0.4 0.519-0.022-0.022-0.055-0.097-0.076-0.108zM4.468 13.938c-0.086-0.184-0.172-0.379-0.259-0.562 0.011-0.011 0.086-0.043 0.097-0.043 0.119 0.172 0.172 0.378 0.259 0.562 0 0-0.086 0.043-0.097 0.043zM7.224 8.745c-0.065 0.098-0.13 0.206-0.195 0.304-0.011-0.011-0.13 0.043-0.14 0.032 0.065-0.097 0.227-0.271 0.291-0.368 0.011 0.011 0.022 0.022 0.043 0.033zM26.636 23.738c0.010 0 0.010-0.011 0.021-0.011 0.076 0.011 0.162 0.021 0.248 0.021-0.141 0.097-0.228 0.086-0.271-0.011zM7.244 9.2c0.011-0.033 0.033-0.065 0.055-0.097 0.021 0 0.053-0.011 0.053-0.011 0.044-0.076 0.044-0.13 0.087-0.195-0.011-0.011-0.022-0.011-0.033-0.022-0.064 0.044-0.129 0.099-0.194 0.142 0.022 0.021 0.022 0.033 0.022 0.054-0.086-0.011-0.119 0.033-0.162 0.151-0.011 0.033-0.065 0.043-0.119 0.086-0.011 0.022-0.021 0.076-0.043 0.13l0.011 0.011c-0.022 0.022-0.054 0.033-0.054 0.033-0.065 0.064-0.14 0.119-0.205 0.184-0.011 0.033-0.021 0.065-0.021 0.097 0.076-0.076 0.205-0.216 0.303-0.303l0.011 0.011c0.043-0.065 0.076-0.13 0.119-0.195 0.010 0.011 0.010 0.021 0.021 0.033-0.033 0.086-0.065 0.183-0.097 0.27-0.023 0.011-0.055 0.033-0.055 0.022-0.043 0.033-0.076 0.076-0.119 0.108l-0.194 0.13c-0.108 0.097-0.216 0.184-0.335 0.281-0.076 0.119-0.151 0.227-0.238 0.368 0.13-0.033 0.163 0.022 0.152 0.13 0.151 0.021 0.162-0.097 0.205-0.184 0.011-0.022 0.022-0.066 0.043-0.076 0.097-0.086 0.205-0.162 0.313-0.248 0.022-0.022 0.022-0.066 0.022-0.098 0-0.011-0.055-0.011-0.087-0.022 0.097-0.108 0.238-0.291 0.335-0.411 0.054-0.033 0.108-0.076 0.108-0.109-0.011-0.119 0.065-0.151 0.152-0.195-0.043-0.033-0.055-0.064-0.055-0.075z"></path>
<path fill="#dd3735" d="M7.466 13.517c-0.043 0.076-0.086 0.14-0.129 0.216l-0.065-0.033c-0.043 0.248-0.195 0.465-0.346 0.508 0.043 0.022 0.086 0.043 0.119 0.033s0.053-0.066 0.075-0.098l0.291-0.422 0.098-0.163-0.043-0.043zM3.869 18.265c0.054 0 0.108 0.011 0.172 0.011 0-0.043 0.055-0.033 0.055-0.076h0.033c0 0.054 0.011 0.097 0.011 0.152h-0.227c-0.011-0.011-0.054-0.076-0.043-0.087zM3.783 17.768c-0.033-0.033-0.086-0.065-0.086-0.097-0.011-0.043 0.021-0.096 0.053-0.151 0.022 0.076 0.033 0.14 0.054 0.216-0.011 0.010-0.022 0.021-0.022 0.032zM4.053 17.075c0.043 0.109 0.086 0.228 0.13 0.337-0.011 0-0.076 0.033-0.086 0.043-0.043-0.108-0.097-0.227-0.14-0.335 0.011-0.011 0.076-0.044 0.097-0.044zM28.1 27.417c0.053-0.021 0.118-0.033 0.205-0.053-0.098 0.075-0.173 0.129-0.238 0.194-0.011-0.011-0.022-0.022-0.033-0.022 0.022-0.043 0.044-0.076 0.066-0.119zM14.822 4.561c0.064-0.043 0.119-0.076 0.184-0.119l0.021 0.021c-0.066 0.086-0.119 0.172-0.195 0.281-0.011-0.075-0.011-0.119-0.022-0.172-0.011 0 0 0 0.011-0.011zM17.987 10.034c0.097-0.043 0.195-0.086 0.313-0.141-0.011 0.065-0.011 0.108-0.011 0.152-0.033-0.011-0.076-0.022-0.108-0.022-0.065 0.011-0.184 0.098-0.238 0.108-0.010 0 0.044-0.086 0.044-0.097zM26.090 19.207c0.021 0.108 0.227 0.162 0.021 0.27 0.033 0.023 0.064 0.033 0.097 0.055 0 0.011-0.011 0.033-0.021 0.044-0.022 0.010-0.065 0.032-0.086 0.021-0.011 0-0.033-0.043-0.033-0.064 0-0.097 0.011-0.195 0.022-0.324z"></path>
</svg>
