<!-- Generated by IcoMoon.io -->
<svg version="1.1" xmlns="http://www.w3.org/2000/svg" width="32" height="32" viewBox="0 0 32 32">
<path fill="#000" d="M23.452 23.028c0.196-1.633 0.137-1.873 1.354-1.608l0.309 0.027c0.936 0.043 2.159-0.151 2.878-0.485 1.548-0.718 2.465-1.917 0.939-1.602-3.481 0.718-3.72-0.46-3.72-0.46 3.676-5.454 5.212-12.377 3.886-14.072-3.617-4.622-9.879-2.437-9.984-2.38l-0.034 0.006c-0.688-0.143-1.457-0.228-2.322-0.242-1.575-0.026-2.771 0.413-3.677 1.1 0 0-11.171-4.602-10.651 5.788 0.111 2.21 3.168 16.724 6.815 12.341 1.333-1.603 2.621-2.959 2.621-2.959 0.639 0.425 1.405 0.642 2.208 0.564l0.062-0.053c-0.020 0.199-0.011 0.394 0.025 0.624-0.939 1.050-0.663 1.234-2.541 1.62-1.901 0.392-0.784 1.089-0.055 1.271 0.884 0.221 2.928 0.534 4.309-1.399l-0.055 0.221c0.368 0.295 0.344 2.119 0.396 3.422s0.14 2.52 0.405 3.237c0.266 0.717 0.579 2.564 3.048 2.035 2.063-0.441 3.64-1.077 3.784-6.996z"></path>
<path fill="#000" d="M18.864 31.314c-1.092 0-1.803-0.422-2.235-0.83-0.652-0.615-0.91-1.407-1.065-1.881l-0.067-0.198c-0.311-0.84-0.416-2.048-0.479-3.605-0.009-0.234-0.016-0.474-0.023-0.73-0.005-0.187-0.012-0.421-0.021-0.666-0.359 0.176-0.775 0.312-1.212 0.388l-0.028 0.004c-0.77 0.131-1.597 0.089-2.46-0.127-0.609-0.152-1.241-0.468-1.602-0.955-1.051 0.92-2.053 0.796-2.599 0.613-0.963-0.321-1.825-1.224-2.636-2.759-0.577-1.094-1.135-2.519-1.659-4.236-0.913-2.99-1.492-6.139-1.544-7.173-0.162-3.236 0.709-5.551 2.589-6.878 2.965-2.095 7.458-0.863 9.096-0.304 1.101-0.663 2.395-0.986 3.858-0.963 0.786 0.013 1.534 0.082 2.229 0.206 0.725-0.228 2.157-0.555 3.796-0.535 3.020 0.036 5.523 1.213 7.237 3.404 1.224 1.563 0.619 4.845 0.149 6.663-0.66 2.556-1.818 5.276-3.239 7.643 0.386 0.003 0.945-0.044 1.74-0.208 1.569-0.324 2.027 0.517 2.152 0.894 0.499 1.511-1.669 2.652-2.346 2.966-0.866 0.402-2.279 0.647-3.436 0.594l-0.050-0.003-0.304-0.027-0.030 0.253-0.029 0.248c-0.078 3-0.506 4.899-1.388 6.155-0.924 1.316-2.209 1.685-3.34 1.927-0.386 0.082-0.737 0.119-1.055 0.119zM16.567 20.396c0.705 0.564 0.767 1.625 0.822 3.608 0.007 0.247 0.014 0.482 0.022 0.701 0.026 0.663 0.089 2.214 0.332 2.869 0.034 0.093 0.065 0.187 0.098 0.287 0.271 0.829 0.407 1.245 1.577 0.994 0.983-0.211 1.488-0.4 1.884-0.963 0.575-0.819 0.896-2.465 0.955-4.894l1.196 0.029-1.188-0.142 0.035-0.297c0.114-0.977 0.196-1.683 0.849-2.151 0.524-0.375 1.122-0.338 1.597-0.253-0.523-0.395-0.667-0.858-0.706-1.048l-0.1-0.491 0.28-0.416c1.614-2.395 2.945-5.338 3.652-8.076 0.727-2.813 0.505-4.306 0.284-4.589-2.932-3.747-8.017-2.2-8.548-2.024l-0.090 0.049-0.45 0.084-0.23-0.048c-0.636-0.132-1.341-0.205-2.098-0.217-1.189-0.020-2.148 0.261-2.935 0.858l-0.546 0.414-0.633-0.261c-1.353-0.553-5.327-1.665-7.424-0.18-1.164 0.825-1.694 2.44-1.576 4.802 0.039 0.78 0.569 3.732 1.443 6.594 1.208 3.956 2.305 5.271 2.763 5.423 0.080 0.027 0.287-0.134 0.494-0.382 0.931-1.113 1.804-2.095 2.705-3.051l-0.032 0.034 0.693-0.729 0.837 0.556c0.338 0.224 0.71 0.352 1.092 0.375l1.997-1.703-0.289 2.952c-0.007 0.066-0.010 0.157 0.016 0.324l0.087 0.559-0.421 0.471 1.097 0.506 0.459-0.575z"></path>
<path fill="#336791" d="M28.933 19.36c-3.481 0.718-3.721-0.46-3.721-0.46 3.676-5.454 5.212-12.377 3.886-14.072-3.617-4.622-9.88-2.436-9.984-2.38l-0.034 0.006c-0.688-0.143-1.457-0.228-2.323-0.242-1.575-0.026-2.77 0.413-3.677 1.101 0 0-11.171-4.602-10.652 5.788 0.111 2.21 3.168 16.725 6.815 12.341 1.333-1.603 2.621-2.959 2.621-2.959 0.64 0.425 1.405 0.642 2.208 0.564l0.063-0.053c-0.020 0.199-0.011 0.394 0.025 0.624-0.94 1.050-0.664 1.234-2.542 1.62-1.9 0.392-0.784 1.089-0.055 1.271 0.883 0.221 2.928 0.534 4.309-1.399l-0.055 0.221c0.368 0.295 0.627 1.918 0.583 3.389s-0.073 2.482 0.218 3.27c0.29 0.789 0.579 2.564 3.048 2.035 2.063-0.442 3.132-1.588 3.281-3.499 0.105-1.359 0.344-1.158 0.36-2.372l0.192-0.575c0.221-1.842 0.035-2.436 1.306-2.16l0.309 0.027c0.936 0.043 2.16-0.151 2.878-0.485 1.547-0.718 2.465-1.917 0.939-1.602z"></path>
<path fill="#fff" d="M18.989 30.577c-2.058 0-2.71-1.63-2.977-2.296-0.39-0.977-0.475-4.767-0.388-7.876 0.005-0.215 0.181-0.388 0.397-0.388 0.004 0 0.009 0 0.013 0l-0.001-0c0.215 0.006 0.388 0.182 0.388 0.398 0 0.004-0 0.008-0 0.012v-0.001c-0.1 3.585 0.042 6.834 0.331 7.557 0.451 1.127 1.135 2.113 3.069 1.699 1.836-0.394 2.523-1.090 2.829-2.865 0.235-1.362 0.7-5.238 0.757-6.003 0.016-0.207 0.187-0.369 0.397-0.369 0.011 0 0.021 0 0.032 0.001l-0.001-0c0.207 0.016 0.369 0.188 0.369 0.398 0 0.010-0 0.021-0.001 0.031l0-0.001c-0.060 0.796-0.522 4.664-0.766 6.079-0.361 2.097-1.296 3.048-3.448 3.509-0.366 0.078-0.698 0.113-1 0.113zM7.83 22.616c-0.189-0.001-0.371-0.033-0.541-0.091l0.012 0.004c-1.337-0.446-2.61-2.623-3.784-6.471-0.894-2.929-1.461-5.987-1.51-6.98-0.147-2.946 0.611-5.030 2.255-6.194 3.252-2.304 8.722-0.11 8.953-0.015 0.147 0.061 0.248 0.203 0.248 0.369 0 0.22-0.179 0.399-0.399 0.399-0.054 0-0.106-0.011-0.153-0.031l0.003 0.001c-0.053-0.022-5.298-2.123-8.192-0.071-1.405 0.996-2.051 2.848-1.918 5.503 0.042 0.837 0.571 3.821 1.476 6.787 1.048 3.435 2.242 5.603 3.274 5.947 0.162 0.054 0.655 0.218 1.36-0.629 0.885-1.060 1.72-1.998 2.583-2.91l-0.027 0.028c0.072-0.072 0.172-0.116 0.282-0.116 0.22 0 0.399 0.179 0.399 0.399 0 0.104-0.040 0.199-0.105 0.27l0-0c-0.012 0.012-1.212 1.267-2.519 2.84-0.619 0.745-1.213 0.963-1.697 0.963zM25.188 19.255c-0.22-0-0.398-0.179-0.398-0.399 0-0.083 0.025-0.16 0.069-0.224l-0.001 0.001c3.716-5.514 5.020-12.176 3.903-13.604-1.406-1.796-3.391-2.735-5.901-2.789-1.858-0.040-3.335 0.434-3.577 0.517l-0.061 0.025c-0.243 0.076-0.429-0.057-0.499-0.212-0.022-0.048-0.035-0.105-0.035-0.164 0-0.144 0.076-0.271 0.191-0.341l0.002-0.001c0.012-0.007 0.048-0.022 0.107-0.044v-0c0.41-0.15 1.91-0.6 3.767-0.579 2.777 0.030 5.071 1.1 6.634 3.097 0.739 0.945 0.741 3.121 0.005 5.972-0.75 2.906-2.163 6.029-3.874 8.569-0.076 0.114-0.203 0.176-0.331 0.176zM25.378 21.808c-0.634 0-1.203-0.090-1.544-0.294-0.35-0.21-0.417-0.495-0.425-0.646-0.096-1.677 0.83-1.97 1.302-2.103-0.066-0.099-0.159-0.216-0.256-0.337-0.275-0.344-0.652-0.815-0.943-1.52-0.046-0.11-0.188-0.366-0.353-0.662-0.895-1.604-2.756-4.943-1.561-6.653 0.553-0.791 1.656-1.103 3.28-0.929-0.478-1.455-2.753-6.008-8.151-6.097-1.623-0.027-2.955 0.472-3.956 1.482-2.24 2.262-2.159 6.356-2.158 6.396 0 0.003 0 0.007 0 0.011 0 0.22-0.179 0.399-0.399 0.399-0.217 0-0.393-0.173-0.399-0.388v-0.001c-0.005-0.182-0.088-4.477 2.389-6.979 1.159-1.171 2.685-1.749 4.535-1.718 3.454 0.057 5.677 1.813 6.933 3.275 1.37 1.594 2.041 3.353 2.096 3.94 0.041 0.437-0.272 0.524-0.335 0.537l-0.144 0.003c-1.594-0.255-2.616-0.078-3.039 0.526-0.91 1.3 0.852 4.458 1.604 5.807 0.192 0.344 0.331 0.593 0.394 0.746 0.247 0.599 0.569 1.002 0.828 1.325 0.228 0.285 0.425 0.531 0.495 0.821 0.033 0.058 0.497 0.745 3.255 0.176 0.691-0.142 1.106-0.021 1.232 0.363 0.249 0.754-1.149 1.633-1.924 1.992-0.694 0.323-1.801 0.526-2.759 0.526zM24.203 20.802c0.087 0.088 0.525 0.241 1.432 0.201 0.806-0.035 1.656-0.21 2.166-0.447 0.652-0.303 1.088-0.642 1.313-0.873l-0.125 0.023c-1.763 0.364-3.011 0.316-3.707-0.144-0.051-0.034-0.095-0.067-0.137-0.102l0.002 0.002c-0.076 0.030-0.145 0.049-0.195 0.063-0.395 0.111-0.803 0.226-0.749 1.276zM12.813 23.031c-0.438 0-0.899-0.060-1.37-0.177-0.488-0.122-1.31-0.489-1.297-1.093 0.014-0.677 0.998-0.88 1.369-0.956 1.338-0.276 1.426-0.386 1.844-0.918 0.122-0.155 0.274-0.348 0.481-0.579 0.307-0.344 0.643-0.518 0.998-0.518 0.247 0 0.45 0.084 0.584 0.14 0.427 0.177 0.783 0.605 0.93 1.117 0.132 0.462 0.069 0.906-0.177 1.252-0.809 1.133-1.972 1.732-3.361 1.732zM11.008 21.796c0.12 0.093 0.361 0.217 0.63 0.284 0.408 0.102 0.803 0.154 1.176 0.154 1.136 0 2.049-0.471 2.712-1.398 0.138-0.194 0.097-0.439 0.060-0.569-0.078-0.271-0.27-0.517-0.468-0.599-0.107-0.044-0.197-0.078-0.279-0.078-0.044 0-0.178 0-0.403 0.252-0.144 0.161-0.29 0.337-0.431 0.517l-0.017 0.023c-0.521 0.662-0.76 0.886-2.31 1.205-0.378 0.078-0.572 0.157-0.668 0.209zM14.075 19.956c-0.199-0-0.363-0.146-0.393-0.336l-0-0.002c-0.009-0.056-0.016-0.125-0.020-0.195l-0-0.005c-1.016-0.019-1.996-0.455-2.74-1.232-0.941-0.982-1.369-2.342-1.175-3.732 0.211-1.509 0.132-2.841 0.090-3.557-0.012-0.199-0.020-0.343-0.020-0.442 0.001-0.126 0.003-0.461 1.122-1.028 0.398-0.202 1.196-0.554 2.068-0.644 1.444-0.149 2.396 0.494 2.681 1.812 0.769 3.557 0.061 5.13-0.456 6.279-0.096 0.214-0.187 0.416-0.26 0.612l-0.064 0.172c-0.273 0.733-0.509 1.366-0.437 1.838 0.003 0.018 0.005 0.039 0.005 0.061 0 0.199-0.146 0.364-0.336 0.394l-0.002 0-0.061 0.005zM10.616 10.565l0.015 0.285c0.044 0.744 0.126 2.127-0.096 3.715-0.16 1.146 0.19 2.265 0.961 3.069 0.609 0.636 1.411 0.986 2.235 0.986h0.017c0.092-0.389 0.245-0.799 0.411-1.241l0.064-0.172c0.082-0.221 0.178-0.435 0.28-0.662 0.498-1.106 1.117-2.483 0.404-5.783-0.141-0.654-0.484-1.032-1.047-1.157-1.157-0.255-2.881 0.615-3.244 0.959zM13.024 10.396c-0.020 0.141 0.258 0.518 0.621 0.568s0.672-0.244 0.692-0.385-0.258-0.296-0.621-0.347c-0.363-0.050-0.673 0.023-0.692 0.164zM13.728 11.102l-0.102-0.007c-0.225-0.031-0.453-0.173-0.608-0.38-0.055-0.072-0.144-0.213-0.126-0.338 0.025-0.184 0.25-0.294 0.6-0.294 0.078 0 0.16 0.006 0.242 0.017 0.191 0.027 0.369 0.082 0.501 0.155 0.227 0.127 0.244 0.269 0.234 0.342-0.028 0.203-0.351 0.505-0.74 0.505zM13.156 10.419c0.011 0.087 0.227 0.374 0.507 0.413l0.065 0.005c0.259 0 0.453-0.204 0.475-0.271-0.024-0.046-0.191-0.159-0.506-0.203-0.062-0.009-0.133-0.015-0.205-0.015h-0c-0.203 0-0.311 0.046-0.336 0.070zM24.057 10.108c0.020 0.141-0.258 0.518-0.621 0.568s-0.673-0.244-0.693-0.385c-0.019-0.141 0.259-0.297 0.622-0.347s0.672 0.023 0.692 0.164zM23.352 10.748c-0.349 0-0.65-0.271-0.675-0.448-0.029-0.211 0.32-0.372 0.678-0.422 0.079-0.011 0.157-0.017 0.233-0.017 0.309 0 0.515 0.091 0.535 0.237 0.013 0.095-0.059 0.241-0.185 0.373-0.083 0.087-0.256 0.237-0.493 0.27l-0.093 0.006zM23.588 9.995c-0.069 0-0.141 0.005-0.214 0.015-0.36 0.050-0.575 0.195-0.565 0.272 0.012 0.085 0.242 0.333 0.543 0.333l0.074-0.005c0.197-0.027 0.345-0.156 0.415-0.23 0.111-0.116 0.155-0.226 0.149-0.263-0.007-0.050-0.14-0.123-0.403-0.123zM24.579 18.206c-0 0-0 0-0 0-0.22 0-0.398-0.178-0.398-0.398 0-0.083 0.025-0.16 0.069-0.224l-0.001 0.001c0.849-1.269 0.694-2.563 0.544-3.814-0.064-0.533-0.13-1.084-0.113-1.613 0.017-0.544 0.087-0.993 0.154-1.428 0.079-0.514 0.154-1.001 0.123-1.578-0-0.006-0.001-0.014-0.001-0.021 0-0.22 0.179-0.399 0.399-0.399 0.213 0 0.387 0.166 0.398 0.376l0 0.001c0.035 0.659-0.049 1.21-0.131 1.742-0.063 0.411-0.129 0.835-0.145 1.332-0.015 0.469 0.044 0.966 0.108 1.492 0.16 1.331 0.341 2.838-0.673 4.353-0.073 0.107-0.194 0.177-0.332 0.177-0 0-0 0-0 0h0z"></path>
</svg>
