<!-- Generated by IcoMoon.io -->
<svg version="1.1" xmlns="http://www.w3.org/2000/svg" width="32" height="32" viewBox="0 0 32 32">
<path fill="#0b7fcc" d="M17.375 24.794c-0.015-0.183-0.023-0.3-0.023-0.3s-0.552-3.722-1.209-4.834c-0.104-0.177 0.011-0.898 0.302-1.97 0.17 0.292 0.885 1.548 1.029 1.953 0.162 0.456 0.195 0.587 0.195 0.587s-0.392-2.021-1.036-3.199c0.236-0.813 0.407-1.334 0.588-1.851l-0.087 0.284c0.243 0.428 0.828 1.465 0.957 1.825 0.026 0.073 0.048 0.136 0.067 0.194 0.006-0.034 0.012-0.069 0.018-0.104-0.148-0.626-0.438-1.715-0.834-2.521 0.88-4.582 3.883-10.706 6.96-13.438h-20.078c-1.347 0-2.447 1.101-2.447 2.447v22.142c0 1.346 1.102 2.447 2.447 2.447h13.224c-0.064-0.728-0.1-1.576-0.1-2.432 0-0.433 0.009-0.864 0.028-1.293l-0.002 0.061z"></path>
<path fill="#000" d="M16.444 17.691c0.17 0.292 0.885 1.547 1.029 1.952 0.162 0.456 0.195 0.587 0.195 0.587s-0.392-2.021-1.036-3.199c0.237-0.817 0.408-1.339 0.589-1.856l-0.088 0.288c0.222 0.392 0.73 1.292 0.913 1.718l0.020-0.24c-0.162-0.624-0.408-1.441-0.724-2.082 0.811-4.218 3.42-9.742 6.232-12.725h-19.349c-0.957 0.001-1.732 0.776-1.734 1.733v20.528c4.382-1.683 9.666-3.22 14.214-3.154-0.168-0.651-0.36-1.24-0.563-1.581-0.104-0.177 0.011-0.899 0.302-1.97z"></path>
<path fill="#003956" d="M28.988 0.695c-1.375-1.226-3.041-0.733-4.683 0.725-0.258 0.231-0.496 0.465-0.722 0.708l-0.006 0.007c-2.813 2.981-5.421 8.506-6.232 12.724 0.316 0.641 0.563 1.458 0.724 2.082 0.042 0.16 0.080 0.311 0.11 0.439 0.071 0.302 0.109 0.499 0.109 0.499s-0.025-0.096-0.129-0.395c-0.020-0.058-0.042-0.121-0.067-0.193-0.011-0.031-0.026-0.069-0.043-0.108-0.183-0.426-0.691-1.326-0.914-1.717-0.191 0.563-0.359 1.090-0.501 1.566 0.645 1.179 1.037 3.199 1.037 3.199s-0.034-0.131-0.195-0.587c-0.145-0.405-0.86-1.66-1.029-1.952-0.291 1.070-0.406 1.793-0.302 1.97 0.202 0.34 0.393 0.93 0.563 1.581 0.381 1.467 0.646 3.253 0.646 3.253s0.008 0.117 0.023 0.3c-0.016 0.367-0.026 0.798-0.026 1.231 0 0.856 0.036 1.703 0.107 2.541l-0.007-0.109c0.126 1.527 0.363 2.841 0.666 3.543l0.207-0.112c-0.445-1.384-0.626-3.198-0.547-5.289 0.12-3.198 0.855-7.054 2.214-11.072 2.298-6.067 5.485-10.934 8.401-13.259-2.658 2.401-6.256 10.171-7.333 13.049-1.205 3.223-2.059 6.246-2.575 9.143 0.887-2.716 3.762-3.883 3.762-3.883s1.409-1.739 3.057-4.222c-0.988 0.226-2.607 0.611-3.149 0.838-0.8 0.336-1.017 0.45-1.017 0.45s2.593-1.578 4.817-2.293c3.058-4.818 6.39-11.662 3.035-14.655z"></path>
</svg>
