<!-- Generated by IcoMoon.io -->
<svg version="1.1" xmlns="http://www.w3.org/2000/svg" width="32" height="32" viewBox="0 0 32 32">
<path fill="#000" d="M22.554 3.867h-16.931c-0.837 0.001-1.515 0.679-1.516 1.516v17.962c4.014-1.561 8.656-2.533 13.505-2.682l0.064-0.002c1.428-6.59 3.108-12.209 5.16-17.645l-0.282 0.851z"></path>
<path fill="#0f80cc" d="M23.192 3.242h-17.569c-1.181 0.003-2.138 0.96-2.141 2.141v19.376c0.003 1.181 0.96 2.138 2.141 2.141h11.572c-0.132-5.758 1.835-16.932 5.997-23.658z"></path>
<path fill="#003b57" d="M27.29 2.608c-1.2-1.073-2.66-0.642-4.1 0.634-0.213 0.19-0.426 0.4-0.638 0.625-2.613 3.075-4.52 6.832-5.421 10.965l-0.031 0.168c0.244 0.515 0.461 1.122 0.619 1.752l0.015 0.070c0.036 0.14 0.069 0.272 0.1 0.384 0.062 0.265 0.1 0.437 0.1 0.437s-0.022-0.083-0.113-0.346l-0.059-0.17c-0.010-0.027-0.023-0.059-0.038-0.094-0.16-0.373-0.6-1.16-0.8-1.5-0.167 0.493-0.315 0.954-0.438 1.371 0.385 0.805 0.699 1.743 0.895 2.723l0.013 0.077s-0.030-0.115-0.171-0.515c-0.321-0.692-0.622-1.252-0.948-1.794l0.048 0.086c-0.173 0.433-0.273 0.934-0.273 1.459 0 0.093 0.003 0.186 0.009 0.278l-0.001-0.012c0.204 0.397 0.374 0.859 0.485 1.343l0.008 0.040c0.334 1.283 0.566 2.846 0.566 2.846s0.008 0.1 0.020 0.263c-0.014 0.32-0.022 0.696-0.022 1.073 0 0.75 0.032 1.493 0.094 2.228l-0.007-0.096c0.054 1.126 0.264 2.184 0.608 3.18l-0.024-0.080 0.18-0.1c-0.322-1.114-0.508-2.394-0.508-3.718 0-0.32 0.011-0.638 0.032-0.953l-0.002 0.043c0.206-3.53 0.9-6.833 2.015-9.934l-0.077 0.246c2.010-5.308 4.8-9.568 7.35-11.6-2.326 2.1-5.474 8.9-6.417 11.418-0.899 2.259-1.679 4.942-2.209 7.715l-0.045 0.285c0.617-1.532 1.781-2.735 3.245-3.388l0.039-0.016s1.233-1.521 2.674-3.693c-1.114 0.233-2.038 0.486-2.94 0.786l0.185-0.053c-0.7 0.294-0.889 0.394-0.889 0.394 1.202-0.738 2.592-1.415 4.049-1.953l0.166-0.054c2.676-4.215 5.592-10.2 2.656-12.824z"></path>
</svg>
