<!-- Generated by IcoMoon.io -->
<svg version="1.1" xmlns="http://www.w3.org/2000/svg" width="32" height="32" viewBox="0 0 32 32">
<path d="M4.055 3.941c-0.154 0.003-0.277 0.128-0.277 0.282 0 0.024 0.003 0.047 0.009 0.069l-0-0.002 6.098 24.686c0.031 0.124 0.142 0.215 0.274 0.215 0.076 0 0.145-0.030 0.196-0.079l-0 0 18.346-17.648c0.053-0.051 0.087-0.124 0.087-0.204 0-0.128-0.085-0.236-0.202-0.271l-0.002-0.001-24.445-7.038c-0.023-0.007-0.050-0.011-0.078-0.011-0.002 0-0.003 0-0.005 0h0zM4.451 4.629l23.506 6.768-17.642 16.969-5.864-23.737z"></path>
<path d="M16.284 7.46c-0.002-0-0.004-0-0.006-0-0.076 0-0.145 0.030-0.196 0.079l0-0-9.169 8.826c-0.053 0.051-0.086 0.123-0.086 0.203 0 0.128 0.085 0.236 0.202 0.271l0.002 0 12.215 3.52c0.023 0.007 0.050 0.011 0.078 0.011 0.156 0 0.282-0.126 0.282-0.282 0-0.024-0.003-0.047-0.009-0.070l0 0.002-3.046-12.347c-0.031-0.122-0.139-0.212-0.268-0.215h-0zM16.122 8.285l2.812 11.398-11.276-3.25 8.464-8.148z"></path>
<path d="M11.729 11.828c-0.154 0.003-0.277 0.128-0.277 0.282 0 0.024 0.003 0.047 0.009 0.069l-0-0.002 1.514 6.133c0.031 0.124 0.142 0.215 0.274 0.215 0.076 0 0.145-0.030 0.196-0.079l-0 0 4.556-4.391c0.053-0.051 0.086-0.123 0.086-0.203 0-0.128-0.085-0.236-0.202-0.271l-0.002-0.001-6.069-1.742c-0.023-0.007-0.050-0.011-0.078-0.011-0.002 0-0.003 0-0.005 0h0zM12.124 12.516l5.131 1.473-3.851 3.711-1.279-5.184z"></path>
<path d="M10.226 5.702c-0.002-0-0.004-0-0.006-0-0.076 0-0.145 0.030-0.196 0.079l0-0-4.556 4.39c-0.053 0.051-0.086 0.123-0.086 0.203 0 0.128 0.085 0.236 0.202 0.271l0.002 0.001 6.068 1.742c0.023 0.007 0.050 0.011 0.078 0.011 0.156 0 0.282-0.126 0.282-0.282 0-0.024-0.003-0.047-0.009-0.070l0 0.002-1.513-6.133c-0.031-0.122-0.139-0.212-0.268-0.215h-0zM10.063 6.527l1.278 5.184-5.129-1.473 3.851-3.712zM22.363 9.198c-0.002-0-0.004-0-0.006-0-0.076 0-0.145 0.030-0.196 0.079l0-0-4.556 4.39c-0.053 0.051-0.087 0.124-0.087 0.203 0 0.128 0.085 0.236 0.203 0.271l0.002 0.001 6.069 1.742c0.023 0.007 0.050 0.011 0.078 0.011 0.156 0 0.282-0.126 0.282-0.282 0-0.024-0.003-0.047-0.009-0.070l0 0.002-1.512-6.133c-0.031-0.122-0.139-0.212-0.268-0.215h-0zM22.201 10.023l1.279 5.184-5.129-1.473 3.851-3.712zM13.236 17.966c-0.072 0.003-0.137 0.032-0.185 0.079l0-0-4.556 4.391c-0.053 0.051-0.086 0.123-0.086 0.203 0 0.128 0.085 0.236 0.202 0.271l0.002 0 6.069 1.742c0.023 0.007 0.050 0.011 0.078 0.011 0.156 0 0.282-0.126 0.282-0.282 0-0.024-0.003-0.047-0.009-0.069l0 0.002-1.514-6.133c-0.031-0.124-0.142-0.215-0.274-0.215-0.004 0-0.008 0-0.011 0l0.001-0zM13.091 18.791l1.28 5.184-5.13-1.473 3.851-3.712z"></path>
</svg>
